<svg xmlns="http://www.w3.org/2000/svg" width="132.03" height="128.67" viewBox="0 0 132.03 128.67">
  <g id="freepik--Boxes--inject-11" transform="translate(-138.32 -302.09)">
    <path id="Path_91" data-name="Path 91" d="M0,0H94.57V78.13H0Z" transform="translate(138.32 352.62)" fill="#9f329c"/>
    <rect id="Rectangle_41" data-name="Rectangle 41" width="37.47" height="78.14" transform="translate(232.88 352.62)" fill="#92278f"/>
    <rect id="Rectangle_42" data-name="Rectangle 42" width="37.47" height="78.14" transform="translate(232.88 352.62)" opacity="0.1"/>
    <path id="Path_84" data-name="Path 84" d="M267.77,425.38q-4.15-8.34-8.25-16.73l-8.13-16.8-8-16.88q-4-8.46-7.9-17,4.16,8.34,8.25,16.73l8.12,16.8,8,16.88Q263.86,416.87,267.77,425.38Z" fill="#92278f"/>
    <path id="Path_85" data-name="Path 85" d="M267.77,358q-3.91,8.52-7.9,17l-8,16.88-8.12,16.8q-4.09,8.4-8.25,16.73,3.9-8.52,7.9-17l8-16.88,8.13-16.8Q263.62,366.33,267.77,358Z" fill="#92278f"/>
    <path id="Path_86" data-name="Path 86" d="M192.29,369.51h-2.62l-.64-1.31-.9,1.31-1.21-2.68-1.16,2.68h-4.81l-.54-1.79-.52,1.79h-.98V352.62h13.38Z" fill="#fff"/>
    <rect id="Rectangle_47" data-name="Rectangle 47" width="62.11" height="50.52" transform="translate(157.52 302.09)" fill="#92278f"/>
    <rect id="Rectangle_48" data-name="Rectangle 48" width="62.11" height="50.52" transform="translate(157.52 302.09)" opacity="0.1"/>
    <rect id="Rectangle_49" data-name="Rectangle 49" width="36.43" height="50.53" transform="translate(219.64 302.1)" fill="#92278f"/>
    <rect id="Rectangle_50" data-name="Rectangle 50" width="36.43" height="50.53" transform="translate(219.64 302.1)" opacity="0.2"/>
    <path id="Path_89" data-name="Path 89" d="M268.56,349.64q-4.05-5.2-8-10.46l-7.91-10.52-7.8-10.56q-3.89-5.3-7.68-10.62,4,5.22,8,10.46l7.9,10.52,7.8,10.57Q264.76,344.31,268.56,349.64Z" transform="translate(-15)" fill="#92278f"/>
    <path id="Path_90" data-name="Path 90" d="M268.56,307.48q-3.81,5.32-7.69,10.62l-7.8,10.56-7.9,10.52q-4,5.25-8,10.46,3.79-5.33,7.68-10.61l7.8-10.57,7.91-10.52Q264.5,312.69,268.56,307.48Z" transform="translate(-15)" fill="#92278f"/>
  </g>
</svg>
