<svg xmlns="http://www.w3.org/2000/svg" width="1249.411" height="2209.057" viewBox="0 0 1249.411 2209.057">
  <g id="logo2" transform="translate(-0.002)">
    <g id="Layer_1" data-name="Layer 1" transform="translate(0.002 0)">
      <path id="Path_14" data-name="Path 14" d="M207.877,427.285c73.67-15.839,124.993-99.331,105.471-173.37-2.824-10.8-6.139-21.61-10.928-37.94,36.1,21.978,64.829,41.623,95.648,57.954,85.334,45.307,175.089,75.389,275.894,60.286,89.632-13.506,161.337-82.756,171.16-164.407C852.856,105.962,798.832,29.1,722.338,0c0,9.823-1.105,17.435-1.719,24.557-6.876,98.226-66.426,150.287-172.879,148.69a343.789,343.789,0,0,1-70.969-7.735C416.24,151.637,356.813,133.1,296.281,120.819c-137.394-27.5-238.568,33.643-258.95,153.233-14.857,87.3,79.932,171.9,170.546,153.233" transform="translate(403.553 0)" fill="#fff"/>
      <path id="Path_15" data-name="Path 15" d="M1170.587,1162.568C1154.5,1034.751,1097.9,968.939,979.659,944.137A759.276,759.276,0,0,0,834.9,928.912C649,926.7,463.233,927.684,277.34,926.088a478.127,478.127,0,0,1-104.12-11.542A66.426,66.426,0,0,1,144,799.99a115.907,115.907,0,0,1,60.655-33.642,1474.707,1474.707,0,0,1,171.16-9.455c103.874,0,208.731,6.262,311.746.982a458.225,458.225,0,0,0,254.284-92.087c139.236-104.12,167.6-302.906,61.392-437.476A462.522,462.522,0,0,0,822.62,88.83C699.836,35.174,571.528,27.438,441.992,49.662a479.713,479.713,0,0,0-282.4,150.409C40.246,330.344,39.632,578.12,229.823,670.208a201.867,201.867,0,0,1,22.346,15.962c-38.308,14.857-70.969,24.557-101.419,39.659C-40.423,819.88-27.776,1072.691,67.258,1171.285a657.864,657.864,0,0,0,78.581,64.093c19.4,14.488,19.891,21.487-.614,34.379-14.734,9.209-29.591,18.049-44.079,27.626-146.112,96.262-119.222,293.82-9.209,373.629A517.538,517.538,0,0,0,196.3,1729.089c84.6,34.993,174.106,44.325,263.984,49.113,126.344,6.507,251.582,0,372.524-43.711,161.951-58.2,279.945-164.652,325.5-346.985A609.735,609.735,0,0,0,1170.587,1162.568ZM333.575,373.932a204.188,204.188,0,0,1,19.031-47.763c41.624-76.371,130.518-132.36,233.288-135.061A293.949,293.949,0,0,1,649,198.6a432.083,432.083,0,0,1,55.007,18.909C936.071,335.992,807.394,583.646,592.033,586.47a354.11,354.11,0,0,1-62.5,0C407.367,575.911,309.018,500.03,333.575,373.932Zm730.068,1022.415c-5.771,87.176-46.044,152.988-110.5,204.311-75.143,60.286-161.582,90.491-253.424,103.629-100.068,14.366-200.627,17.067-299.468-9.454a383.577,383.577,0,0,1-92.456-37.817c-125.362-72.81-160.478-250.232-74.529-372.524a43.22,43.22,0,0,1,31.31-14.365c109.523-1.1,219.045-.614,328.568-.614h0c102.4,0,204.679-.614,306.958,0a428.6,428.6,0,0,1,82.879,9.454C1043.629,1292.472,1068.186,1330.412,1063.643,1396.347Z" transform="translate(-0.002 428.701)" fill="#fff"/>
    </g>
  </g>
</svg>
