<svg id="proprty-rights-purple" xmlns="http://www.w3.org/2000/svg" width="132.538" height="126.694" viewBox="0 0 132.538 126.694">
  <path id="Path_112" data-name="Path 112" d="M192.759,195.147c0-5.41,7.376-11.776,6.041-16.788-1.388-5.183-10.991-6.978-13.615-11.523s.546-13.8-3.191-17.548-12.929-.514-17.548-3.182-6.311-12.226-11.514-13.615c-5.013-1.335-11.352,6.041-16.788,6.041s-11.776-7.376-16.788-6.041c-5.183,1.388-6.978,10.991-11.523,13.615s-13.8-.546-17.548,3.191-.514,12.929-3.182,17.548-12.226,6.311-13.615,11.514c-1.364,5.013,6.041,11.378,6.041,16.788s-7.376,11.776-6.041,16.788c1.388,5.183,10.991,6.978,13.615,11.523s-.546,13.8,3.191,17.548,12.929.514,17.548,3.182,6.311,12.226,11.514,13.615c5.013,1.335,11.352-6.041,16.788-6.041s11.776,7.376,16.788,6.041c5.183-1.388,6.978-10.991,11.523-13.615s13.8.546,17.548-3.191.514-12.929,3.182-17.548,12.226-6.311,13.615-11.514C200.161,206.921,192.759,200.556,192.759,195.147Z" transform="translate(-66.429 -132.328)" fill="rgba(0,0,0,0.18)"/>
  <g id="Group_26" data-name="Group 26" transform="translate(0 0.001)">
    <path id="Path_112-2" data-name="Path 112" d="M193.768,195.677c0-5.455,7.438-11.875,6.092-16.93-1.4-5.228-11.084-7.038-13.73-11.62s.555-13.92-3.219-17.694-13.039-.518-17.694-3.21-6.365-12.329-11.611-13.73c-5.055-1.346-11.447,6.092-16.93,6.092s-11.875-7.438-16.93-6.092c-5.228,1.4-7.038,11.084-11.62,13.73s-13.921-.555-17.694,3.219-.518,13.039-3.21,17.694-12.329,6.365-13.73,11.611c-1.373,5.055,6.092,11.475,6.092,16.93s-7.438,11.875-6.092,16.93c1.4,5.228,11.084,7.038,13.73,11.62s-.555,13.921,3.219,17.694,13.039.518,17.694,3.21,6.365,12.329,11.611,13.73c5.055,1.346,11.447-6.092,16.93-6.092s11.875,7.438,16.93,6.092c5.228-1.4,7.038-11.084,11.62-13.73s13.921.555,17.694-3.219.518-13.039,3.21-17.694,12.329-6.365,13.73-11.611C201.233,207.552,193.768,201.133,193.768,195.677Z" transform="translate(-73.325 -132.331)" fill="#92278f"/>
    <path id="Path_113" data-name="Path 113" d="M139.583,222.487l-24.668-26.113a3.12,3.12,0,0,1,4.546-4.273l19.367,20.513,24.459-35.461a3.119,3.119,0,1,1,5.128,3.537Z" transform="translate(-77.022 -136.265)" fill="#fff"/>
  </g>
</svg>
