<svg xmlns="http://www.w3.org/2000/svg" width="361.06" height="331.101" viewBox="0 0 361.06 331.101">
  <g id="proprty-rights-page-orange" transform="translate(-313.252 -1448.685)">
    <g id="freepik--background-simple--inject-36" transform="translate(271.052 1408.608)">
      <path id="Path_551" data-name="Path 551" d="M297.856,40.089c-33.2.563-58.794,27.482-87.212,44.509-42.911,25.711-98.025,30.934-134.272,65.284-24.811,23.547-37.058,59-33.6,92.864S65,308.36,92.128,329.233c17.3,13.3,37.6,22.268,58.316,29.288,21,7.1,42.857,12.368,65.044,12.645,30.745.385,60.949-8.836,88.763-21.848,19.345-9.041,38-20.095,53.211-35a147.442,147.442,0,0,0,32.946-49.955c18.66-45.931,15.693-98.578-.487-145.431C376.536,80.18,343.816,39.3,297.856,40.089Z" transform="translate(0 0)" fill="#f7941d"/>
      <path id="Path_552" data-name="Path 552" d="M297.856,40.089c-33.2.563-58.794,27.482-87.212,44.509-42.911,25.711-98.025,30.934-134.272,65.284-24.811,23.547-37.058,59-33.6,92.864S65,308.36,92.128,329.233c17.3,13.3,37.6,22.268,58.316,29.288,21,7.1,42.857,12.368,65.044,12.645,30.745.385,60.949-8.836,88.763-21.848,19.345-9.041,38-20.095,53.211-35a147.442,147.442,0,0,0,32.946-49.955c18.66-45.931,15.693-98.578-.487-145.431C376.536,80.18,343.816,39.3,297.856,40.089Z" transform="translate(0 0)" fill="#fff" opacity="0.7"/>
    </g>
    <g id="proprty-rights-orange" transform="translate(371.941 1514.34)">
      <path id="Path_112" data-name="Path 112" d="M291.414,247.033c0-9.879,13.468-21.5,11.031-30.655-2.535-9.463-20.069-12.742-24.861-21.04s1-25.206-5.827-32.043-23.609-.938-32.043-5.811S228.19,135.16,218.69,132.623c-9.153-2.437-20.728,11.031-30.655,11.031s-21.5-13.468-30.655-11.031c-9.463,2.535-12.742,20.069-21.04,24.861s-25.206-1-32.043,5.827-.938,23.609-5.811,32.043-22.324,11.524-24.861,21.024c-2.49,9.153,11.031,20.776,11.031,30.655s-13.468,21.5-11.031,30.655c2.535,9.463,20.069,12.742,24.861,21.04s-1,25.206,5.827,32.043,23.609.938,32.043,5.811,11.524,22.324,21.024,24.861c9.153,2.437,20.728-11.031,30.655-11.031s21.5,13.468,30.655,11.031c9.463-2.535,12.742-20.069,21.04-24.861s25.206,1,32.043-5.828.938-23.609,5.811-32.043,22.324-11.524,24.861-21.024C304.93,268.534,291.414,256.91,291.414,247.033Z" transform="translate(-59.319 -119.328)" fill="rgba(0,0,0,0.18)"/>
      <g id="Group_26" data-name="Group 26" transform="translate(12.324 3.323)">
        <path id="Path_112-2" data-name="Path 112" d="M293.251,248c0-9.962,13.581-21.683,11.124-30.914-2.557-9.547-20.239-12.85-25.07-21.218s1.013-25.418-5.877-32.309-23.808-.946-32.309-5.861-11.622-22.513-21.2-25.07c-9.231-2.457-20.9,11.124-30.914,11.124s-21.683-13.581-30.914-11.124c-9.546,2.557-12.85,20.239-21.218,25.07s-25.419-1.013-32.309,5.877-.946,23.808-5.861,32.309-22.513,11.622-25.07,21.2C71.125,226.317,84.756,238.038,84.756,248s-13.581,21.683-11.124,30.914c2.557,9.547,20.239,12.85,25.07,21.218S97.69,325.55,104.58,332.44s23.808.946,32.309,5.861,11.622,22.513,21.2,25.07c9.231,2.457,20.9-11.124,30.914-11.124s21.683,13.581,30.914,11.124c9.547-2.557,12.85-20.239,21.218-25.07s25.419,1.013,32.309-5.877.946-23.808,5.861-32.309,22.513-11.622,25.07-21.2C306.882,269.682,293.251,257.961,293.251,248Z" transform="translate(-73.325 -132.331)" fill="#f7941d"/>
        <path id="Path_113" data-name="Path 113" d="M160.657,261.154l-45.043-47.683a5.7,5.7,0,0,1,8.3-7.8l35.363,37.455,44.661-64.75a5.695,5.695,0,1,1,9.364,6.458Z" transform="translate(-46.423 -103.714)" fill="#fff"/>
      </g>
    </g>
  </g>
</svg>
