<svg xmlns="http://www.w3.org/2000/svg" width="357.659" height="330.763" viewBox="0 0 357.659 330.763">
  <g id="security-orange" transform="translate(546.667 -1468.023)">
    <g id="freepik--background-simple--inject-36" transform="translate(-588.867 1427.946)">
      <path id="Path_551" data-name="Path 551" d="M295.448,40.089c-32.885.563-58.24,27.454-86.39,44.464-42.507,25.685-97.1,30.9-133.007,65.217-24.577,23.523-36.709,58.937-33.279,92.769s22.013,65.548,48.886,86.4c17.135,13.285,37.245,22.245,57.766,29.258,20.8,7.094,42.454,12.355,64.431,12.632C244.31,371.213,274.23,362,301.782,349c19.163-9.032,37.638-20.074,52.71-34.967,14.241-14.062,25.158-31.34,32.635-49.9,18.484-45.884,15.545-98.478-.482-145.282C373.387,80.139,340.975,39.3,295.448,40.089Z" transform="translate(0 0)" fill="#f7941d"/>
      <path id="Path_552" data-name="Path 552" d="M295.448,40.089c-32.885.563-58.24,27.454-86.39,44.464-42.507,25.685-97.1,30.9-133.007,65.217-24.577,23.523-36.709,58.937-33.279,92.769s22.013,65.548,48.886,86.4c17.135,13.285,37.245,22.245,57.766,29.258,20.8,7.094,42.454,12.355,64.431,12.632C244.31,371.213,274.23,362,301.782,349c19.163-9.032,37.638-20.074,52.71-34.967,14.241-14.062,25.158-31.34,32.635-49.9,18.484-45.884,15.545-98.478-.482-145.282C373.387,80.139,340.975,39.3,295.448,40.089Z" transform="translate(0 0)" fill="#fff" opacity="0.7"/>
    </g>
    <g id="freepik--Shield--inject-2" transform="translate(-667.989 1470.553)">
      <path id="Path_102" data-name="Path 102" d="M361.159,108.676,307.317,89.35l-53.3,19.087c-6.808,3.181-12.725,5.138-12.725,11.468v31.558a119.3,119.3,0,0,0,17.5,62.829,109.4,109.4,0,0,0,49.055,43.328c21.791-7.078,38.063-25.959,48-42.088A119.3,119.3,0,0,0,373.423,152.7V124.312C373.423,115.261,368.619,110.855,361.159,108.676Z" transform="translate(8.103 7.855)" fill="#f7941d"/>
      <g id="Group_24" data-name="Group 24" transform="translate(249.408 97.205)" opacity="0.3">
        <path id="Path_103" data-name="Path 103" d="M307.836,239.3a87.022,87.022,0,0,1-38.811-34.548,94.53,94.53,0,0,1-13.886-49.722V132.885c0-5.01,3.022-9.719,9.035-12.518l43.153-16.129V89.35l-53.3,19.087c-5.6,2.434-12.725,5.138-12.725,11.468v31.558a119.3,119.3,0,0,0,17.5,62.829,109.4,109.4,0,0,0,49.054,43.328Z" transform="translate(-241.299 -89.35)"/>
      </g>
      <g id="Group_25" data-name="Group 25" transform="translate(315.42 97.205)" opacity="0.4">
        <path id="Path_104" data-name="Path 104" d="M283.325,257.621a65.212,65.212,0,0,0,10.578-4.533,94.767,94.767,0,0,0,22.38-17.608,120.027,120.027,0,0,0,15.572-20.917,114.873,114.873,0,0,0,17.051-63.434v-26.07c0-12.979-6.7-13.934-12.3-16.383L282.8,89.35v14.888l43.678,16.367c6.013,2.815,9.035,7.508,9.035,12.534v22.141a94.386,94.386,0,0,1-13.9,49.707,84.811,84.811,0,0,1-38.286,34.294Z" transform="translate(-282.8 -89.35)"/>
      </g>
      <path id="Path_105" data-name="Path 105" d="M304.638,136.349v-4.263a13.981,13.981,0,0,0-27.947,0v4.342a7.826,7.826,0,0,0-6.681,7.73v25.132a7.826,7.826,0,0,0,7.826,7.81h26.086a7.81,7.81,0,0,0,7.826-7.81V144.159A7.826,7.826,0,0,0,304.638,136.349Zm-10.18,26.659h-6.824l1.066-4.915a4.152,4.152,0,1,1,4.5,0Zm7.174-26.69H279.7v-4.231a10.975,10.975,0,0,1,21.934,0Z" transform="translate(25.066 25.116)" fill="#fff" opacity="0.5"/>
      <path id="Path_106" data-name="Path 106" d="M255.955,140.122a17.1,17.1,0,0,1-.8-4.374,72.823,72.823,0,0,1-.445-10.721,55.57,55.57,0,0,1,.4-5.9,12.294,12.294,0,0,1,1.193-4.772,5.456,5.456,0,0,1,2.354-2.37c.732-.35,1.193-.334,1.193-.27a6.044,6.044,0,0,0-2.943,2.943,12.8,12.8,0,0,0-.938,4.533c-.143,1.8-.255,3.77-.318,5.853-.111,4.151,0,7.953.159,10.625A26.139,26.139,0,0,1,255.955,140.122Z" transform="translate(16.01 21.042)" fill="#fff"/>
      <path id="Path_107" data-name="Path 107" d="M256.2,140.362c-.255,0-.493-1.288-.525-2.895s.159-2.911.414-2.927.493,1.3.525,2.911S256.419,140.362,256.2,140.362Z" transform="translate(16.596 34.545)" fill="#fff"/>
      <path id="Path_108" data-name="Path 108" d="M387.538,100.561a28.311,28.311,0,0,1,4.263,1.384,22.619,22.619,0,0,1,4.772,2.609,16.352,16.352,0,0,1,5.058,5.535,19.994,19.994,0,0,1,2.322,9.114v11.277c0,8.1.08,17.354,0,27.677A146.89,146.89,0,0,1,399.6,191.8a143.329,143.329,0,0,1-14.809,36.584A157.917,157.917,0,0,1,357.6,263.2c-11.134,10.641-24.877,20.058-40.926,25.052h-.286a167.275,167.275,0,0,1-16.431-8.112,151.952,151.952,0,0,1-15.7-10.45A142.091,142.091,0,0,1,256.9,242.062,144.061,144.061,0,0,1,227.968,165.2c-.509-6.6-.366-13.123-.382-19.533V117.485a34.447,34.447,0,0,1,.159-4.6,8.955,8.955,0,0,1,1.845-4.247,20.184,20.184,0,0,1,7.269-5.217c2.656-1.257,5.329-2.354,7.953-3.515h0L315.738,76.05h.175l52.617,17.99,14.045,4.772,3.611,1.257,1.225.461s-.429-.111-1.241-.382l-3.643-1.193-14.093-4.772-52.57-17.672h.175l-70.862,24.066h0c-2.609,1.161-5.3,2.259-7.953,3.515a19.533,19.533,0,0,0-7.015,5.026,8.16,8.16,0,0,0-1.686,3.913,34.331,34.331,0,0,0-.143,4.47v28.106c0,6.394-.111,12.916.4,19.469a143.314,143.314,0,0,0,28.79,76.429,141.421,141.421,0,0,0,27.215,27.47,149.282,149.282,0,0,0,15.6,10.387,165.642,165.642,0,0,0,16.415,8.16h-.27c15.906-4.931,29.506-14.315,40.64-24.845a157.63,157.63,0,0,0,27.12-34.612A144.172,144.172,0,0,0,399.1,191.751a146.718,146.718,0,0,0,4.438-33.5c0-10.307,0-19.58.1-27.677V119.315a19.548,19.548,0,0,0-2.211-9,16.449,16.449,0,0,0-4.915-5.5,24.148,24.148,0,0,0-4.772-2.64,32.8,32.8,0,0,0-3.181-1.145Z" fill="#f7941d"/>
    </g>
  </g>
</svg>
