<svg xmlns="http://www.w3.org/2000/svg" width="110.913" height="133.41" viewBox="0 0 110.913 133.41">
  <g id="freepik--Shield--inject-2" transform="translate(-227.569 -76.05)">
    <path id="Path_95" data-name="Path 95" d="M316.65,101.5,282.8,89.35l-33.51,12c-4.28,2-8,3.23-8,7.21V128.4a75,75,0,0,0,11,39.5,68.78,68.78,0,0,0,30.84,27.24c13.7-4.45,23.93-16.32,30.18-26.46a75,75,0,0,0,11.05-39.5V111.33C324.36,105.64,321.34,102.87,316.65,101.5Z" fill="#92278f"/>
    <g id="Group_22" data-name="Group 22" opacity="0.3">
      <path id="Path_96" data-name="Path 96" d="M283.13,183.62a54.71,54.71,0,0,1-24.4-21.72A59.43,59.43,0,0,1,250,130.64V116.72c0-3.15,1.9-6.11,5.68-7.87l27.13-10.14V89.35l-33.51,12c-3.52,1.53-8,3.23-8,7.21V128.4a75,75,0,0,0,11,39.5,68.78,68.78,0,0,0,30.84,27.24Z"/>
    </g>
    <g id="Group_23" data-name="Group 23" opacity="0.4">
      <path id="Path_97" data-name="Path 97" d="M283.13,195.14a41,41,0,0,0,6.65-2.85,59.579,59.579,0,0,0,14.07-11.07,75.459,75.459,0,0,0,9.79-13.15,72.22,72.22,0,0,0,10.72-39.88V111.8c0-8.16-4.21-8.76-7.73-10.3L282.8,89.35v9.36L310.26,109c3.78,1.77,5.68,4.72,5.68,7.88V130.8a59.34,59.34,0,0,1-8.74,31.25,53.32,53.32,0,0,1-24.07,21.56Z"/>
    </g>
    <path id="Path_98" data-name="Path 98" d="M291.78,129.75v-2.68a8.79,8.79,0,0,0-17.57,0v2.73a4.92,4.92,0,0,0-4.2,4.86v15.8a4.92,4.92,0,0,0,4.92,4.91h16.4a4.91,4.91,0,0,0,4.92-4.91v-15.8A4.92,4.92,0,0,0,291.78,129.75Zm-6.4,16.76h-4.29l.67-3.09a2.61,2.61,0,1,1,2.83,0Zm4.51-16.78H276.1v-2.66a6.9,6.9,0,0,1,13.79,0Z" fill="#fff" opacity="0.5"/>
    <path id="Path_99" data-name="Path 99" d="M255.48,129.56a10.751,10.751,0,0,1-.5-2.75,45.781,45.781,0,0,1-.28-6.74,34.941,34.941,0,0,1,.25-3.71,7.73,7.73,0,0,1,.75-3,3.43,3.43,0,0,1,1.48-1.49c.46-.22.75-.21.75-.17a3.8,3.8,0,0,0-1.85,1.85,8.05,8.05,0,0,0-.59,2.85c-.09,1.13-.16,2.37-.2,3.68-.07,2.61,0,5,.1,6.68A16.432,16.432,0,0,1,255.48,129.56Z" fill="#fff"/>
    <path id="Path_100" data-name="Path 100" d="M256,138.2c-.16,0-.31-.81-.33-1.82s.1-1.83.26-1.84.31.82.33,1.83S256.14,138.2,256,138.2Z" fill="#fff"/>
    <path id="Path_101" data-name="Path 101" d="M328.14,91.46a17.8,17.8,0,0,1,2.68.87,14.22,14.22,0,0,1,3,1.64A10.28,10.28,0,0,1,337,97.45a12.57,12.57,0,0,1,1.46,5.73v7.09c0,5.09.05,10.91,0,17.4a92.35,92.35,0,0,1-2.74,21.15,90.11,90.11,0,0,1-9.31,23,99.28,99.28,0,0,1-17.09,21.89c-7,6.69-15.64,12.61-25.73,15.75h-.18a105.164,105.164,0,0,1-10.33-5.1,95.525,95.525,0,0,1-9.87-6.57,89.331,89.331,0,0,1-17.2-17.37,90.57,90.57,0,0,1-18.19-48.32c-.32-4.15-.23-8.25-.24-12.28V102.1a21.655,21.655,0,0,1,.1-2.89,5.63,5.63,0,0,1,1.16-2.67,12.69,12.69,0,0,1,4.57-3.28c1.67-.79,3.35-1.48,5-2.21h0l44.59-15h.11l33.08,11.31,8.83,3,2.27.79.77.29s-.27-.07-.78-.24l-2.29-.75-8.86-3L283.08,76.34h.11L238.64,91.47h0c-1.64.73-3.33,1.42-5,2.21a12.28,12.28,0,0,0-4.41,3.16,5.13,5.13,0,0,0-1.06,2.46,21.582,21.582,0,0,0-.09,2.81v17.67c0,4.02-.07,8.12.25,12.24a90.1,90.1,0,0,0,18.1,48.05,88.909,88.909,0,0,0,17.11,17.27,93.855,93.855,0,0,0,9.81,6.53A104.139,104.139,0,0,0,283.67,209h-.17c10-3.1,18.55-9,25.55-15.62a99.1,99.1,0,0,0,17.05-21.76,90.64,90.64,0,0,0,9.31-22.83,92.241,92.241,0,0,0,2.79-21.06c0-6.48,0-12.31.06-17.4v-7.08a12.29,12.29,0,0,0-1.39-5.66,10.34,10.34,0,0,0-3.09-3.46,15.181,15.181,0,0,0-3-1.66,20.615,20.615,0,0,0-2-.72Z" fill="#92278f"/>
  </g>
</svg>
