<?xml version="1.0" encoding="utf-8"?>
<!-- Generator: Adobe Illustrator 25.0.1, SVG Export Plug-In . SVG Version: 6.00 Build 0)  -->
<svg version="1.1" id="Layer_1" xmlns="http://www.w3.org/2000/svg" xmlns:xlink="http://www.w3.org/1999/xlink" x="0px" y="0px"
	 viewBox="0 0 221.9 221.9" style="enable-background:new 0 0 221.9 221.9;" xml:space="preserve">
<style type="text/css">
	.st0{fill:#F7941D;}
	.st1{fill:#92278F;}
	.st2{fill:#BCBEC0;}
</style>
<g>
	<path class="st1" d="M25.5,122.3c0-3.3,1.8-5.1,3.8-5.1c1.4,0,2.8,0.9,3.7,2.7c-1,1.8-1.7,3.8-1.7,5.5c0,2.5,1.2,4.4,4.1,4.4
		c3,0,4.2-2,4.2-5.4c0-9-13.8-8.7-13.8-20.6c0-5.9,2.9-10,10-10c6.2,0,9.7,3.1,9.6,7.8c0,3.2-1.6,4.4-3.4,4.4c-1.6,0-3.3-1-4.1-2.6
		c0.8-1.8,1.3-3.7,1.3-5.3c0-2.1-1-3.7-3.7-3.7c-2.5,0-3.8,1.8-3.8,4.5c0,9,13.9,8.5,13.9,20.7c0,6-3.1,10.7-10.2,10.7
		C28.7,130.7,25.5,126.8,25.5,122.3z"/>
	<path class="st1" d="M64.9,125c-4.5,0-6.9-5.5-6.9-13.4v-0.1l14.4,0c0.4-6.4-1.8-16.9-10.2-16.9c-8.3,0-12.3,9-12.3,18.1
		c0,9,3.7,18.1,11.9,18.1c4.9,0,8.5-3.8,10.2-8.7c-0.1-0.1,0.1,0.1,0,0C70.5,124.6,67.5,125,64.9,125z M62,95.7
		c2.3,0,2.9,4.4,2.6,14.5l-6.6,0C58.2,99.1,59.7,95.7,62,95.7z"/>
	<path class="st1" d="M101,118.9c0-4,0.3-8.1,0.3-12.9c0-7-2.9-11-7.7-11c-3.8,0-6.1,2.8-7.3,6.9l0-4.4c0-3.2,0.4-14,0.8-17.4
		L73.5,81l0,1c5,0.2,4.5-0.6,4.5,15.6l0,16c0,16,0.2,15.7-4.2,15.9l0,0.9l15.4,0l0-0.9c-3-0.3-2.8,0.2-2.8-15.9l0-2.5
		c0-8.6,1.5-12.1,3.7-12.1c2.9,0,3,2.9,3,14.6c0,15.5,0.7,15.7-2.5,15.9l0,0.9l14.5,0l0-0.9C100.7,129.3,101,129.5,101,118.9z"/>
	<path class="st1" d="M125.3,94.9c-3,0-5,3-6.2,7.3l0-6.1l-12.8,0.8v1c4,0.1,4.5,0.3,4.5,8.1l0,13.7c0,9.8-0.3,9.9-4.2,10.2l0,0.9
		l17.6,0l0-0.9c-4.8-0.2-5-0.3-5-10.8l0-12.6c0.9-5.3,2.7-9.9,5.9-9.9c1.4,0,2,0.8,2.4,1.7c-0.4-0.2-1-0.3-1.4-0.3
		c-2.1,0-3.8,2.5-3.8,6.1c0,3.7,1.7,6.5,4.2,6.5c2.9,0,4.4-3.8,4.4-7.3C130.8,98.1,128.1,94.9,125.3,94.9z"/>
	<path class="st1" d="M154.2,124.2c-0.6,1.6-1.8,1.4-2.5,1.4c-3.2,0-1.6-11-1.6-19.9c0-6.8-2.4-11.4-8.8-11.4c-6,0-9.4,5.5-9,12.5
		c0.5-5.3,3.1-8.3,5.8-8.3c3.2,0,3.8,2.1,3.8,7.5l0,3.2c-2.7,2.9-5.8,2.3-8.7,4.3c-1.7,1.2-3.7,3-3.7,8.6c0,5.2,3.2,8.8,6.7,8.8
		c3.5,0,5.3-3.1,6.1-6.5c0.7,3.6,2.4,6.6,6.4,6.6C151.8,131.1,153.6,128.9,154.2,124.2C154.1,124.2,154.3,124.3,154.2,124.2z
		 M141.8,117.7c0,5.3,0.1,9-2.3,9c-1.4,0-2.4-1.8-2.4-5.7c0-7.2,2.5-8,4.7-10.3L141.8,117.7z"/>
	<g>
		<g>
			<path class="st0" d="M172.4,92.1c2.2-0.5,3.7-2.9,3.1-5.1c-0.1-0.3-0.2-0.6-0.3-1.1c1.1,0.6,1.9,1.2,2.8,1.7
				c2.5,1.3,5.1,2.2,8.1,1.8c2.6-0.4,4.7-2.4,5-4.8c0.2-1.9-1.4-4.1-3.6-5c0,0.3,0,0.5-0.1,0.7c-0.2,2.9-2,4.4-5.1,4.4
				c-0.7,0-1.4-0.1-2.1-0.2c-1.8-0.4-3.5-1-5.3-1.3c-4-0.8-7,1-7.6,4.5C167,90.1,169.7,92.6,172.4,92.1z"/>
			<path class="st1" d="M188,124.8c-0.4-3.5-2-5.3-5.2-6c-1.3-0.3-2.6-0.4-3.9-0.4c-5.1-0.1-10.1,0-15.2-0.1c-0.9,0-1.9-0.1-2.8-0.3
				c-1.4-0.3-1.9-2.1-0.8-3.1c0.4-0.4,1.1-0.8,1.7-0.9c1.5-0.2,3.1-0.2,4.7-0.3c2.8,0,5.7,0.2,8.5,0c2.5-0.1,4.9-1,6.9-2.5
				c3.8-2.8,4.6-8.3,1.7-11.9c-1.3-1.7-3-3-5-3.8c-3.4-1.5-6.8-1.7-10.4-1.1c-3,0.5-5.5,1.8-7.7,4.1c-3.3,3.5-3.3,10.3,1.9,12.8
				c0.2,0.1,0.3,0.2,0.6,0.4c-1,0.4-1.9,0.7-2.8,1.1c-5.2,2.6-4.9,9.5-2.3,12.1c0.6,0.7,1.4,1.2,2.1,1.7c0.5,0.4,0.5,0.6,0,0.9
				c-0.4,0.3-0.8,0.5-1.2,0.8c-4,2.6-3.3,8-0.3,10.2c0.9,0.6,1.9,1.2,2.8,1.6c2.3,1,4.7,1.2,7.2,1.3c3.4,0.2,6.9,0,10.2-1.2
				c4.4-1.6,7.6-4.5,8.9-9.5C188.1,128.9,188.2,126.9,188,124.8z M165.2,101.7c0.1-0.4,0.3-0.9,0.5-1.3c1.1-2.1,3.6-3.6,6.4-3.7
				c0.6,0,1.2,0.1,1.7,0.2c0.5,0.1,1,0.3,1.5,0.5c6.3,3.2,2.8,10-3.1,10.1c-0.6,0-1.2,0-1.7,0C167.2,107.2,164.5,105.1,165.2,101.7z
				 M185.1,131.2c-0.2,2.4-1.3,4.2-3,5.6c-2,1.6-4.4,2.5-6.9,2.8c-2.7,0.4-5.5,0.5-8.2-0.3c-0.9-0.2-1.7-0.6-2.5-1
				c-3.4-2-4.4-6.8-2.1-10.2c0.2-0.2,0.6-0.4,0.9-0.4c3,0,6,0,9,0c0,0,0,0,0,0c2.8,0,5.6,0,8.4,0c0.8,0,1.5,0.1,2.3,0.3
				C184.5,128.4,185.2,129.4,185.1,131.2z"/>
		</g>
		<g>
			<path class="st2" d="M193,94.4c1.6,0,2.8,1.3,2.8,2.8c0,1.6-1.3,2.8-2.8,2.8c-1.6,0-2.8-1.3-2.8-2.8
				C190.2,95.7,191.5,94.4,193,94.4z M195.3,97.2c0-1.2-1-2.2-2.2-2.2c-1.2,0-2.2,1-2.2,2.2c0,1.2,1,2.2,2.2,2.3
				C194.3,99.5,195.3,98.5,195.3,97.2z"/>
			<path class="st2" d="M193.5,97.2c0,0,0.1,0,0.1,0.1c0.1,0.1,0.2,0.2,0.3,0.3c0.1,0.1,0.1,0.2,0.2,0.3c0.1,0.2,0.2,0.5,0.3,0.7
				c0,0,0,0,0,0c0,0,0,0,0,0c-0.2,0-0.5,0-0.7,0c0,0,0,0-0.1,0c-0.1-0.2-0.2-0.5-0.4-0.7c0,0-0.1-0.1-0.1-0.1
				c-0.1-0.1-0.2-0.2-0.4-0.2c-0.1,0-0.2,0-0.3,0c0,0.4,0,0.7,0,1.1c-0.3,0-0.5,0-0.8,0c0-1,0-2,0-2.9c0,0,0,0,0,0
				c0.4,0,0.8,0,1.3,0c0.2,0,0.4,0,0.6,0.1c0.2,0.1,0.3,0.2,0.4,0.3c0.1,0.1,0.1,0.3,0.1,0.4c0,0.1,0,0.2-0.1,0.3
				C193.9,97,193.8,97.1,193.5,97.2C193.6,97.2,193.5,97.2,193.5,97.2z M192.5,97C192.6,97,192.6,97,192.5,97c0.1,0,0.2,0,0.3,0
				c0.1,0,0.1,0,0.2,0c0.1,0,0.2-0.1,0.3-0.2c0-0.1,0-0.2,0-0.3c0-0.1-0.1-0.2-0.2-0.2c0,0-0.1,0-0.1,0c-0.2,0-0.3,0-0.5,0
				c0,0,0,0,0,0C192.5,96.5,192.5,96.7,192.5,97z"/>
		</g>
	</g>
</g>
</svg>
