<svg id="seller-orange" xmlns="http://www.w3.org/2000/svg" width="111.884" height="127.95" viewBox="0 0 111.884 127.95">
  <g id="freepik--Character--inject-2" transform="translate(0 8.714)">
    <path id="Path_474" data-name="Path 474" d="M150.246,434.068l-.359,11.239-14.007-.236c.1-1.336,7.978-3.844,7.978-3.844l.057-7.557Z" transform="translate(-126.817 -333.297)" fill="#f7941d"/>
    <g id="Group_44" data-name="Group 44" transform="translate(9.063 100.373)" opacity="0.3">
      <path id="Path_475" data-name="Path 475" d="M150.246,434.068l-.359,11.239-14.007-.236c.1-1.336,7.978-3.844,7.978-3.844l.057-7.557Z" transform="translate(-135.88 -433.67)"/>
    </g>
    <path id="Path_476" data-name="Path 476" d="M144.024,456.963a.568.568,0,0,1,.383.658.553.553,0,0,1-.652.389.6.6,0,0,1-.4-.7.568.568,0,0,1,.72-.326" transform="translate(-123.22 -349.616)" fill="#263238"/>
    <path id="Path_477" data-name="Path 477" d="M150.972,469.906l.036-1.136-13.478.2s-.628.263-.565.7Z" transform="translate(-127.902 -357.905)" fill="#263238"/>
    <path id="Path_478" data-name="Path 478" d="M153.767,459.2c0,.069.344.108.676.332s.505.517.571.49-.033-.421-.439-.687S153.767,459.133,153.767,459.2Z" transform="translate(-136.951 -351.152)" fill="#263238"/>
    <path id="Path_479" data-name="Path 479" d="M161.089,461.3c-.015.066.278.188.505.481s.3.6.359.6.117-.389-.173-.747S161.092,461.232,161.089,461.3Z" transform="translate(-146.108 -352.648)" fill="#263238"/>
    <path id="Path_480" data-name="Path 480" d="M167.149,464.211c.063.018.164-.323,0-.7s-.484-.532-.514-.475.164.26.3.574S167.083,464.211,167.149,464.211Z" transform="translate(-153.002 -353.875)" fill="#263238"/>
    <path id="Path_481" data-name="Path 481" d="M152.622,452.494c.03.063.344-.024.729,0s.688.161.723.1-.248-.3-.705-.341S152.592,452.44,152.622,452.494Z" transform="translate(-135.653 -346.325)" fill="#263238"/>
    <path id="Path_482" data-name="Path 482" d="M151.046,444.825a1.309,1.309,0,0,0,.7,0,3.131,3.131,0,0,0,.738-.212,3.718,3.718,0,0,0,.407-.206,1.031,1.031,0,0,0,.215-.161.3.3,0,0,0,.036-.365.371.371,0,0,0-.3-.161.853.853,0,0,0-.263.033,2.363,2.363,0,0,0-.439.14,2.47,2.47,0,0,0-.655.416c-.332.3-.445.547-.421.562s.191-.188.526-.43a2.6,2.6,0,0,1,1.037-.46c.149-.036.275-.036.3.03s.015.036,0,.081a.725.725,0,0,1-.158.117,4.262,4.262,0,0,1-.374.206,4.026,4.026,0,0,1-.685.248A5.07,5.07,0,0,0,151.046,444.825Z" transform="translate(-134.296 -340.342)" fill="#263238"/>
    <path id="Path_483" data-name="Path 483" d="M149.669,109.292a5.213,5.213,0,0,1,5.01-4.992h.272c2.914.06,4.484,2.571,4.355,5.482l.2,12.468c-2.439,1.593-4.783,2.78-6.708,2.027l-.3-5.186a3.36,3.36,0,0,1-2.956-3.124C149.475,114.592,149.561,111.8,149.669,109.292Z" transform="translate(-140.158 -102.38)" fill="#ffbe9d"/>
    <path id="Path_484" data-name="Path 484" d="M160.94,150.935a6.519,6.519,0,0,0,3.6-1.175,3.4,3.4,0,0,1-3.56,1.922Z" transform="translate(-148.607 -134.252)" fill="#eb996e"/>
    <path id="Path_485" data-name="Path 485" d="M177,127.063a.4.4,0,0,0,.4.389.383.383,0,0,0,.4-.365.4.4,0,0,0-.4-.389.38.38,0,0,0-.4.365Z" transform="translate(-166.667 -118.083)" fill="#263238"/>
    <path id="Path_486" data-name="Path 486" d="M174.954,124.385c.054.051.347-.185.777-.2s.753.188.8.135-.033-.117-.173-.212a1.088,1.088,0,0,0-.643-.17,1.061,1.061,0,0,0-.613.224C174.972,124.268,174.93,124.364,174.954,124.385Z" transform="translate(-164.791 -116.146)" fill="#263238"/>
    <path id="Path_487" data-name="Path 487" d="M163.6,127.061a.4.4,0,0,0,.4.389.38.38,0,0,0,.4-.362.4.4,0,0,0-.4-.389A.386.386,0,0,0,163.6,127.061Z" transform="translate(-149.255 -118.084)" fill="#263238"/>
    <path id="Path_488" data-name="Path 488" d="M160.815,124.115c.051.051.344-.185.774-.2s.753.188.8.135-.033-.117-.173-.212a1.085,1.085,0,0,0-.64-.17,1.043,1.043,0,0,0-.616.224C160.83,124,160.788,124.094,160.815,124.115Z" transform="translate(-146.423 -115.957)" fill="#263238"/>
    <path id="Path_490" data-name="Path 490" d="M1.965.327c-.045.117-.472.06-.977.12S.072.641.007.536C-.023.486.048.378.213.264A1.629,1.629,0,0,1,.939.01,1.68,1.68,0,0,1,1.7.1C1.89.178,1.982.27,1.965.327Z" transform="matrix(0.995, 0.105, -0.105, 0.995, 14.125, 5.926)" fill="#263238"/>
    <path id="Path_491" data-name="Path 491" d="M173.984,119.317c.1.093.457-.021.9-.042s.813.033.9-.072c.036-.051-.027-.146-.194-.233a1.456,1.456,0,0,0-.732-.132,1.4,1.4,0,0,0-.708.224C173.984,119.183,173.939,119.272,173.984,119.317Z" transform="translate(-163.743 -112.57)" fill="#263238"/>
    <path id="Path_492" data-name="Path 492" d="M144.317,129.243c.045-.024,1.9-.643,1.91,1.273a1.435,1.435,0,0,1-1.916,1.474C144.305,131.933,144.317,129.243,144.317,129.243Z" transform="translate(-125.319 -119.787)" fill="#ffbe9d"/>
    <path id="Path_493" data-name="Path 493" d="M145.926,132.7s.036.021.093.048a.332.332,0,0,0,.248,0,.825.825,0,0,0,.377-.741,1.112,1.112,0,0,0-.1-.478.383.383,0,0,0-.254-.254.164.164,0,0,0-.194.093c-.027.054-.015.093-.024.1s-.042-.033-.027-.111a.227.227,0,0,1,.075-.123.257.257,0,0,1,.185-.048.469.469,0,0,1,.35.3,1.148,1.148,0,0,1,.12.535.867.867,0,0,1-.481.828.356.356,0,0,1-.3-.048C145.932,132.748,145.92,132.706,145.926,132.7Z" transform="translate(-126.354 -121.227)" fill="#eb996e"/>
    <path id="Path_494" data-name="Path 494" d="M160.957,130.859a.051.051,0,0,0,.054-.045.048.048,0,0,0-.039-.057.045.045,0,0,0-.054.042.048.048,0,0,0,.039.06Z" transform="translate(-145.067 -120.929)" fill="#eb996e"/>
    <path id="Path_495" data-name="Path 495" d="M163.728,130.306a.055.055,0,0,0,.054-.051c0-.033,0-.063-.036-.066a.06.06,0,0,0-.018.117Z" transform="translate(-148.666 -120.531)" fill="#eb996e"/>
    <path id="Path_496" data-name="Path 496" d="M165.576,130.245c.027,0,.051-.03.057-.075s-.015-.078-.042-.081-.051.03-.054.072S165.552,130.242,165.576,130.245Z" transform="translate(-151.07 -120.461)" fill="#eb996e"/>
    <path id="Path_497" data-name="Path 497" d="M162.278,132.733c.027,0,.048-.018.048-.033s-.024-.03-.051-.03-.045.015-.045.033S162.251,132.733,162.278,132.733Z" transform="translate(-146.773 -122.27)" fill="#eb996e"/>
    <path id="Path_498" data-name="Path 498" d="M164.8,132.138a.054.054,0,0,0,.051-.051.048.048,0,1,0-.1-.006A.054.054,0,0,0,164.8,132.138Z" transform="translate(-150.059 -121.821)" fill="#eb996e"/>
    <path id="Path_499" data-name="Path 499" d="M177.943,131.075a.053.053,0,0,0,.018-.1.054.054,0,0,0-.018.1Z" transform="translate(-167.134 -121.078)" fill="#eb996e"/>
    <path id="Path_500" data-name="Path 500" d="M179.87,130.94a.051.051,0,0,0,.051-.057.057.057,0,0,0-.042-.063.054.054,0,0,0-.051.057C179.831,130.91,179.849,130.94,179.87,130.94Z" transform="translate(-169.63 -120.973)" fill="#eb996e"/>
    <path id="Path_501" data-name="Path 501" d="M176.31,131.111a.045.045,0,0,0,.051-.036.042.042,0,0,0-.039-.048.045.045,0,0,0-.054.033.048.048,0,0,0,.042.051Z" transform="translate(-165.006 -121.117)" fill="#eb996e"/>
    <path id="Path_502" data-name="Path 502" d="M177.557,132.987a.051.051,0,0,0,.063-.033.048.048,0,0,0-.024-.069.055.055,0,0,0-.039.1Z" transform="translate(-166.647 -122.419)" fill="#eb996e"/>
    <path id="Path_503" data-name="Path 503" d="M179.337,132.82a.04.04,0,1,0-.057-.024.042.042,0,0,0,.057.024Z" transform="translate(-168.909 -122.322)" fill="#eb996e"/>
    <path id="Path_505" data-name="Path 505" d="M146.178,101a1.154,1.154,0,0,0,.329-.158.72.72,0,0,0,.152-.559.6.6,0,0,1,.206-.532c.236-.132.544.093.8,0s.278-.445.41-.685a.738.738,0,0,1,.912-.3c.221.1.46.314.67.188s.155-.383.236-.58a.52.52,0,0,1,.72-.239c.185.111.359.353.556.263s.158-.362.314-.478a.344.344,0,0,1,.424.066,2.312,2.312,0,0,1,.278.377.478.478,0,0,0,.386.227c.17,0,.3-.167.421-.278a1.374,1.374,0,0,1,1.626.036,2.8,2.8,0,0,1,.744.822,3.243,3.243,0,0,1,1.56.039,2.735,2.735,0,0,1,1.982,2.642,16.334,16.334,0,0,1-.356,1.629,12.519,12.519,0,0,0-.033,1.982,2.508,2.508,0,0,1-.475,1.767l-.571.146a1.407,1.407,0,0,1-.135.194.6.6,0,0,1-.753.2.753.753,0,0,1-.239-.433,9.276,9.276,0,0,1-.538-3.707,1.638,1.638,0,0,0-.8-1.671,2.574,2.574,0,0,0-.574-.251,1.608,1.608,0,0,0-.6,0,1.644,1.644,0,0,0-1.04.679c-.17.245-.3.565-.6.64s-.613-.167-.933-.167a1.383,1.383,0,0,0-.843.5.982.982,0,0,1-.9.362c-.329-.1-.454-.407-.738-.5a.9.9,0,0,0-.625.081,2.765,2.765,0,0,1-.6.236.55.55,0,0,1-.574-.194c-.129-.206-.048-.505-.2-.7s-.383-.176-.6-.26a.747.747,0,0,1-.018-1.366Z" transform="translate(-138.419 -97.877)" fill="#263238"/>
    <path id="Path_506" data-name="Path 506" d="M149.642,116.443c0-.024-.194,0-.5-.042a2.72,2.72,0,0,1-1.961-1.166,4.483,4.483,0,0,0-.275-.415,1.013,1.013,0,0,0,.182.475,2.46,2.46,0,0,0,2.048,1.217A1.022,1.022,0,0,0,149.642,116.443Z" transform="translate(-129.511 -109.756)" fill="#455a64"/>
    <path id="Path_507" data-name="Path 507" d="M149.283,120.154a4.34,4.34,0,0,1-1.495-.224,4.43,4.43,0,0,1-1.246-.84,1.034,1.034,0,0,0,.266.374,2.648,2.648,0,0,0,.924.6,2.622,2.622,0,0,0,1.115.2.962.962,0,0,0,.436-.1Z" transform="translate(-129.041 -112.749)" fill="#455a64"/>
    <path id="Path_508" data-name="Path 508" d="M138.476,250.12l3.476,10.955-2.215,49.608-6.776-.822-.888-23.6-3.656-26.394-.368-9.341Z" transform="translate(-116.183 -204.612)" fill="#263238"/>
    <path id="Path_509" data-name="Path 509" d="M130.161,412.94l6.639,9.081-11.182,8.435c-.741-1.118,3.919-7.942,3.919-7.942l-4.606-5.978Z" transform="translate(-110.098 -318.763)" fill="#f7941d"/>
    <path id="Path_510" data-name="Path 510" d="M138.358,435.588a.571.571,0,0,1,.708.284.55.55,0,0,1-.272.705.6.6,0,0,1-.75-.3.574.574,0,0,1,.368-.7" transform="translate(-116.319 -334.617)" fill="#263238"/>
    <path id="Path_511" data-name="Path 511" d="M136.248,441.168l-.673-.918-10.5,8.453s-.332.6,0,.9Z" transform="translate(-109.546 -337.91)" fill="#263238"/>
    <path id="Path_512" data-name="Path 512" d="M144.558,444.811c.042.054.335-.129.735-.155s.717.1.75.036-.284-.3-.771-.275S144.507,444.769,144.558,444.811Z" transform="translate(-125.21 -340.83)" fill="#263238"/>
    <path id="Path_513" data-name="Path 513" d="M148.637,450.69c.027.06.332-.024.693.066s.6.3.649.254-.146-.38-.6-.484S148.6,450.649,148.637,450.69Z" transform="translate(-130.371 -345.095)" fill="#263238"/>
    <path id="Path_514" data-name="Path 514" d="M152.989,455.7c.06-.027-.069-.356-.436-.55s-.711-.12-.7-.057.3.1.6.266S152.932,455.733,152.989,455.7Z" transform="translate(-134.349 -348.266)" fill="#263238"/>
    <path id="Path_515" data-name="Path 515" d="M149.017,438.511c.06.033.254-.23.577-.442s.619-.3.619-.365-.386-.09-.765.167S148.952,438.49,149.017,438.511Z" transform="translate(-130.706 -336.096)" fill="#263238"/>
    <path id="Path_516" data-name="Path 516" d="M152.835,431.732a1.4,1.4,0,0,0,.556-.424,3.1,3.1,0,0,0,.451-.625,3.134,3.134,0,0,0,.194-.415.993.993,0,0,0,.069-.257.3.3,0,0,0-.194-.3.38.38,0,0,0-.335.057.9.9,0,0,0-.185.185,2.706,2.706,0,0,0-.26.383,2.477,2.477,0,0,0-.26.729,1.2,1.2,0,0,0,0,.7c.039,0,.036-.266.152-.664a2.691,2.691,0,0,1,.3-.658,2.806,2.806,0,0,1,.245-.344c.1-.12.2-.2.266-.167s.033.021.036.075a.739.739,0,0,1-.054.188,3.146,3.146,0,0,1-.167.392,3.83,3.83,0,0,1-.386.619C153.011,431.529,152.811,431.705,152.835,431.732Z" transform="translate(-135.74 -330.51)" fill="#263238"/>
    <path id="Path_517" data-name="Path 517" d="M152.557,251.49l-3.934.155s-8.752,31.3-7.87,34.043,17.08,20.954,17.08,20.954l4.848-5.082s-5.189-8.827-7.518-11.335c-1.668-1.793-5.978-5.24-5.978-5.24l5.539-11.167Z" transform="translate(-140.69 -205.573)" fill="#263238"/>
    <path id="Path_518" data-name="Path 518" d="M165.512,292.2a3.665,3.665,0,0,0,.167.493c.117.3.284.768.481,1.33a46.633,46.633,0,0,1,1.321,4.484c.424,1.779.7,3.4.855,4.591.081.6.14,1.073.176,1.4a3.715,3.715,0,0,0,.075.514,2.987,2.987,0,0,0,0-.52c-.018-.335-.06-.816-.126-1.414a38.992,38.992,0,0,0-.813-4.612,39.417,39.417,0,0,0-1.369-4.484c-.212-.562-.395-1.01-.529-1.318A3.137,3.137,0,0,0,165.512,292.2Z" transform="translate(-154.028 -234.114)" fill="#455a64"/>
    <path id="Path_519" data-name="Path 519" d="M151.617,385.094l.1-.087.263-.263,1-1.019,3.542-3.68.033-.033-.027-.045c-1.258-2.11-2.759-4.66-4.514-7.311a35.51,35.51,0,0,0-4.693-5.841,26.83,26.83,0,0,0-2.32-2.012c-.374-.275-.723-.538-1.058-.774l-.945-.64h-.018l-1.883.422-.5.117a.756.756,0,0,0-.17.048,1.242,1.242,0,0,0,.173-.027l.505-.093,1.892-.38h-.033l.933.652c.332.236.679.505,1.049.78a27.946,27.946,0,0,1,2.293,2.021,36.063,36.063,0,0,1,4.657,5.829c1.755,2.645,3.261,5.189,4.535,7.294v-.081l-3.5,3.719-.968,1.04-.251.278A.544.544,0,0,0,151.617,385.094Z" transform="translate(-134.475 -284.024)" fill="#455a64"/>
    <path id="Path_529" data-name="Path 529" d="M177.14,142.7a3.36,3.36,0,0,0,1.683,2.825,7.2,7.2,0,0,1-1.076-1.27A7.35,7.35,0,0,1,177.14,142.7Z" transform="translate(-167.728 -129.302)" fill="#eb996e"/>
    <path id="Path_530" data-name="Path 530" d="M202.379,173.84a3.329,3.329,0,0,0-1.53,1.952c-.344,1.01-2.287,4.543-2.287,4.543s-.468.883-1.1,2.134-1.435,2.87-1.435,2.87a4.354,4.354,0,0,0,1.006,4.175c.905.858,2.591,1.214,3.817,1.843,1.011.52,1.567,1.346,2.261.7.882-.824-.212-3.363-.73-5.231a17.793,17.793,0,0,1,0-5.43Z" transform="translate(-193.188 -151.142)" fill="#f7941d"/>
    <path id="Path_533" data-name="Path 533" d="M136.124,156.783s6.48,3.133,7.174,5.052-.46,6.851-.46,6.851L140.279,182l-.532,4.974,1.384,2.009-.6,2.063c-6.986.93-13.517,1.124-19.086-.254l.386-4.585,2.571-10.626.335-8.929.155-5.4,3.482-2.855s.568,1.554,2.006,1.229,4.81-3.742,4.81-3.742Z" transform="translate(-115.778 -138.542)" fill="#f7941d"/>
    <path id="Path_534" data-name="Path 534" d="M140.025,178.961c-.2.2-4.286,11.06-7.174,12.4a7.436,7.436,0,0,1-5.844.529c-1.255-.344-6.746-4.221-6.746-4.221s.386-2.607,1.982-2.69a12.469,12.469,0,0,1,3.01.239l1.937-1.282s1.124-2.2,1.773-2.29l3.763-8.37s3.5-6.83,6.98-3.677C143.092,172.663,140.025,178.961,140.025,178.961Z" transform="translate(-113.201 -147.577)" fill="#f7941d"/>
    <path id="Path_535" data-name="Path 535" d="M147.27,161.7a1.381,1.381,0,0,0,.209.332,3.458,3.458,0,0,0,.744.744,2.349,2.349,0,0,0,.673.329,2.567,2.567,0,0,0,.855.087,5.874,5.874,0,0,0,1.877-.493,6.576,6.576,0,0,0,1.677-1,9.914,9.914,0,0,0,1.124-1.112c.3-.338.517-.625.667-.825a1.686,1.686,0,0,0,.221-.323,2.012,2.012,0,0,0-.266.3c-.167.188-.4.463-.705.789a11.132,11.132,0,0,1-1.13,1.076,6.724,6.724,0,0,1-1.635.962,6,6,0,0,1-1.823.493,2.26,2.26,0,0,1-1.456-.362,3.74,3.74,0,0,1-.768-.705A2.893,2.893,0,0,0,147.27,161.7Z" transform="translate(-135.293 -141.038)" fill="#263238"/>
    <path id="Path_536" data-name="Path 536" d="M183.145,183.91c-.042,0-.2,2.586-.359,5.778s-.248,5.781-.2,5.784.2-2.586.359-5.778S183.19,183.913,183.145,183.91Z" transform="translate(-173.685 -158.194)" fill="#263238"/>
    <path id="Path_537" data-name="Path 537" d="M143.127,171.168l-.072-.033-.221-.09a3.673,3.673,0,0,0-.9-.212,3.384,3.384,0,0,0-1.495.173,4.723,4.723,0,0,0-1.692,1.085,8.58,8.58,0,0,0-1.495,1.988c-.224.395-.4.834-.6,1.273s-.407.9-.619,1.372l-2.849,6.31.054-.039a1.255,1.255,0,0,0-.6.433,6.193,6.193,0,0,0-.448.6,13.976,13.976,0,0,0-.771,1.3l.015-.018-.759.759.048-.021-3.689.248-.475.03a1.761,1.761,0,0,0-.493.111,1.856,1.856,0,0,0-.78.616,4.66,4.66,0,0,0-.768,1.835,1.391,1.391,0,0,1-.036.194v.048l.039.027c1.614,1.13,3.2,2.215,4.783,3.192.4.239.792.481,1.2.693.1.057.2.1.3.155a2.981,2.981,0,0,0,.317.138,5.546,5.546,0,0,0,.655.188,6.976,6.976,0,0,0,2.621.182,8.991,8.991,0,0,0,2.409-.682,4.593,4.593,0,0,0,.55-.26,1.753,1.753,0,0,0,.254-.164,2.392,2.392,0,0,0,.233-.188,6.664,6.664,0,0,0,.8-.843,23.113,23.113,0,0,0,2.242-3.587c1.2-2.287,2.009-4.209,2.574-5.533.272-.661.487-1.175.634-1.53s.227-.532.227-.532a2.99,2.99,0,0,0-.254.52l-.664,1.518c-.58,1.315-1.411,3.231-2.613,5.506a23.82,23.82,0,0,1-2.254,3.56,4.184,4.184,0,0,1-1.793,1.411,8.89,8.89,0,0,1-2.373.667,6.827,6.827,0,0,1-2.568-.185,5.08,5.08,0,0,1-.64-.185,2.67,2.67,0,0,1-.3-.135,3.172,3.172,0,0,1-.3-.152c-.4-.209-.792-.448-1.2-.691-1.575-.974-3.166-2.06-4.783-3.186l.033.075.036-.188a4.484,4.484,0,0,1,.738-1.77,1.728,1.728,0,0,1,.714-.568,3.159,3.159,0,0,1,.921-.132l3.689-.26h.027l.021-.021.756-.759h0a14.592,14.592,0,0,1,.759-1.288,6.145,6.145,0,0,1,.436-.574,1.166,1.166,0,0,1,.52-.389h.042v-.03l2.828-6.322.613-1.375c.2-.445.377-.876.6-1.267a8.483,8.483,0,0,1,1.462-1.976,4.663,4.663,0,0,1,1.653-1.085,3.4,3.4,0,0,1,1.456-.191,3.886,3.886,0,0,1,.9.188l.224.081Z" transform="translate(-117.493 -149.012)" fill="#263238"/>
    <path id="Path_538" data-name="Path 538" d="M163.24,221.871a5.632,5.632,0,0,0,1.808-.021l1.273-.1a2.233,2.233,0,0,0,.526-.069,7.51,7.51,0,0,0-1.811.024c-.5.039-.951.087-1.276.123Z" transform="translate(-151.598 -184.646)" fill="#263238"/>
    <path id="Path_539" data-name="Path 539" d="M154.782,211.871a6.788,6.788,0,0,0-1.435-.176,6.909,6.909,0,0,0-1.447-.021,6.8,6.8,0,0,0,1.438.176A6.875,6.875,0,0,0,154.782,211.871Z" transform="translate(-136.142 -177.639)" fill="#263238"/>
    <g id="Group_46" data-name="Group 46" transform="translate(12.076 40.245)" opacity="0.3">
      <path id="Path_540" data-name="Path 540" d="M141.7,235.681a6.37,6.37,0,0,1,4.233-3.07,7.144,7.144,0,0,1,5.38,1.369,6.134,6.134,0,0,1-4.4,2.864A7.237,7.237,0,0,1,141.7,235.681Z" transform="translate(-141.7 -232.513)"/>
    </g>
    <g id="Group_47" data-name="Group 47" transform="translate(12.33 18.803)" opacity="0.3">
      <path id="Path_541" data-name="Path 541" d="M155.84,160.78a7.68,7.68,0,0,1-2.242,3.24,4.139,4.139,0,0,1-3.736.819,1.8,1.8,0,0,1-1.342-1.39,5.9,5.9,0,0,0,7.126-2.391" transform="translate(-148.52 -160.78)"/>
    </g>
    <g id="Group_48" data-name="Group 48" transform="translate(8.658 26.432)" opacity="0.3">
      <path id="Path_542" data-name="Path 542" d="M182.937,194.175a23.542,23.542,0,0,1,.027-7.512c.03-.173.135-.4.3-.356s.164.209.17.347a60.988,60.988,0,0,1-.365,7.6" transform="translate(-182.648 -186.303)"/>
    </g>
    <path id="Path_543" data-name="Path 543" d="M133.42,265.984a.542.542,0,0,0,.146.051l.418.117c.182.048.407.1.67.158s.562.129.9.182a22.83,22.83,0,0,0,2.355.3,26.941,26.941,0,0,0,2.911.069,27.4,27.4,0,0,0,2.9-.269,23.451,23.451,0,0,0,2.332-.469c.329-.075.622-.167.9-.242s.478-.143.658-.206l.41-.143a.994.994,0,0,0,.141-.06.541.541,0,0,0-.149.03l-.418.117c-.182.054-.4.117-.664.179s-.553.149-.9.218c-.655.155-1.444.3-2.326.436a25.139,25.139,0,0,1-2.885.254,28.351,28.351,0,0,1-2.893-.057,23.431,23.431,0,0,1-2.349-.272c-.335-.045-.634-.108-.9-.155s-.49-.093-.673-.134l-.427-.087A.574.574,0,0,0,133.42,265.984Z" transform="translate(-123.99 -215.374)" fill="#263238"/>
    <g id="Group_49" data-name="Group 49" transform="translate(10.376 49.725)" opacity="0.3">
      <path id="Path_544" data-name="Path 544" d="M150.318,264.846a1.545,1.545,0,0,0-1.232-.616,5.281,5.281,0,0,0-1.411.194,21.381,21.381,0,0,1-9.774-.135,1.046,1.046,0,0,0,.547.977,3.287,3.287,0,0,0,1.139.314,25.9,25.9,0,0,0,10.761-.6" transform="translate(-137.9 -264.23)"/>
    </g>
    <path id="Path_520" data-name="Path 520" d="M185.714,218.113c-.012.083-1.156-.436-1.28-1.007a15.78,15.78,0,0,1-.09-2.222l2.914-2.244-.015,3.09A3.006,3.006,0,0,0,185.714,218.113Z" transform="translate(-178.67 -178.252)" fill="#ffbe9d"/>
  </g>
  <g id="freepik--Device--inject-2" transform="translate(22.727 0)">
    <rect id="Rectangle_66" data-name="Rectangle 66" width="89.157" height="127.95" rx="11.55" transform="translate(0 0)" fill="#263238"/>
    <rect id="Rectangle_67" data-name="Rectangle 67" width="83.535" height="106.853" transform="translate(2.771 9.129)" fill="#fff"/>
    <path id="Path_423" data-name="Path 423" d="M370.4,443.623a3.42,3.42,0,1,1-3.42-3.423A3.42,3.42,0,0,1,370.4,443.623Z" transform="translate(-322.4 -322.102)" fill="#455a64"/>
    <rect id="Rectangle_68" data-name="Rectangle 68" width="26.854" height="1.414" rx="0.707" transform="translate(31.153 3.686)" fill="#455a64"/>
    <rect id="Rectangle_69" data-name="Rectangle 69" width="21.501" height="21.501" rx="4.6" transform="translate(9.081 26.304)" fill="#f7941d"/>
    <rect id="Rectangle_70" data-name="Rectangle 70" width="8.788" height="4.687" rx="2.343" transform="translate(15.418 33.631)" fill="#fafafa"/>
    <rect id="Rectangle_71" data-name="Rectangle 71" width="12.656" height="4.496" rx="1.04" transform="translate(13.502 35.663)" fill="#fafafa"/>
    <path id="Path_424" data-name="Path 424" d="M286.005,164.42a9.59,9.59,0,0,1,.093,1.563v.09h-.093c-1.076.027-2.645.045-4.394.045s-3.318-.018-4.394-.045h-.093v-.09a9.59,9.59,0,0,1,.093-1.563,9.184,9.184,0,0,1,.093,1.563l-.093-.093c1.076-.027,2.645-.045,4.394-.045s3.318.018,4.394.045l-.093.093A9.184,9.184,0,0,1,286.005,164.42Z" transform="translate(-261.799 -128.757)" fill="#263238"/>
    <path id="Path_425" data-name="Path 425" d="M276.977,169.129a17.267,17.267,0,0,1,0-4.349,8.686,8.686,0,0,1,.135,2.173A8.893,8.893,0,0,1,276.977,169.129Z" transform="translate(-261.601 -129.009)" fill="#263238"/>
    <path id="Path_426" data-name="Path 426" d="M306.547,169.645a15.991,15.991,0,0,1,0-4.185,8.081,8.081,0,0,1,.135,2.092A8.239,8.239,0,0,1,306.547,169.645Z" transform="translate(-282.332 -129.486)" fill="#263238"/>
    <rect id="Rectangle_72" data-name="Rectangle 72" width="21.501" height="21.501" rx="4.6" transform="translate(33.404 26.304)" fill="#e0e0e0"/>
    <rect id="Rectangle_73" data-name="Rectangle 73" width="8.788" height="4.687" rx="2.343" transform="translate(39.744 33.631)" fill="#92278f"/>
    <path id="Path_547" data-name="Path 547" d="M.311,0H12.345a.311.311,0,0,1,.311.311V4.185a.311.311,0,0,1-.311.311H.311A.311.311,0,0,1,0,4.185V.311A.311.311,0,0,1,.311,0Z" transform="translate(37.828 35.663)" fill="#92278f"/>
    <path id="Path_427" data-name="Path 427" d="M367.369,164.42a9.86,9.86,0,0,1,.09,1.563v.09h-.093c-1.076.027-2.648.045-4.394.045s-3.321-.018-4.394-.045h-.1v-.09a9.178,9.178,0,0,1,.093-1.563,9.184,9.184,0,0,1,.093,1.563l-.093-.093c1.073-.027,2.645-.045,4.394-.045s3.318.018,4.394.045l-.093.093A9.18,9.18,0,0,1,367.369,164.42Z" transform="translate(-318.838 -128.757)" fill="#263238"/>
    <path id="Path_428" data-name="Path 428" d="M358.348,169.129a17.263,17.263,0,0,1,0-4.349,8.766,8.766,0,0,1,.138,2.173A8.63,8.63,0,0,1,358.348,169.129Z" transform="translate(-318.649 -129.009)" fill="#263238"/>
    <path id="Path_429" data-name="Path 429" d="M387.924,169.645a16.34,16.34,0,0,1,0-4.185,8.156,8.156,0,0,1,.138,2.092A8,8,0,0,1,387.924,169.645Z" transform="translate(-339.387 -129.486)" fill="#263238"/>
    <rect id="Rectangle_75" data-name="Rectangle 75" width="21.501" height="21.501" rx="4.6" transform="translate(57.729 26.304)" fill="#e0e0e0"/>
    <rect id="Rectangle_76" data-name="Rectangle 76" width="8.788" height="4.687" rx="2.343" transform="translate(64.069 33.631)" fill="#455a64"/>
    <rect id="Rectangle_77" data-name="Rectangle 77" width="12.656" height="4.496" rx="1.04" transform="translate(62.153 35.663)" fill="#455a64"/>
    <path id="Path_430" data-name="Path 430" d="M448.746,164.42a9.181,9.181,0,0,1,.093,1.563v.09h-.1c-1.073.027-2.645.045-4.391.045s-3.321-.018-4.394-.045h-.1v-.09a9.184,9.184,0,0,1,.093-1.563,9.583,9.583,0,0,1,.093,1.563l-.093-.093c1.073-.027,2.645-.045,4.394-.045s3.318.018,4.391.045l-.093.093A9.586,9.586,0,0,1,448.746,164.42Z" transform="translate(-375.892 -128.757)" fill="#263238"/>
    <path id="Path_431" data-name="Path 431" d="M439.728,169.129a17.259,17.259,0,0,1,0-4.349,17.267,17.267,0,0,1,0,4.349Z" transform="translate(-375.703 -129.009)" fill="#263238"/>
    <path id="Path_432" data-name="Path 432" d="M469.3,169.645a15.991,15.991,0,0,1,0-4.185,8.155,8.155,0,0,1,.138,2.092A8,8,0,0,1,469.3,169.645Z" transform="translate(-396.434 -129.486)" fill="#263238"/>
    <rect id="Rectangle_78" data-name="Rectangle 78" width="21.501" height="21.501" rx="4.6" transform="translate(9.081 53.356)" fill="#e0e0e0"/>
    <path id="Path_433" data-name="Path 433" d="M277.2,248.517l1,3.491,6.875.027,1.1-3.342a2.956,2.956,0,0,0-1.181-.137l-.12-3.721a.508.508,0,0,0-.711-.454l-.67.3h-3.886l-.445-.224a.5.5,0,0,0-.729.451v3.674A2.947,2.947,0,0,0,277.2,248.517Z" transform="translate(-261.854 -184.786)" fill="#92278f"/>
    <rect id="Rectangle_79" data-name="Rectangle 79" width="0.362" height="3.177" transform="translate(16.34 67.224) rotate(0.24)" fill="#263238"/>
    <rect id="Rectangle_80" data-name="Rectangle 80" width="0.362" height="1.623" transform="translate(17.611 67.238) rotate(0.24)" fill="#263238"/>
    <rect id="Rectangle_81" data-name="Rectangle 81" width="0.362" height="1.623" transform="translate(21.251 67.253) rotate(0.24)" fill="#263238"/>
    <rect id="Rectangle_82" data-name="Rectangle 82" width="0.362" height="3.177" transform="translate(22.863 67.251) rotate(0.24)" fill="#263238"/>
    <path id="Path_434" data-name="Path 434" d="M285.326,250.8c-.027,0-.045-1.2-.039-2.657s.036-2.657.063-2.657.045,1.2.039,2.657S285.353,250.8,285.326,250.8Z" transform="translate(-267.523 -185.594)" fill="#263238"/>
    <path id="Path_435" data-name="Path 435" d="M298.306,250.865c-.027,0-.045-1.2-.039-2.657s.036-2.657.063-2.657.045,1.2.039,2.657S298.336,250.865,298.306,250.865Z" transform="translate(-276.623 -185.636)" fill="#263238"/>
    <path id="Path_436" data-name="Path 436" d="M287.8,258.4a.859.859,0,0,1-.176.054l-.1.024-.111.042-.132.048-.138.075a1.432,1.432,0,0,0-.544.55,1.719,1.719,0,0,0-.191.968v.051h-1.883l-2.06-.015h-.042v-.042a1.892,1.892,0,0,0-.239-.9,2,2,0,0,0-.439-.547,2.729,2.729,0,0,0-.535-.338.77.77,0,0,1,.161.054,1.761,1.761,0,0,1,.407.245,1.991,1.991,0,0,1,.481.559,1.892,1.892,0,0,1,.263.918l-.045-.042h3.895l-.045.051a1.794,1.794,0,0,1,.2-1,1.456,1.456,0,0,1,.6-.559l.143-.069.135-.045.117-.039.1-.018A1.052,1.052,0,0,1,287.8,258.4Z" transform="translate(-264.665 -194.624)" fill="#263238"/>
    <path id="Path_437" data-name="Path 437" d="M282.066,264.386c0,.015-.129.039-.32.126a1.656,1.656,0,0,0-.628.5,1.7,1.7,0,0,0-.3.741,3.206,3.206,0,0,1-.036.341.726.726,0,0,1-.033-.35,1.542,1.542,0,0,1,.3-.792,1.524,1.524,0,0,1,.685-.5A.688.688,0,0,1,282.066,264.386Z" transform="translate(-264.337 -198.84)" fill="#263238"/>
    <path id="Path_438" data-name="Path 438" d="M299.647,266.076c-.015,0-.018-.146-.075-.374a1.952,1.952,0,0,0-.407-.8,1.979,1.979,0,0,0-.72-.523c-.215-.09-.359-.114-.356-.129a.8.8,0,0,1,.38.066,1.764,1.764,0,0,1,1.172,1.366A.8.8,0,0,1,299.647,266.076Z" transform="translate(-276.499 -198.748)" fill="#263238"/>
    <rect id="Rectangle_83" data-name="Rectangle 83" width="21.501" height="21.501" rx="4.6" transform="translate(33.404 53.356)" fill="#e0e0e0"/>
    <rect id="Rectangle_84" data-name="Rectangle 84" width="21.501" height="21.501" rx="4.6" transform="translate(57.729 53.356)" fill="#f7941d"/>
    <rect id="Rectangle_85" data-name="Rectangle 85" width="21.501" height="21.501" rx="4.6" transform="translate(9.081 80.408)" fill="#f7941d"/>
    <rect id="Rectangle_86" data-name="Rectangle 86" width="21.501" height="21.501" rx="4.6" transform="translate(33.404 80.408)" fill="#e0e0e0"/>
    <rect id="Rectangle_87" data-name="Rectangle 87" width="21.501" height="21.501" rx="4.6" transform="translate(57.729 80.408)" fill="#e0e0e0"/>
    <ellipse id="Ellipse_1" data-name="Ellipse 1" cx="0.771" cy="0.771" rx="0.771" ry="0.771" transform="translate(40.697 107.463)" fill="#263238"/>
    <path id="Path_439" data-name="Path 439" d="M373.962,405.384a.771.771,0,1,1-.225-.547A.771.771,0,0,1,373.962,405.384Z" transform="translate(-328.611 -297.15)" fill="#263238"/>
    <path id="Path_440" data-name="Path 440" d="M384.368,405.384a.774.774,0,1,1-.771-.774A.774.774,0,0,1,384.368,405.384Z" transform="translate(-335.902 -297.15)" fill="#263238"/>
    <path id="Path_441" data-name="Path 441" d="M263.173,104.9h-3.934a.149.149,0,0,1,0-.3h3.934a.149.149,0,1,1,0,.3Z" transform="translate(-249.157 -86.818)" fill="#263238"/>
    <path id="Path_442" data-name="Path 442" d="M260.2,103.224a.155.155,0,0,1-.087-.027l-1.767-1.258a.146.146,0,0,1-.066-.123.164.164,0,0,1,.066-.123l1.82-1.24a.149.149,0,1,1,.167.245l-1.641,1.121,1.6,1.133a.149.149,0,0,1-.087.272Z" transform="translate(-248.589 -83.885)" fill="#263238"/>
    <path id="Path_443" data-name="Path 443" d="M475.733,104.949H471.8a.149.149,0,0,1,0-.3h3.934a.149.149,0,1,1,0,.3Z" transform="translate(-398.18 -86.853)" fill="#263238"/>
    <path id="Path_444" data-name="Path 444" d="M479.648,103.246a.155.155,0,0,1-.126-.066.152.152,0,0,1,.039-.206l1.644-1.124-1.593-1.13a.152.152,0,0,1-.036-.209.149.149,0,0,1,.209-.036l1.767,1.258a.135.135,0,0,1,.063.123.155.155,0,0,1-.063.123l-1.82,1.24A.153.153,0,0,1,479.648,103.246Z" transform="translate(-403.682 -83.906)" fill="#263238"/>
    <rect id="Rectangle_88" data-name="Rectangle 88" width="8.869" height="5.924" rx="2.39" transform="translate(15.977 88.963) rotate(-0.1)" fill="#e0e0e0"/>
    <path id="Path_445" data-name="Path 445" d="M287.99,337.3a.548.548,0,0,1,0-.114q0-.131.018-.323a7.255,7.255,0,0,0,0-1.2,2.669,2.669,0,0,0-.679-1.566,1.761,1.761,0,0,0-.876-.487,4.908,4.908,0,0,0-1.1-.093,3.19,3.19,0,0,0-2.009.574,1.943,1.943,0,0,0-.55.732,2.777,2.777,0,0,0-.206.78,5.91,5.91,0,0,0,0,1.2q.018.2.027.323v.114a.461.461,0,0,1-.024-.111c0-.072-.027-.182-.045-.32a5.38,5.38,0,0,1-.036-1.2,2.859,2.859,0,0,1,.2-.807,1.992,1.992,0,0,1,.565-.771,2.475,2.475,0,0,1,.948-.469,4.646,4.646,0,0,1,1.124-.135,5.006,5.006,0,0,1,1.127.1,1.845,1.845,0,0,1,.921.52,2.714,2.714,0,0,1,.685,1.626,6.149,6.149,0,0,1-.024,1.2,2.039,2.039,0,0,1-.036.32.722.722,0,0,1-.03.111Z" transform="translate(-265.563 -247.249)" fill="#263238"/>
    <rect id="Rectangle_89" data-name="Rectangle 89" width="8.869" height="5.924" rx="2.39" transform="translate(14.856 88.935) rotate(-0.1)" fill="#fafafa"/>
    <path id="Path_446" data-name="Path 446" d="M283.581,348.239a.949.949,0,0,0,.278-.069.681.681,0,0,0,.266-.209.691.691,0,0,0,.149-.43c0-.723,0-1.761-.021-3.04v-1.536a.676.676,0,0,0-.245-.448.714.714,0,0,0-.514-.146h-7.356a.664.664,0,0,0-.565.32.625.625,0,0,0-.1.317v4.427a.9.9,0,0,0,.033.3.711.711,0,0,0,.143.248.664.664,0,0,0,.511.218h6.316l-3.04.024h-3.288a.759.759,0,0,1-.583-.245.732.732,0,0,1-.164-.284.945.945,0,0,1-.039-.326v-4.433a.745.745,0,0,1,.111-.365.768.768,0,0,1,.655-.368h7.35a.8.8,0,0,1,.568.17.744.744,0,0,1,.272.505v4.585a.735.735,0,0,1-.164.451.723.723,0,0,1-.284.209A.565.565,0,0,1,283.581,348.239Z" transform="translate(-260.567 -253.388)" fill="#263238"/>
    <rect id="Rectangle_90" data-name="Rectangle 90" width="8.869" height="5.924" rx="2.39" transform="translate(40.105 88.963) rotate(-0.1)" fill="#92278f"/>
    <path id="Path_447" data-name="Path 447" d="M368.71,337.3a.548.548,0,0,1,0-.114q0-.131.018-.323a7.255,7.255,0,0,0,0-1.2,2.669,2.669,0,0,0-.679-1.566,1.761,1.761,0,0,0-.876-.487,4.909,4.909,0,0,0-1.1-.093,3.19,3.19,0,0,0-2.009.574,1.943,1.943,0,0,0-.55.732,2.776,2.776,0,0,0-.206.78,5.908,5.908,0,0,0,0,1.2q.018.2.027.323v.114a.461.461,0,0,1-.024-.111c0-.072-.027-.182-.045-.32a5.382,5.382,0,0,1-.036-1.2,2.858,2.858,0,0,1,.2-.807,1.991,1.991,0,0,1,.565-.771,2.474,2.474,0,0,1,.948-.469,4.646,4.646,0,0,1,1.124-.135,5.005,5.005,0,0,1,1.127.1,1.844,1.844,0,0,1,.921.52,2.714,2.714,0,0,1,.685,1.626,6.149,6.149,0,0,1-.024,1.2,2.032,2.032,0,0,1-.036.32.445.445,0,0,1-.03.111Z" transform="translate(-322.154 -247.249)" fill="#263238"/>
    <path id="Path_548" data-name="Path 548" d="M.714,0h7.44a.714.714,0,0,1,.714.714v4.5a.714.714,0,0,1-.714.714H.714A.714.714,0,0,1,0,5.21V.714A.714.714,0,0,1,.714,0Z" transform="translate(38.984 88.935) rotate(-0.1)" fill="#92278f"/>
    <path id="Path_448" data-name="Path 448" d="M364.356,348.239a.949.949,0,0,0,.278-.069.681.681,0,0,0,.266-.209.691.691,0,0,0,.15-.43c0-.723,0-1.761-.021-3.04v-1.536a.676.676,0,0,0-.245-.448.714.714,0,0,0-.514-.146h-7.356a.664.664,0,0,0-.565.32.625.625,0,0,0-.1.317v4.427a.9.9,0,0,0,.033.3.711.711,0,0,0,.143.248.667.667,0,0,0,.514.218h6.307l-3.04.024h-3.261a.759.759,0,0,1-.583-.245.732.732,0,0,1-.164-.284.941.941,0,0,1-.036-.326v-4.433a.744.744,0,0,1,.111-.365.768.768,0,0,1,.655-.368h7.35a.8.8,0,0,1,.568.17.759.759,0,0,1,.275.505c0,.188,0,.362,0,.538v4.047a.72.72,0,0,1-.448.661A.565.565,0,0,1,364.356,348.239Z" transform="translate(-317.214 -253.388)" fill="#263238"/>
    <rect id="Rectangle_92" data-name="Rectangle 92" width="8.869" height="5.924" rx="2.39" transform="translate(65.19 88.961) rotate(-0.1)" fill="#455a64"/>
    <path id="Path_449" data-name="Path 449" d="M452.63,337.3a.548.548,0,0,1,0-.114q0-.131.018-.323a7.259,7.259,0,0,0,0-1.2,2.69,2.69,0,0,0-.679-1.566,1.761,1.761,0,0,0-.876-.487,4.924,4.924,0,0,0-1.1-.093,3.2,3.2,0,0,0-2.012.574,1.966,1.966,0,0,0-.547.732,2.774,2.774,0,0,0-.206.78,5.9,5.9,0,0,0,0,1.2q.018.2.027.323a.057.057,0,1,1-.024,0c0-.072-.027-.182-.045-.32a5.379,5.379,0,0,1-.036-1.2,2.758,2.758,0,0,1,.2-.807,1.962,1.962,0,0,1,.565-.771,2.475,2.475,0,0,1,.948-.469,4.613,4.613,0,0,1,1.124-.134,5,5,0,0,1,1.127.1,1.856,1.856,0,0,1,.921.52,2.69,2.69,0,0,1,.682,1.626,5.953,5.953,0,0,1-.021,1.2,2.031,2.031,0,0,1-.036.32A.718.718,0,0,1,452.63,337.3Z" transform="translate(-380.99 -247.249)" fill="#263238"/>
    <rect id="Rectangle_93" data-name="Rectangle 93" width="8.869" height="5.924" rx="2.39" transform="translate(64.069 88.933) rotate(-0.1)" fill="#455a64"/>
    <path id="Path_450" data-name="Path 450" d="M448.256,348.239a.949.949,0,0,0,.278-.069.681.681,0,0,0,.266-.209.69.69,0,0,0,.149-.43c0-.723,0-1.761-.021-3.04v-1.536a.67.67,0,0,0-.248-.448.7.7,0,0,0-.511-.146h-7.356a.664.664,0,0,0-.565.32.625.625,0,0,0-.1.317v4.427a.9.9,0,0,0,.033.3.67.67,0,0,0,.655.466h6.3l-3.037.024H440.84a.756.756,0,0,1-.58-.245.776.776,0,0,1-.167-.284,1.019,1.019,0,0,1-.036-.326v-4.433a.744.744,0,0,1,.111-.365.765.765,0,0,1,.652-.368h7.353a.8.8,0,0,1,.568.17.744.744,0,0,1,.272.505v4.585a.735.735,0,0,1-.164.451.724.724,0,0,1-.284.209.565.565,0,0,1-.308.126Z" transform="translate(-376.029 -253.388)" fill="#263238"/>
    <path id="Path_451" data-name="Path 451" d="M360,250.509l1,3.5,6.875.03,1.091-3.354a2.921,2.921,0,0,0-1.181-.135l-.114-3.715a.511.511,0,0,0-.711-.454l-.67.3-3.886-.018-.445-.224a.5.5,0,0,0-.729.451v3.677A2.9,2.9,0,0,0,360,250.509Z" transform="translate(-319.904 -186.191)" fill="#455a64"/>
    <rect id="Rectangle_94" data-name="Rectangle 94" width="0.362" height="3.177" transform="translate(41.091 67.812) rotate(0.24)" fill="#263238"/>
    <rect id="Rectangle_95" data-name="Rectangle 95" width="0.362" height="1.623" transform="translate(42.367 67.814) rotate(0.24)" fill="#263238"/>
    <rect id="Rectangle_96" data-name="Rectangle 96" width="0.362" height="1.623" transform="translate(46.002 67.838) rotate(0.24)" fill="#263238"/>
    <rect id="Rectangle_97" data-name="Rectangle 97" width="0.362" height="3.177" transform="translate(47.607 67.848) rotate(0.24)" fill="#263238"/>
    <path id="Path_452" data-name="Path 452" d="M368.126,252.775c-.027,0-.045-1.2-.039-2.657s.033-2.657.063-2.657.042,1.2.036,2.657S368.153,252.775,368.126,252.775Z" transform="translate(-325.573 -186.975)" fill="#263238"/>
    <path id="Path_453" data-name="Path 453" d="M381.106,252.825c-.027,0-.045-1.2-.039-2.657s.033-2.657.063-2.657.045,1.2.036,2.657S381.133,252.825,381.106,252.825Z" transform="translate(-334.673 -187.01)" fill="#263238"/>
    <path id="Path_454" data-name="Path 454" d="M370.577,260.381a1.516,1.516,0,0,1-.179.051l-.1.024-.114.045-.129.048-.137.075a1.4,1.4,0,0,0-.544.547,1.728,1.728,0,0,0-.191.971v.048H365.2v-.042a1.865,1.865,0,0,0-.236-.9,1.985,1.985,0,0,0-.451-.553,2.727,2.727,0,0,0-.535-.338.793.793,0,0,1,.158.051,1.816,1.816,0,0,1,.41.245,2.006,2.006,0,0,1,.481.562,1.925,1.925,0,0,1,.263.918l-.045-.045h3.895l-.045.051a1.794,1.794,0,0,1,.215-1.016,1.45,1.45,0,0,1,.583-.559l.146-.072.135-.045.117-.036.1-.018A.779.779,0,0,1,370.577,260.381Z" transform="translate(-322.694 -196.019)" fill="#263238"/>
    <path id="Path_455" data-name="Path 455" d="M364.869,266.346c0,.018-.129.042-.32.129a1.605,1.605,0,0,0-.939,1.237,3.341,3.341,0,0,1-.036.341.748.748,0,0,1-.033-.35,1.5,1.5,0,0,1,.3-.792,1.534,1.534,0,0,1,.682-.5A.729.729,0,0,1,364.869,266.346Z" transform="translate(-322.381 -200.215)" fill="#263238"/>
    <path id="Path_456" data-name="Path 456" d="M382.44,268.035c-.015,0-.018-.146-.075-.371a1.934,1.934,0,0,0-.407-.8,1.965,1.965,0,0,0-.723-.523c-.212-.09-.359-.117-.356-.132a.807.807,0,0,1,.383.066,1.776,1.776,0,0,1,1.172,1.369A.789.789,0,0,1,382.44,268.035Z" transform="translate(-334.542 -200.122)" fill="#263238"/>
    <path id="Path_457" data-name="Path 457" d="M441.64,247.436l1,3.494,6.875.03,1.1-3.345a2.956,2.956,0,0,0-1.181-.137l-.111-3.713a.511.511,0,0,0-.714-.454l-.67.3-3.871-.015-.445-.224a.5.5,0,0,0-.732.451V247.5A2.947,2.947,0,0,0,441.64,247.436Z" transform="translate(-377.14 -184.036)" fill="#fafafa"/>
    <rect id="Rectangle_98" data-name="Rectangle 98" width="0.362" height="3.177" transform="translate(65.495 66.891) rotate(0.24)" fill="#263238"/>
    <rect id="Rectangle_99" data-name="Rectangle 99" width="0.362" height="1.623" transform="translate(66.771 66.897) rotate(0.24)" fill="#263238"/>
    <rect id="Rectangle_100" data-name="Rectangle 100" width="0.362" height="1.623" transform="translate(70.412 66.912) rotate(0.24)" fill="#263238"/>
    <rect id="Rectangle_101" data-name="Rectangle 101" width="0.362" height="3.177" transform="translate(72.008 66.931) rotate(0.24)" fill="#263238"/>
    <path id="Path_458" data-name="Path 458" d="M449.773,249.7c-.027,0-.042-1.2-.036-2.657s.033-2.654.06-2.654.045,1.2.039,2.657S449.815,249.7,449.773,249.7Z" transform="translate(-382.816 -184.822)" fill="#263238"/>
    <path id="Path_459" data-name="Path 459" d="M462.756,249.755c-.03,0-.045-1.2-.039-2.657s.033-2.657.06-2.657.045,1.2.039,2.657S462.783,249.755,462.756,249.755Z" transform="translate(-391.916 -184.857)" fill="#263238"/>
    <path id="Path_460" data-name="Path 460" d="M452.2,257.308a.787.787,0,0,1-.176.054l-.1.024-.111.042-.132.048-.137.075a1.432,1.432,0,0,0-.544.55,1.722,1.722,0,0,0-.191.968v.051h-3.988v-.042a1.859,1.859,0,0,0-.239-.9,2,2,0,0,0-.451-.556,2.515,2.515,0,0,0-.535-.335.463.463,0,0,1,.161.051,1.758,1.758,0,0,1,.406.245,2.033,2.033,0,0,1,.481.559,1.914,1.914,0,0,1,.263.918l-.045-.042h3.895l-.045.051a1.775,1.775,0,0,1,.218-1.019,1.4,1.4,0,0,1,.583-.556l.143-.072.134-.045.117-.036.1-.018A1.377,1.377,0,0,1,452.2,257.308Z" transform="translate(-379.917 -193.866)" fill="#263238"/>
    <path id="Path_461" data-name="Path 461" d="M446.476,263.274c0,.015-.129.039-.317.126a1.6,1.6,0,0,0-.939,1.238c-.033.206-.021.341-.036.341a.655.655,0,0,1-.036-.347,1.524,1.524,0,0,1,.3-.8,1.474,1.474,0,0,1,.682-.5A.673.673,0,0,1,446.476,263.274Z" transform="translate(-379.594 -198.06)" fill="#263238"/>
    <path id="Path_462" data-name="Path 462" d="M464.087,264.966c-.015,0-.018-.146-.075-.374a1.9,1.9,0,0,0-1.127-1.315c-.215-.093-.359-.117-.356-.132a.8.8,0,0,1,.38.066,1.762,1.762,0,0,1,1.172,1.366A.8.8,0,0,1,464.087,264.966Z" transform="translate(-391.786 -197.97)" fill="#263238"/>
    <path id="Path_463" data-name="Path 463" d="M340,101.72a1.178,1.178,0,0,1,1.252-1.2,1.2,1.2,0,0,1,.977.43l-.409.371a.67.67,0,0,0-.535-.266.652.652,0,0,0,0,1.3.679.679,0,0,0,.535-.266l.409.371a1.2,1.2,0,0,1-.977.427A1.178,1.178,0,0,1,340,101.72Z" transform="translate(-305.882 -83.959)" fill="#263238"/>
    <path id="Path_464" data-name="Path 464" d="M349.2,102.555h-.962l-.179.442H347.4l1.007-2.278h.634L350.048,103h-.676Zm-.188-.475-.3-.726-.3.726Z" transform="translate(-311.07 -84.097)" fill="#263238"/>
    <path id="Path_465" data-name="Path 465" d="M356.469,101.231h-.7v-.511h2.039v.511h-.7V103h-.643Z" transform="translate(-316.938 -84.097)" fill="#263238"/>
    <path id="Path_466" data-name="Path 466" d="M363.9,102.555h-.962l-.179.442H362.1l1-2.278h.634l1.01,2.278h-.67Zm-.188-.475-.3-.726-.3.726Z" transform="translate(-321.376 -84.097)" fill="#263238"/>
    <path id="Path_467" data-name="Path 467" d="M371.57,100.72h.643v1.767H373.3V103H371.57Z" transform="translate(-328.015 -84.097)" fill="#263238"/>
    <path id="Path_468" data-name="Path 468" d="M377.685,101.389a1.267,1.267,0,1,1,1.264,1.2,1.2,1.2,0,0,1-1.264-1.2Zm1.88,0a.616.616,0,1,0-.616.652.6.6,0,0,0,.622-.652Z" transform="translate(-332.301 -83.628)" fill="#263238"/>
    <path id="Path_469" data-name="Path 469" d="M388.3,101.7h.568v.942a1.677,1.677,0,0,1-.956.3,1.2,1.2,0,1,1,.015-2.367,1.249,1.249,0,0,1,1,.415l-.41.371a.721.721,0,0,0-.553-.251.652.652,0,0,0,0,1.3.837.837,0,0,0,.35-.075Z" transform="translate(-338.518 -83.983)" fill="#263238"/>
    <path id="Path_470" data-name="Path 470" d="M395.6,102.034V100.77h.643v1.243c0,.392.161.547.433.547s.427-.155.427-.547V100.77h.637v1.264a1.07,1.07,0,1,1-2.14,0Z" transform="translate(-344.862 -84.132)" fill="#263238"/>
    <path id="Path_471" data-name="Path 471" d="M406.039,102.5v.5H404.21V100.72H406v.5h-1.151v.383h1.013v.481h-1.013v.418Z" transform="translate(-350.899 -84.097)" fill="#263238"/>
    <path id="Path_472" data-name="Path 472" d="M358.711,114.148c0,.042-5.485.078-12.255.078s-12.256-.036-12.256-.078,5.485-.078,12.256-.078S358.711,114.1,358.711,114.148Z" transform="translate(-301.816 -93.457)" fill="#e0e0e0"/>
    <path id="Path_473" data-name="Path 473" d="M369.8,117.468c0,.042-1.793.078-4.023.078s-4.023-.036-4.023-.078,1.793-.078,4.023-.078S369.8,117.423,369.8,117.468Z" transform="translate(-321.131 -95.784)" fill="#e0e0e0"/>
  </g>
</svg>
