<svg xmlns="http://www.w3.org/2000/svg" width="357.659" height="330.763" viewBox="0 0 357.659 330.763">
  <g id="sellers-policy-purple" transform="translate(292.659 -2655.736)">
    <g id="freepik--background-simple--inject-36" transform="translate(-334.859 2615.659)">
      <path id="Path_549" data-name="Path 549" d="M295.448,40.089c-32.885.563-58.24,27.454-86.39,44.464-42.507,25.685-97.1,30.9-133.007,65.217-24.577,23.523-36.709,58.937-33.279,92.769s22.013,65.548,48.886,86.4c17.135,13.285,37.245,22.245,57.766,29.258,20.8,7.093,42.454,12.355,64.431,12.632C244.31,371.213,274.23,362,301.782,349c19.163-9.032,37.638-20.074,52.71-34.967,14.241-14.062,25.158-31.34,32.635-49.9,18.484-45.884,15.545-98.478-.482-145.282C373.387,80.139,340.975,39.3,295.448,40.089Z" transform="translate(0)" fill="#92278f"/>
      <path id="Path_550" data-name="Path 550" d="M295.448,40.089c-32.885.563-58.24,27.454-86.39,44.464-42.507,25.685-97.1,30.9-133.007,65.217-24.577,23.523-36.709,58.937-33.279,92.769s22.013,65.548,48.886,86.4c17.135,13.285,37.245,22.245,57.766,29.258,20.8,7.093,42.454,12.355,64.431,12.632C244.31,371.213,274.23,362,301.782,349c19.163-9.032,37.638-20.074,52.71-34.967,14.241-14.062,25.158-31.34,32.635-49.9,18.484-45.884,15.545-98.478-.482-145.282C373.387,80.139,340.975,39.3,295.448,40.089Z" transform="translate(0)" fill="#fff" opacity="0.7"/>
    </g>
    <g id="seller-purple" transform="translate(-219.39 2721.023)">
      <g id="freepik--Character--inject-2" transform="translate(-2.076 7.616)">
        <path id="Path_474" data-name="Path 474" d="M164.291,434.456l-.709,22.228-27.7-.467c.207-2.643,15.778-7.6,15.778-7.6l.112-14.945Z" transform="translate(-117.957 -235.16)" fill="#92278f"/>
        <g id="Group_44" data-name="Group 44" transform="translate(17.923 198.51)" opacity="0.3">
          <path id="Path_475" data-name="Path 475" d="M164.291,434.456l-.709,22.228-27.7-.467c.207-2.643,15.778-7.6,15.778-7.6l.112-14.945Z" transform="translate(-135.88 -433.67)"/>
        </g>
        <path id="Path_476" data-name="Path 476" d="M144.693,456.979a1.123,1.123,0,0,1,.757,1.3,1.094,1.094,0,0,1-1.289.768,1.182,1.182,0,0,1-.792-1.389,1.123,1.123,0,0,1,1.425-.644" transform="translate(-103.549 -244.677)" fill="#263238"/>
        <path id="Path_477" data-name="Path 477" d="M164.671,471.016l.071-2.246-26.656.39s-1.241.52-1.117,1.389Z" transform="translate(-119.045 -249.51)" fill="#263238"/>
        <path id="Path_478" data-name="Path 478" d="M153.767,459.252c0,.136.68.213,1.336.656s1,1.023,1.129.97-.065-.834-.869-1.36S153.767,459.127,153.767,459.252Z" transform="translate(-120.509 -245.573)" fill="#263238"/>
        <path id="Path_479" data-name="Path 479" d="M161.089,461.324c-.03.13.55.372,1,.952s.591,1.182.709,1.182.231-.769-.343-1.478S161.1,461.194,161.089,461.324Z" transform="translate(-131.461 -246.445)" fill="#263238"/>
        <path id="Path_480" data-name="Path 480" d="M167.655,465.373c.124.035.325-.638,0-1.389s-.958-1.052-1.017-.94.325.514.591,1.135S167.525,465.373,167.655,465.373Z" transform="translate(-139.676 -247.16)" fill="#263238"/>
        <path id="Path_481" data-name="Path 481" d="M152.624,452.73c.059.124.68-.047,1.442,0s1.36.319,1.431.207-.491-.591-1.4-.674S152.564,452.624,152.624,452.73Z" transform="translate(-119.064 -242.758)" fill="#263238"/>
        <path id="Path_482" data-name="Path 482" d="M151.046,445.907a2.588,2.588,0,0,0,1.389,0,6.193,6.193,0,0,0,1.46-.42,7.358,7.358,0,0,0,.8-.408,2.036,2.036,0,0,0,.426-.319.591.591,0,0,0,.071-.721.733.733,0,0,0-.591-.319,1.687,1.687,0,0,0-.52.065,4.671,4.671,0,0,0-.869.278,4.888,4.888,0,0,0-1.295.822c-.656.591-.881,1.082-.834,1.111s.378-.372,1.04-.851a5.148,5.148,0,0,1,2.051-.91c.3-.071.544-.071.591.059s.03.071,0,.16a1.434,1.434,0,0,1-.313.231,8.433,8.433,0,0,1-.739.408,7.968,7.968,0,0,1-1.354.491A10.026,10.026,0,0,0,151.046,445.907Z" transform="translate(-117.918 -239.269)" fill="#263238"/>
        <path id="Path_483" data-name="Path 483" d="M149.814,114.172a10.31,10.31,0,0,1,9.908-9.872h.538c5.764.118,8.867,5.084,8.613,10.842l.4,24.658c-4.824,3.151-9.459,5.5-13.266,4.008l-.591-10.257s-5.569-.65-5.847-6.178C149.43,124.654,149.6,119.132,149.814,114.172Z" transform="translate(-131.004 -100.503)" fill="#ffbe9d"/>
        <path id="Path_484" data-name="Path 484" d="M160.94,152.083a12.894,12.894,0,0,0,7.129-2.323s-1.5,4.085-7.041,3.8Z" transform="translate(-136.549 -119.089)" fill="#eb996e"/>
        <path id="Path_485" data-name="Path 485" d="M177,127.42a.792.792,0,0,0,.792.769.757.757,0,0,0,.8-.721.786.786,0,0,0-.792-.768.751.751,0,0,0-.8.721Z" transform="translate(-156.564 -109.66)" fill="#263238"/>
        <path id="Path_486" data-name="Path 486" d="M174.96,124.825c.106.1.686-.367,1.537-.4s1.49.372,1.578.266-.065-.231-.343-.42a2.152,2.152,0,0,0-1.271-.337,2.1,2.1,0,0,0-1.212.443C175,124.594,174.913,124.783,174.96,124.825Z" transform="translate(-154.861 -108.531)" fill="#263238"/>
        <path id="Path_487" data-name="Path 487" d="M163.6,127.415a.8.8,0,0,0,.792.769.751.751,0,0,0,.786-.715.792.792,0,0,0-.786-.769A.763.763,0,0,0,163.6,127.415Z" transform="translate(-135.231 -109.661)" fill="#263238"/>
        <path id="Path_488" data-name="Path 488" d="M160.823,124.555c.1.1.68-.367,1.531-.4s1.49.372,1.578.266-.065-.231-.343-.42a2.146,2.146,0,0,0-1.265-.337,2.063,2.063,0,0,0-1.218.443C160.852,124.318,160.77,124.514,160.823,124.555Z" transform="translate(-132.359 -108.42)" fill="#263238"/>
        <path id="Path_490" data-name="Path 490" d="M3.885.647C3.8.878,2.951.765,1.952.884S.143,1.268.013,1.061C-.046.96.1.748.421.523A3.222,3.222,0,0,1,1.858.02,3.322,3.322,0,0,1,3.371.2C3.737.351,3.921.535,3.885.647Z" transform="matrix(0.995, 0.105, -0.105, 0.995, 27.936, 11.72)" fill="#263238"/>
        <path id="Path_491" data-name="Path 491" d="M174,119.789c.189.183.9-.041,1.774-.083s1.608.065,1.774-.142c.071-.1-.053-.29-.384-.461a2.879,2.879,0,0,0-1.448-.26,2.761,2.761,0,0,0-1.4.443C174,119.523,173.911,119.7,174,119.789Z" transform="translate(-153.747 -106.445)" fill="#263238"/>
        <path id="Path_492" data-name="Path 492" d="M144.325,129.354c.089-.047,3.754-1.271,3.778,2.518s-3.778,3.027-3.789,2.914S144.325,129.354,144.325,129.354Z" transform="translate(-106.751 -110.654)" fill="#ffbe9d"/>
        <path id="Path_493" data-name="Path 493" d="M145.928,134.19s.071.041.183.095a.656.656,0,0,0,.491,0,1.632,1.632,0,0,0,.745-1.466,2.2,2.2,0,0,0-.189-.946.757.757,0,0,0-.5-.5.325.325,0,0,0-.384.183c-.053.106-.03.183-.047.189s-.083-.065-.053-.219a.449.449,0,0,1,.148-.242.508.508,0,0,1,.366-.095.928.928,0,0,1,.692.591,2.271,2.271,0,0,1,.236,1.058,1.714,1.714,0,0,1-.952,1.638.7.7,0,0,1-.591-.095C145.94,134.279,145.916,134.2,145.928,134.19Z" transform="translate(-107.219 -111.494)" fill="#eb996e"/>
        <path id="Path_494" data-name="Path 494" d="M161,130.96a.1.1,0,0,0,.106-.089.095.095,0,0,0-.077-.112.089.089,0,0,0-.106.083.095.095,0,0,0,.077.118Z" transform="translate(-129.571 -111.32)" fill="#eb996e"/>
        <path id="Path_495" data-name="Path 495" d="M163.767,130.42a.108.108,0,0,0,.106-.1c.006-.065,0-.124-.071-.13a.118.118,0,0,0-.035.231Z" transform="translate(-133.979 -111.088)" fill="#eb996e"/>
        <path id="Path_496" data-name="Path 496" d="M165.614,130.4c.053,0,.1-.059.112-.148s-.03-.154-.083-.16-.1.059-.106.142S165.567,130.391,165.614,130.4Z" transform="translate(-136.925 -111.047)" fill="#eb996e"/>
        <path id="Path_497" data-name="Path 497" d="M162.325,132.794c.053,0,.095-.035.095-.065s-.047-.059-.1-.059-.089.03-.089.065S162.271,132.794,162.325,132.794Z" transform="translate(-131.661 -112.102)" fill="#eb996e"/>
        <path id="Path_498" data-name="Path 498" d="M164.848,132.243a.106.106,0,0,0,.1-.1.1.1,0,1,0-.189-.012A.106.106,0,0,0,164.848,132.243Z" transform="translate(-135.686 -111.84)" fill="#eb996e"/>
        <path id="Path_499" data-name="Path 499" d="M177.978,131.177a.105.105,0,0,0,.035-.207.106.106,0,0,0-.035.207Z" transform="translate(-156.602 -111.407)" fill="#eb996e"/>
        <path id="Path_500" data-name="Path 500" d="M179.911,131.056a.1.1,0,0,0,.1-.112.112.112,0,0,0-.083-.124.107.107,0,0,0-.1.112C179.834,131,179.87,131.056,179.911,131.056Z" transform="translate(-159.658 -111.345)" fill="#eb996e"/>
        <path id="Path_501" data-name="Path 501" d="M176.351,131.194a.089.089,0,0,0,.1-.071.083.083,0,0,0-.077-.095.089.089,0,0,0-.106.065.1.1,0,0,0,.083.1Z" transform="translate(-153.994 -111.43)" fill="#eb996e"/>
        <path id="Path_502" data-name="Path 502" d="M177.586,133.088a.1.1,0,0,0,.124-.065.095.095,0,0,0-.047-.136.108.108,0,0,0-.077.2Z" transform="translate(-156.009 -112.189)" fill="#eb996e"/>
        <path id="Path_503" data-name="Path 503" d="M179.395,132.9a.078.078,0,1,0-.047-.148.077.077,0,0,0-.065.1.083.083,0,0,0,.112.047Z" transform="translate(-158.77 -112.132)" fill="#eb996e"/>
        <path id="Path_505" data-name="Path 505" d="M146.618,104.057a2.281,2.281,0,0,0,.65-.313,1.425,1.425,0,0,0,.3-1.105,1.182,1.182,0,0,1,.408-1.052c.467-.26,1.076.183,1.572,0s.55-.881.81-1.354a1.46,1.46,0,0,1,1.8-.591c.437.2.91.621,1.324.372s.307-.757.467-1.147a1.029,1.029,0,0,1,1.425-.473c.367.219.709.7,1.1.52s.313-.715.621-.946a.68.68,0,0,1,.839.13,4.572,4.572,0,0,1,.55.745.946.946,0,0,0,.763.449c.337,0,.591-.331.834-.55a2.717,2.717,0,0,1,3.216.071,5.539,5.539,0,0,1,1.472,1.626,6.414,6.414,0,0,1,3.086.077,5.409,5.409,0,0,1,3.919,5.226,32.3,32.3,0,0,1-.7,3.222,24.76,24.76,0,0,0-.065,3.919,4.96,4.96,0,0,1-.94,3.494l-1.129.29a2.782,2.782,0,0,1-.266.384,1.182,1.182,0,0,1-1.49.39,1.49,1.49,0,0,1-.473-.857c-.692-2.365-1.383-4.919-1.064-7.33a3.24,3.24,0,0,0-1.59-3.3,5.091,5.091,0,0,0-1.135-.5,3.18,3.18,0,0,0-1.182,0,3.251,3.251,0,0,0-2.057,1.342c-.337.485-.591,1.117-1.182,1.265s-1.212-.331-1.844-.331a2.735,2.735,0,0,0-1.667.987,1.942,1.942,0,0,1-1.773.715c-.65-.2-.9-.8-1.46-.993a1.774,1.774,0,0,0-1.236.16,5.468,5.468,0,0,1-1.182.467,1.088,1.088,0,0,1-1.135-.384c-.254-.408-.095-1-.4-1.377s-.757-.349-1.182-.514a1.478,1.478,0,0,1-.035-2.7Z" transform="translate(-131.272 -97.877)" fill="#263238"/>
        <path id="Path_506" data-name="Path 506" d="M152.313,118.03c0-.047-.384,0-.981-.083a5.38,5.38,0,0,1-3.878-2.306,8.867,8.867,0,0,0-.544-.822,2,2,0,0,0,.361.94,4.865,4.865,0,0,0,4.049,2.406A2.022,2.022,0,0,0,152.313,118.03Z" transform="translate(-112.499 -104.804)" fill="#455a64"/>
        <path id="Path_507" data-name="Path 507" d="M151.964,121.195a8.583,8.583,0,0,1-2.956-.443,8.761,8.761,0,0,1-2.465-1.661,2.046,2.046,0,0,0,.526.739,5.237,5.237,0,0,0,1.827,1.182,5.185,5.185,0,0,0,2.205.39,1.9,1.9,0,0,0,.863-.207Z" transform="translate(-111.931 -106.55)" fill="#455a64"/>
        <path id="Path_508" data-name="Path 508" d="M148.67,250.12l6.875,21.666-4.381,98.11-13.4-1.626L136.007,321.6l-7.23-52.2-.727-18.474Z" transform="translate(-104.581 -160.119)" fill="#263238"/>
        <path id="Path_509" data-name="Path 509" d="M135.275,412.94l13.13,17.96L126.29,447.582c-1.466-2.211,7.75-15.707,7.75-15.707l-9.11-11.823Z" transform="translate(-95.597 -226.685)" fill="#92278f"/>
        <path id="Path_510" data-name="Path 510" d="M138.687,435.622a1.129,1.129,0,0,1,1.4.562,1.088,1.088,0,0,1-.538,1.4,1.182,1.182,0,0,1-1.484-.591,1.135,1.135,0,0,1,.727-1.389" transform="translate(-95.101 -235.93)" fill="#263238"/>
        <path id="Path_511" data-name="Path 511" d="M147.314,442.065l-1.33-1.815-20.762,16.718s-.656,1.182,0,1.773Z" transform="translate(-94.505 -237.851)" fill="#263238"/>
        <path id="Path_512" data-name="Path 512" d="M144.564,445.2c.083.107.662-.254,1.454-.307s1.419.189,1.484.071-.562-.591-1.525-.544S144.463,445.115,144.564,445.2Z" transform="translate(-106.298 -239.553)" fill="#263238"/>
        <path id="Path_513" data-name="Path 513" d="M148.64,450.878c.053.118.656-.047,1.372.13s1.182.591,1.283.5-.29-.751-1.182-.958S148.563,450.8,148.64,450.878Z" transform="translate(-112.515 -242.041)" fill="#263238"/>
        <path id="Path_514" data-name="Path 514" d="M154.1,456.357c.118-.053-.136-.7-.863-1.088s-1.407-.237-1.383-.112.591.207,1.182.526S153.988,456.428,154.1,456.357Z" transform="translate(-117.236 -243.89)" fill="#263238"/>
        <path id="Path_515" data-name="Path 515" d="M149.034,439.34c.118.065.5-.455,1.141-.875s1.224-.6,1.224-.721-.763-.177-1.513.331S148.9,439.3,149.034,439.34Z" transform="translate(-112.82 -236.793)" fill="#263238"/>
        <path id="Path_516" data-name="Path 516" d="M152.851,433.724a2.761,2.761,0,0,0,1.1-.839,6.124,6.124,0,0,0,.893-1.235,6.2,6.2,0,0,0,.384-.822,1.964,1.964,0,0,0,.136-.508.591.591,0,0,0-.384-.591.751.751,0,0,0-.662.112,1.773,1.773,0,0,0-.367.367,5.348,5.348,0,0,0-.514.757,4.9,4.9,0,0,0-.514,1.442,2.365,2.365,0,0,0,0,1.389c.077,0,.071-.526.3-1.312a5.322,5.322,0,0,1,.591-1.3,5.542,5.542,0,0,1,.485-.68c.189-.236.39-.39.526-.331s.065.041.071.148a1.461,1.461,0,0,1-.106.372,6.222,6.222,0,0,1-.331.774,7.579,7.579,0,0,1-.763,1.224C153.2,433.322,152.8,433.671,152.851,433.724Z" transform="translate(-119.043 -233.535)" fill="#263238"/>
        <path id="Path_517" data-name="Path 517" d="M164.159,251.49l-7.78.307s-17.309,61.9-15.565,67.328,33.779,41.441,33.779,41.441l9.589-10.05s-10.263-17.457-14.868-22.417c-3.3-3.547-11.823-10.363-11.823-10.363l10.954-22.086Z" transform="translate(-140.69 -160.679)" fill="#263238"/>
        <path id="Path_518" data-name="Path 518" d="M165.512,292.2a7.246,7.246,0,0,0,.331.975c.231.591.562,1.519.952,2.631a92.224,92.224,0,0,1,2.613,8.867c.839,3.517,1.377,6.733,1.691,9.08.16,1.182.278,2.122.349,2.779a7.349,7.349,0,0,0,.148,1.017,5.907,5.907,0,0,0,0-1.029c-.035-.662-.118-1.614-.248-2.8a77.113,77.113,0,0,0-1.608-9.122,77.949,77.949,0,0,0-2.708-8.868c-.42-1.111-.78-2-1.046-2.607A6.2,6.2,0,0,0,165.512,292.2Z" transform="translate(-142.8 -177.323)" fill="#455a64"/>
        <path id="Path_519" data-name="Path 519" d="M162.565,406.315l.189-.171.52-.52,1.969-2.016,7.005-7.277.065-.065-.053-.089c-2.489-4.174-5.456-9.216-8.927-14.46a70.228,70.228,0,0,0-9.281-11.551,53.07,53.07,0,0,0-4.587-3.979c-.739-.544-1.431-1.064-2.093-1.531L145.5,363.39h-.035l-3.724.834-.987.231a1.5,1.5,0,0,0-.337.095,2.457,2.457,0,0,0,.343-.053l1-.183,3.742-.751h-.065l1.844,1.289c.656.467,1.342,1,2.075,1.543a55.264,55.264,0,0,1,4.534,4,71.32,71.32,0,0,1,9.21,11.528c3.47,5.232,6.45,10.263,8.968,14.424v-.16l-6.923,7.354-1.915,2.057-.5.55A1.072,1.072,0,0,0,162.565,406.315Z" transform="translate(-128.662 -206.428)" fill="#455a64"/>
        <path id="Path_529" data-name="Path 529" d="M177.14,142.7a6.645,6.645,0,0,0,3.328,5.586,14.228,14.228,0,0,1-2.128-2.512A14.538,14.538,0,0,1,177.14,142.7Z" transform="translate(-158.525 -116.202)" fill="#eb996e"/>
        <path id="Path_530" data-name="Path 530" d="M208.751,173.84a6.584,6.584,0,0,0-3.027,3.86c-.68,2-4.522,8.986-4.522,8.986s-.925,1.747-2.179,4.221-2.838,5.675-2.838,5.675-1.512,4.936,1.99,8.257c1.79,1.7,5.123,2.4,7.549,3.645,2,1.028,3.1,2.662,4.471,1.379,1.744-1.63-.418-6.651-1.445-10.345s0-10.74,0-10.74Z" transform="translate(-190.574 -128.949)" fill="#92278f"/>
        <path id="Path_533" data-name="Path 533" d="M150.474,157.665s12.816,6.2,14.188,9.991-.91,13.55-.91,13.55l-5.06,26.325-1.052,9.837,2.737,3.973-1.182,4.079c-13.816,1.839-26.733,2.223-37.746-.5l.763-9.068,5.084-21.016.662-17.658.307-10.676,6.887-5.646s1.123,3.074,3.967,2.43,9.512-7.4,9.512-7.4Z" transform="translate(-110.234 -121.591)" fill="#92278f"/>
        <path id="Path_534" data-name="Path 534" d="M159.349,188.928c-.39.4-8.477,21.873-14.188,24.522s-9.074,1.726-11.557,1.046-13.343-8.347-13.343-8.347.763-5.155,3.919-5.321a24.661,24.661,0,0,1,5.953.473l3.831-2.536s2.223-4.345,3.506-4.528l7.443-16.553s6.923-13.508,13.8-7.271C165.415,176.472,159.349,188.928,159.349,188.928Z" transform="translate(-106.299 -126.86)" fill="#92278f"/>
        <path id="Path_535" data-name="Path 535" d="M147.27,163.909a2.731,2.731,0,0,0,.414.656,6.839,6.839,0,0,0,1.472,1.472,4.646,4.646,0,0,0,1.33.65,5.078,5.078,0,0,0,1.691.171,11.618,11.618,0,0,0,3.713-.975,13,13,0,0,0,3.316-1.975,19.606,19.606,0,0,0,2.223-2.2c.591-.668,1.023-1.236,1.318-1.632a3.335,3.335,0,0,0,.437-.638,3.98,3.98,0,0,0-.526.591c-.331.372-.792.916-1.4,1.561a22.012,22.012,0,0,1-2.235,2.128,13.3,13.3,0,0,1-3.234,1.9,11.876,11.876,0,0,1-3.606.975,4.469,4.469,0,0,1-2.879-.715,7.4,7.4,0,0,1-1.519-1.4A5.723,5.723,0,0,0,147.27,163.909Z" transform="translate(-123.583 -123.046)" fill="#263238"/>
        <path id="Path_536" data-name="Path 536" d="M183.706,183.91c-.083,0-.4,5.114-.709,11.427s-.491,11.433-.4,11.439.4-5.114.709-11.427S183.795,183.916,183.706,183.91Z" transform="translate(-164.996 -133.05)" fill="#263238"/>
        <path id="Path_537" data-name="Path 537" d="M161.349,171.515l-.142-.065-.437-.177a7.265,7.265,0,0,0-1.774-.42,6.692,6.692,0,0,0-2.956.343,9.341,9.341,0,0,0-3.346,2.146,16.968,16.968,0,0,0-2.956,3.931c-.443.78-.8,1.649-1.182,2.518s-.8,1.773-1.224,2.713l-5.634,12.48.106-.077a2.483,2.483,0,0,0-1.182.857,12.246,12.246,0,0,0-.887,1.182,27.64,27.64,0,0,0-1.525,2.578l.03-.035-1.5,1.5.095-.041-7.3.491-.94.059a3.482,3.482,0,0,0-.975.219,3.671,3.671,0,0,0-1.543,1.218,9.217,9.217,0,0,0-1.519,3.63,2.752,2.752,0,0,1-.071.384v.095l.077.053c3.192,2.235,6.337,4.381,9.459,6.314.786.473,1.567.952,2.365,1.372.2.112.4.207.591.307a5.9,5.9,0,0,0,.627.272,10.965,10.965,0,0,0,1.295.372,13.8,13.8,0,0,0,5.184.361,17.782,17.782,0,0,0,4.765-1.348,9.088,9.088,0,0,0,1.088-.514,3.469,3.469,0,0,0,.5-.325,4.733,4.733,0,0,0,.461-.372,13.181,13.181,0,0,0,1.59-1.667,45.71,45.71,0,0,0,4.434-7.094c2.365-4.522,3.973-8.324,5.09-10.943.538-1.306.964-2.323,1.253-3.027s.449-1.052.449-1.052a5.914,5.914,0,0,0-.5,1.029l-1.312,3c-1.147,2.6-2.79,6.391-5.167,10.889a47.108,47.108,0,0,1-4.457,7.041,8.276,8.276,0,0,1-3.547,2.79,17.581,17.581,0,0,1-4.694,1.318,13.5,13.5,0,0,1-5.078-.367,10.047,10.047,0,0,1-1.265-.367,5.281,5.281,0,0,1-.591-.266,6.279,6.279,0,0,1-.591-.3c-.792-.414-1.567-.887-2.365-1.366-3.115-1.927-6.26-4.073-9.459-6.3l.065.148.071-.372a8.868,8.868,0,0,1,1.46-3.5,3.417,3.417,0,0,1,1.413-1.123,6.248,6.248,0,0,1,1.821-.26l7.3-.514h.053l.041-.041,1.5-1.5h0a28.863,28.863,0,0,1,1.5-2.548,12.15,12.15,0,0,1,.863-1.135,2.305,2.305,0,0,1,1.029-.769h.083v-.059l5.592-12.5,1.212-2.719c.4-.881.745-1.732,1.182-2.507a16.776,16.776,0,0,1,2.891-3.908,9.222,9.222,0,0,1,3.269-2.146,6.727,6.727,0,0,1,2.879-.378,7.684,7.684,0,0,1,1.774.372l.443.16Z" transform="translate(-110.651 -127.696)" fill="#263238"/>
        <path id="Path_538" data-name="Path 538" d="M163.24,222.1c0,.183,1.614.118,3.577-.041l2.518-.2a4.415,4.415,0,0,0,1.04-.136,14.852,14.852,0,0,0-3.582.047c-.987.077-1.88.171-2.524.242Z" transform="translate(-140.215 -148.476)" fill="#263238"/>
        <path id="Path_539" data-name="Path 539" d="M157.6,212.092a13.422,13.422,0,0,0-2.838-.349,13.666,13.666,0,0,0-2.861-.041,13.443,13.443,0,0,0,2.844.349A13.6,13.6,0,0,0,157.6,212.092Z" transform="translate(-120.734 -144.39)" fill="#263238"/>
        <g id="Group_46" data-name="Group 46" transform="translate(23.882 79.592)" opacity="0.3">
          <path id="Path_540" data-name="Path 540" d="M141.7,238.778a12.6,12.6,0,0,1,8.371-6.071,14.129,14.129,0,0,1,10.641,2.708,12.131,12.131,0,0,1-8.7,5.663A14.312,14.312,0,0,1,141.7,238.778Z" transform="translate(-141.7 -232.513)"/>
        </g>
        <g id="Group_47" data-name="Group 47" transform="translate(24.385 37.186)" opacity="0.3">
          <path id="Path_541" data-name="Path 541" d="M163,160.78a15.188,15.188,0,0,1-4.434,6.408,8.185,8.185,0,0,1-7.39,1.62,3.559,3.559,0,0,1-2.654-2.749,11.658,11.658,0,0,0,14.093-4.729" transform="translate(-148.52 -160.78)"/>
        </g>
        <g id="Group_48" data-name="Group 48" transform="translate(17.123 52.274)" opacity="0.3">
          <path id="Path_542" data-name="Path 542" d="M183.218,201.873a46.56,46.56,0,0,1,.053-14.856c.059-.343.266-.786.591-.7s.325.414.337.686a120.622,120.622,0,0,1-.721,15.039" transform="translate(-182.648 -186.303)"/>
        </g>
        <path id="Path_543" data-name="Path 543" d="M133.42,266.487a1.069,1.069,0,0,0,.29.1l.828.231c.361.094.8.207,1.324.313s1.111.254,1.773.361a45.131,45.131,0,0,0,4.658.591,53.292,53.292,0,0,0,5.758.136,54.2,54.2,0,0,0,5.734-.532,46.39,46.39,0,0,0,4.611-.928c.65-.148,1.23-.331,1.773-.479s.946-.284,1.3-.408l.81-.284a1.97,1.97,0,0,0,.278-.118,1.071,1.071,0,0,0-.3.059l-.828.231c-.361.106-.8.231-1.312.355s-1.094.3-1.774.432c-1.295.307-2.855.591-4.6.863a49.717,49.717,0,0,1-5.7.5,56.079,56.079,0,0,1-5.722-.112,46.346,46.346,0,0,1-4.647-.538c-.662-.089-1.253-.213-1.774-.307s-.969-.183-1.33-.266l-.845-.172A1.136,1.136,0,0,0,133.42,266.487Z" transform="translate(-114.769 -166.395)" fill="#263238"/>
        <g id="Group_49" data-name="Group 49" transform="translate(20.522 98.342)" opacity="0.3">
          <path id="Path_544" data-name="Path 544" d="M162.46,265.448a3.056,3.056,0,0,0-2.436-1.218,10.445,10.445,0,0,0-2.79.384,42.286,42.286,0,0,1-19.331-.266,2.069,2.069,0,0,0,1.082,1.933,6.5,6.5,0,0,0,2.252.621c7.094,1.33,14.436.467,21.282-1.182" transform="translate(-137.9 -264.23)"/>
        </g>
        <path id="Path_520" data-name="Path 520" d="M187.057,223.464c-.024.165-2.286-.862-2.531-1.992a31.213,31.213,0,0,1-.178-4.394l5.763-4.437-.029,6.112A5.945,5.945,0,0,0,187.057,223.464Z" transform="translate(-173.126 -144.63)" fill="#ffbe9d"/>
      </g>
      <g id="freepik--Device--inject-2" transform="translate(41.971 0)">
        <rect id="Rectangle_66" data-name="Rectangle 66" width="163.151" height="234.139" rx="11.55" transform="translate(0 0)" fill="#263238"/>
        <rect id="Rectangle_67" data-name="Rectangle 67" width="152.862" height="195.533" transform="translate(5.071 16.705)" fill="#fff"/>
        <path id="Path_423" data-name="Path 423" d="M376.075,446.463a6.258,6.258,0,1,1-6.258-6.263A6.258,6.258,0,0,1,376.075,446.463Z" transform="translate(-288.239 -224.089)" fill="#455a64"/>
        <rect id="Rectangle_68" data-name="Rectangle 68" width="49.142" height="2.587" rx="1.22" transform="translate(57.007 6.744)" fill="#455a64"/>
        <path id="Path_546" data-name="Path 546" d="M2.516,0H36.829a2.516,2.516,0,0,1,2.516,2.516V36.829a2.516,2.516,0,0,1-2.516,2.516H2.516A2.516,2.516,0,0,1,0,36.829V2.516A2.516,2.516,0,0,1,2.516,0Z" transform="translate(16.618 48.135)" fill="#92278f"/>
        <rect id="Rectangle_70" data-name="Rectangle 70" width="16.082" height="8.577" rx="2.54" transform="translate(28.214 61.542)" fill="#fafafa"/>
        <rect id="Rectangle_71" data-name="Rectangle 71" width="23.16" height="8.227" rx="1.04" transform="translate(24.708 65.261)" fill="#fafafa"/>
        <path id="Path_424" data-name="Path 424" d="M293.377,164.42a17.553,17.553,0,0,1,.17,2.861v.164h-.17c-1.969.049-4.841.082-8.041.082s-6.072-.033-8.041-.082h-.17v-.164a17.546,17.546,0,0,1,.17-2.861,16.805,16.805,0,0,1,.17,2.861l-.17-.17c1.969-.049,4.841-.082,8.041-.082s6.072.033,8.041.082l-.17.17A16.805,16.805,0,0,1,293.377,164.42Z" transform="translate(-249.082 -99.159)" fill="#263238"/>
        <path id="Path_425" data-name="Path 425" d="M277.092,172.739a15.8,15.8,0,0,1-.252-3.982,15.735,15.735,0,0,1,.252-3.977,15.894,15.894,0,0,1,.246,3.977A16.274,16.274,0,0,1,277.092,172.739Z" transform="translate(-248.954 -99.322)" fill="#263238"/>
        <path id="Path_426" data-name="Path 426" d="M306.662,173.118a14.643,14.643,0,0,1-.252-3.829,14.643,14.643,0,0,1,.252-3.829,14.784,14.784,0,0,1,.246,3.829A15.075,15.075,0,0,1,306.662,173.118Z" transform="translate(-262.35 -99.63)" fill="#263238"/>
        <rect id="Rectangle_72" data-name="Rectangle 72" width="39.345" height="39.345" rx="4.6" transform="translate(61.126 48.135)" fill="#e0e0e0"/>
        <rect id="Rectangle_73" data-name="Rectangle 73" width="16.082" height="8.577" rx="2.54" transform="translate(72.728 61.542)" fill="#f7941d"/>
        <rect id="Rectangle_74" data-name="Rectangle 74" width="23.16" height="8.227" rx="1.04" transform="translate(69.222 65.261)" fill="#f7941d"/>
        <path id="Path_427" data-name="Path 427" d="M374.747,164.42a18.044,18.044,0,0,1,.164,2.861v.164h-.17c-1.969.049-4.846.082-8.041.082s-6.077-.033-8.041-.082h-.175v-.164a16.793,16.793,0,0,1,.17-2.861,16.805,16.805,0,0,1,.169,2.861l-.169-.17c1.964-.049,4.841-.082,8.041-.082s6.072.033,8.041.082l-.17.17A16.8,16.8,0,0,1,374.747,164.42Z" transform="translate(-285.938 -99.159)" fill="#263238"/>
        <path id="Path_428" data-name="Path 428" d="M358.462,172.739a16.1,16.1,0,0,1-.252-3.982,16.037,16.037,0,0,1,.252-3.977,16.041,16.041,0,0,1,.252,3.977A15.79,15.79,0,0,1,358.462,172.739Z" transform="translate(-285.816 -99.322)" fill="#263238"/>
        <path id="Path_429" data-name="Path 429" d="M388.036,173.118a15.08,15.08,0,0,1-.246-3.829,15.08,15.08,0,0,1,.246-3.829,14.925,14.925,0,0,1,.252,3.829A14.634,14.634,0,0,1,388.036,173.118Z" transform="translate(-299.216 -99.63)" fill="#263238"/>
        <rect id="Rectangle_75" data-name="Rectangle 75" width="39.345" height="39.345" rx="4.6" transform="translate(105.64 48.135)" fill="#e0e0e0"/>
        <rect id="Rectangle_76" data-name="Rectangle 76" width="16.082" height="8.577" rx="2.54" transform="translate(117.242 61.542)" fill="#455a64"/>
        <rect id="Rectangle_77" data-name="Rectangle 77" width="23.16" height="8.227" rx="1.04" transform="translate(113.736 65.261)" fill="#455a64"/>
        <path id="Path_430" data-name="Path 430" d="M456.122,164.42a16.806,16.806,0,0,1,.17,2.861v.164h-.175c-1.964.049-4.841.082-8.035.082s-6.077-.033-8.041-.082h-.175v-.164a16.805,16.805,0,0,1,.17-2.861,17.539,17.539,0,0,1,.17,2.861l-.17-.17c1.964-.049,4.841-.082,8.041-.082s6.072.033,8.035.082l-.169.17A17.536,17.536,0,0,1,456.122,164.42Z" transform="translate(-322.804 -99.159)" fill="#263238"/>
        <path id="Path_431" data-name="Path 431" d="M439.842,172.739a16.1,16.1,0,0,1-.252-3.982,16.036,16.036,0,0,1,.252-3.977,16.046,16.046,0,0,1,.252,3.977A16.11,16.11,0,0,1,439.842,172.739Z" transform="translate(-322.682 -99.322)" fill="#263238"/>
        <path id="Path_432" data-name="Path 432" d="M469.412,173.118a14.923,14.923,0,0,1-.252-3.829,14.923,14.923,0,0,1,.252-3.829,14.921,14.921,0,0,1,.252,3.829A14.634,14.634,0,0,1,469.412,173.118Z" transform="translate(-336.077 -99.63)" fill="#263238"/>
        <rect id="Rectangle_78" data-name="Rectangle 78" width="39.345" height="39.345" rx="4.6" transform="translate(16.618 97.638)" fill="#e0e0e0"/>
        <path id="Path_433" data-name="Path 433" d="M277.2,251.986l1.832,6.389,12.581.049,2.008-6.115a5.41,5.41,0,0,0-2.161-.252l-.219-6.81a.93.93,0,0,0-1.3-.831l-1.225.547H281.6l-.815-.41a.919.919,0,0,0-1.335.826V252.1A5.393,5.393,0,0,0,277.2,251.986Z" transform="translate(-249.118 -135.362)" fill="#f7941d"/>
        <rect id="Rectangle_79" data-name="Rectangle 79" width="0.662" height="5.815" transform="translate(29.902 123.014) rotate(0.24)" fill="#263238"/>
        <rect id="Rectangle_80" data-name="Rectangle 80" width="0.662" height="2.97" transform="translate(32.226 123.04) rotate(0.24)" fill="#263238"/>
        <rect id="Rectangle_81" data-name="Rectangle 81" width="0.662" height="2.97" transform="translate(38.889 123.068) rotate(0.24)" fill="#263238"/>
        <rect id="Rectangle_82" data-name="Rectangle 82" width="0.662" height="5.815" transform="translate(41.837 123.064) rotate(0.24)" fill="#263238"/>
        <path id="Path_434" data-name="Path 434" d="M285.359,255.215c-.049,0-.082-2.188-.071-4.863s.066-4.863.115-4.863.082,2.188.071,4.863S285.409,255.215,285.359,255.215Z" transform="translate(-252.781 -135.884)" fill="#263238"/>
        <path id="Path_435" data-name="Path 435" d="M298.339,255.275c-.049,0-.082-2.188-.071-4.863s.066-4.863.115-4.863.082,2.188.071,4.863S298.394,255.275,298.339,255.275Z" transform="translate(-258.661 -135.911)" fill="#263238"/>
        <path id="Path_436" data-name="Path 436" d="M293.266,258.419a1.571,1.571,0,0,1-.323.1l-.18.044-.2.077-.241.088-.252.137a2.62,2.62,0,0,0-1,1.006,3.145,3.145,0,0,0-.35,1.772v.093h-3.446l-3.769-.027h-.077v-.077a3.461,3.461,0,0,0-.438-1.641,3.663,3.663,0,0,0-.8-1,4.994,4.994,0,0,0-.979-.618,1.409,1.409,0,0,1,.3.1,3.22,3.22,0,0,1,.744.449,3.644,3.644,0,0,1,.881,1.023,3.463,3.463,0,0,1,.481,1.679l-.082-.077h7.127l-.082.093a3.282,3.282,0,0,1,.366-1.827,2.664,2.664,0,0,1,1.094-1.023l.263-.126.246-.082.213-.071.181-.033A1.926,1.926,0,0,1,293.266,258.419Z" transform="translate(-250.934 -141.719)" fill="#263238"/>
        <path id="Path_437" data-name="Path 437" d="M283.164,264.387c0,.027-.235.071-.585.23a3.03,3.03,0,0,0-1.149.908,3.1,3.1,0,0,0-.547,1.357,5.856,5.856,0,0,1-.066.624,1.328,1.328,0,0,1-.06-.64,2.821,2.821,0,0,1,.547-1.45,2.789,2.789,0,0,1,1.253-.919A1.258,1.258,0,0,1,283.164,264.387Z" transform="translate(-250.722 -144.443)" fill="#263238"/>
        <path id="Path_438" data-name="Path 438" d="M300.94,267.588c-.027,0-.033-.268-.137-.684a3.572,3.572,0,0,0-.744-1.455,3.621,3.621,0,0,0-1.318-.957c-.394-.164-.656-.208-.651-.235a1.459,1.459,0,0,1,.695.12,3.227,3.227,0,0,1,2.144,2.5A1.472,1.472,0,0,1,300.94,267.588Z" transform="translate(-258.581 -144.384)" fill="#263238"/>
        <rect id="Rectangle_83" data-name="Rectangle 83" width="39.345" height="39.345" rx="4.6" transform="translate(61.126 97.638)" fill="#e0e0e0"/>
        <rect id="Rectangle_84" data-name="Rectangle 84" width="39.345" height="39.345" rx="4.6" transform="translate(105.64 97.638)" fill="#92278f"/>
        <path id="Path_545" data-name="Path 545" d="M2.516,0H36.829a2.516,2.516,0,0,1,2.516,2.516V36.829a2.516,2.516,0,0,1-2.516,2.516H2.516A2.516,2.516,0,0,1,0,36.829V2.516A2.516,2.516,0,0,1,2.516,0Z" transform="translate(16.618 147.141)" fill="#92278f"/>
        <rect id="Rectangle_86" data-name="Rectangle 86" width="39.345" height="39.345" rx="4.6" transform="translate(61.126 147.141)" fill="#e0e0e0"/>
        <rect id="Rectangle_87" data-name="Rectangle 87" width="39.345" height="39.345" rx="4.6" transform="translate(105.64 147.141)" fill="#e0e0e0"/>
        <ellipse id="Ellipse_1" data-name="Ellipse 1" cx="1.411" cy="1.411" rx="1.411" ry="1.411" transform="translate(74.473 196.649)" fill="#263238"/>
        <path id="Path_439" data-name="Path 439" d="M375.242,406.027a1.411,1.411,0,1,1-.411-1A1.411,1.411,0,0,1,375.242,406.027Z" transform="translate(-292.253 -207.967)" fill="#263238"/>
        <path id="Path_440" data-name="Path 440" d="M385.653,406.027a1.417,1.417,0,1,1-1.411-1.417A1.417,1.417,0,0,1,385.653,406.027Z" transform="translate(-296.964 -207.967)" fill="#263238"/>
        <path id="Path_441" data-name="Path 441" d="M266.562,105.147h-7.2a.273.273,0,0,1,0-.547h7.2a.273.273,0,1,1,0,.547Z" transform="translate(-240.914 -72.06)" fill="#263238"/>
        <path id="Path_442" data-name="Path 442" d="M261.792,105.555a.284.284,0,0,1-.159-.049l-3.233-2.3a.268.268,0,0,1-.12-.224.3.3,0,0,1,.12-.224l3.331-2.27a.274.274,0,1,1,.306.449l-3,2.051,2.921,2.073a.274.274,0,0,1-.159.5Z" transform="translate(-240.547 -70.164)" fill="#263238"/>
        <path id="Path_443" data-name="Path 443" d="M479.122,105.2h-7.2a.273.273,0,1,1,0-.547h7.2a.273.273,0,1,1,0,.547Z" transform="translate(-337.205 -72.082)" fill="#263238"/>
        <path id="Path_444" data-name="Path 444" d="M479.773,105.568a.284.284,0,0,1-.23-.12.279.279,0,0,1,.071-.377l3.008-2.057-2.915-2.068a.279.279,0,0,1-.066-.383.273.273,0,0,1,.383-.066l3.233,2.3a.246.246,0,0,1,.115.224.284.284,0,0,1-.115.224l-3.331,2.27A.279.279,0,0,1,479.773,105.568Z" transform="translate(-340.76 -70.178)" fill="#263238"/>
        <rect id="Rectangle_88" data-name="Rectangle 88" width="16.229" height="10.841" rx="2.39" transform="translate(29.237 162.796) rotate(-0.1)" fill="#e0e0e0"/>
        <path id="Path_445" data-name="Path 445" d="M292.555,340.515a1,1,0,0,1,0-.208q0-.241.033-.591a13.28,13.28,0,0,0,0-2.188,4.885,4.885,0,0,0-1.242-2.866,3.222,3.222,0,0,0-1.6-.892,8.981,8.981,0,0,0-2.018-.17,5.838,5.838,0,0,0-3.676,1.05,3.556,3.556,0,0,0-1.006,1.34,5.083,5.083,0,0,0-.377,1.428,10.819,10.819,0,0,0,0,2.188q.033.361.049.591v.208a.842.842,0,0,1-.044-.2c0-.131-.049-.334-.082-.585a9.842,9.842,0,0,1-.066-2.188,5.23,5.23,0,0,1,.372-1.477,3.645,3.645,0,0,1,1.034-1.411,4.531,4.531,0,0,1,1.734-.859,8.5,8.5,0,0,1,2.057-.246,9.163,9.163,0,0,1,2.062.175,3.376,3.376,0,0,1,1.685.952,4.967,4.967,0,0,1,1.253,2.976,11.249,11.249,0,0,1-.044,2.188,3.723,3.723,0,0,1-.066.585,1.319,1.319,0,0,1-.055.2Z" transform="translate(-251.514 -175.723)" fill="#263238"/>
        <rect id="Rectangle_89" data-name="Rectangle 89" width="16.229" height="10.841" rx="2.39" transform="translate(27.185 162.745) rotate(-0.1)" fill="#fafafa"/>
        <path id="Path_446" data-name="Path 446" d="M290.4,353.261a1.737,1.737,0,0,0,.509-.126,1.248,1.248,0,0,0,.487-.383,1.264,1.264,0,0,0,.274-.788c0-1.324,0-3.222-.038-5.563V343.59a1.236,1.236,0,0,0-.448-.82,1.307,1.307,0,0,0-.941-.268H276.779a1.214,1.214,0,0,0-1.034.585,1.144,1.144,0,0,0-.175.58v8.1a1.64,1.64,0,0,0,.06.547,1.3,1.3,0,0,0,.263.454,1.214,1.214,0,0,0,.935.4h11.558l-5.563.044h-6.017a1.389,1.389,0,0,1-1.067-.449,1.339,1.339,0,0,1-.3-.52,1.73,1.73,0,0,1-.071-.6v-8.112a1.363,1.363,0,0,1,.2-.667,1.406,1.406,0,0,1,1.2-.673h13.451a1.455,1.455,0,0,1,1.039.312,1.362,1.362,0,0,1,.5.924v8.391a1.346,1.346,0,0,1-.3.826,1.324,1.324,0,0,1-.52.383A1.033,1.033,0,0,1,290.4,353.261Z" transform="translate(-248.286 -179.69)" fill="#263238"/>
        <rect id="Rectangle_90" data-name="Rectangle 90" width="16.229" height="10.841" rx="2.39" transform="translate(73.39 162.795) rotate(-0.1)" fill="#f7941d"/>
        <path id="Path_447" data-name="Path 447" d="M373.275,340.515a1,1,0,0,1,0-.208q0-.241.033-.591a13.267,13.267,0,0,0,0-2.188,4.885,4.885,0,0,0-1.242-2.866,3.222,3.222,0,0,0-1.6-.892,8.982,8.982,0,0,0-2.018-.17,5.838,5.838,0,0,0-3.676,1.05,3.555,3.555,0,0,0-1.006,1.34,5.079,5.079,0,0,0-.377,1.428,10.805,10.805,0,0,0,0,2.188q.033.361.049.591v.208a.842.842,0,0,1-.044-.2c0-.131-.049-.334-.082-.585a9.849,9.849,0,0,1-.066-2.188,5.228,5.228,0,0,1,.372-1.477,3.643,3.643,0,0,1,1.034-1.411,4.529,4.529,0,0,1,1.734-.859,8.5,8.5,0,0,1,2.057-.246,9.162,9.162,0,0,1,2.062.175,3.375,3.375,0,0,1,1.685.952,4.967,4.967,0,0,1,1.253,2.976,11.249,11.249,0,0,1-.044,2.188,3.717,3.717,0,0,1-.066.585.815.815,0,0,1-.055.2Z" transform="translate(-288.081 -175.723)" fill="#263238"/>
        <rect id="Rectangle_91" data-name="Rectangle 91" width="16.229" height="10.841" rx="2.39" transform="translate(71.338 162.744) rotate(-0.1)" fill="#f7941d"/>
        <path id="Path_448" data-name="Path 448" d="M371.155,353.261a1.737,1.737,0,0,0,.509-.126,1.247,1.247,0,0,0,.487-.383,1.264,1.264,0,0,0,.274-.788c0-1.324,0-3.222-.038-5.563V343.59a1.237,1.237,0,0,0-.449-.82A1.307,1.307,0,0,0,371,342.5H357.534a1.214,1.214,0,0,0-1.034.585,1.144,1.144,0,0,0-.175.58v8.1a1.642,1.642,0,0,0,.06.547,1.3,1.3,0,0,0,.263.454,1.22,1.22,0,0,0,.941.4h11.542l-5.563.044H357.6a1.389,1.389,0,0,1-1.067-.449,1.34,1.34,0,0,1-.3-.52,1.722,1.722,0,0,1-.066-.6v-8.112a1.362,1.362,0,0,1,.2-.667,1.406,1.406,0,0,1,1.2-.673h13.45a1.455,1.455,0,0,1,1.039.312,1.39,1.39,0,0,1,.5.924c0,.345,0,.662,0,.985v7.406a1.318,1.318,0,0,1-.82,1.209A1.033,1.033,0,0,1,371.155,353.261Z" transform="translate(-284.889 -179.69)" fill="#263238"/>
        <rect id="Rectangle_92" data-name="Rectangle 92" width="16.229" height="10.841" rx="2.39" transform="translate(119.293 162.792) rotate(-0.1)" fill="#455a64"/>
        <path id="Path_449" data-name="Path 449" d="M457.195,340.515a1,1,0,0,1,0-.208q0-.241.033-.591a13.287,13.287,0,0,0,0-2.188,4.923,4.923,0,0,0-1.242-2.866,3.222,3.222,0,0,0-1.6-.892,9.009,9.009,0,0,0-2.018-.17,5.855,5.855,0,0,0-3.681,1.05,3.6,3.6,0,0,0-1,1.34,5.079,5.079,0,0,0-.377,1.428,10.8,10.8,0,0,0,0,2.188q.033.361.049.591a.1.1,0,1,1-.044.005c0-.131-.049-.334-.082-.585a9.841,9.841,0,0,1-.066-2.188,5.047,5.047,0,0,1,.372-1.477,3.59,3.59,0,0,1,1.034-1.411,4.529,4.529,0,0,1,1.734-.859,8.44,8.44,0,0,1,2.057-.246,9.159,9.159,0,0,1,2.062.175,3.4,3.4,0,0,1,1.685.952,4.923,4.923,0,0,1,1.247,2.976,10.891,10.891,0,0,1-.038,2.188,3.716,3.716,0,0,1-.066.585A1.32,1.32,0,0,1,457.195,340.515Z" transform="translate(-326.097 -175.723)" fill="#263238"/>
        <rect id="Rectangle_93" data-name="Rectangle 93" width="16.229" height="10.841" rx="2.39" transform="translate(117.242 162.741) rotate(-0.1)" fill="#455a64"/>
        <path id="Path_450" data-name="Path 450" d="M455.062,353.261a1.736,1.736,0,0,0,.509-.126,1.247,1.247,0,0,0,.487-.383,1.263,1.263,0,0,0,.274-.788c0-1.324,0-3.222-.038-5.563V343.59a1.226,1.226,0,0,0-.454-.82,1.285,1.285,0,0,0-.935-.268H441.442a1.214,1.214,0,0,0-1.034.585,1.144,1.144,0,0,0-.175.58v8.1a1.642,1.642,0,0,0,.06.547,1.226,1.226,0,0,0,1.2.853h11.531l-5.557.044h-5.973a1.383,1.383,0,0,1-1.061-.449,1.42,1.42,0,0,1-.306-.52,1.865,1.865,0,0,1-.066-.6v-8.112a1.361,1.361,0,0,1,.2-.667,1.4,1.4,0,0,1,1.192-.673h13.456a1.455,1.455,0,0,1,1.039.312,1.362,1.362,0,0,1,.5.924v8.391a1.346,1.346,0,0,1-.3.826,1.324,1.324,0,0,1-.52.383A1.034,1.034,0,0,1,455.062,353.261Z" transform="translate(-322.892 -179.69)" fill="#263238"/>
        <path id="Path_451" data-name="Path 451" d="M360,253.966l1.832,6.411,12.581.055,2-6.137a5.345,5.345,0,0,0-2.161-.246l-.208-6.8a.935.935,0,0,0-1.3-.831l-1.225.547-7.111-.033-.815-.41a.919.919,0,0,0-1.335.826v6.728A5.312,5.312,0,0,0,360,253.966Z" transform="translate(-286.627 -136.27)" fill="#455a64"/>
        <rect id="Rectangle_94" data-name="Rectangle 94" width="0.662" height="5.815" transform="translate(75.193 124.09) rotate(0.24)" fill="#263238"/>
        <rect id="Rectangle_95" data-name="Rectangle 95" width="0.662" height="2.97" transform="translate(77.529 124.094) rotate(0.24)" fill="#263238"/>
        <rect id="Rectangle_96" data-name="Rectangle 96" width="0.662" height="2.97" transform="translate(84.18 124.139) rotate(0.24)" fill="#263238"/>
        <rect id="Rectangle_97" data-name="Rectangle 97" width="0.662" height="5.815" transform="translate(87.117 124.156) rotate(0.24)" fill="#263238"/>
        <path id="Path_452" data-name="Path 452" d="M368.159,257.185c-.049,0-.082-2.188-.071-4.863s.06-4.863.115-4.863.077,2.188.066,4.863S368.209,257.185,368.159,257.185Z" transform="translate(-290.29 -136.776)" fill="#263238"/>
        <path id="Path_453" data-name="Path 453" d="M381.139,257.235c-.049,0-.082-2.188-.071-4.863s.06-4.863.115-4.863.082,2.188.066,4.863S381.189,257.235,381.139,257.235Z" transform="translate(-296.17 -136.799)" fill="#263238"/>
        <path id="Path_454" data-name="Path 454" d="M376.052,260.4a2.771,2.771,0,0,1-.328.093l-.175.044-.208.082-.235.088-.252.137a2.566,2.566,0,0,0-1,1,3.162,3.162,0,0,0-.35,1.778v.087h-7.291v-.077a3.414,3.414,0,0,0-.432-1.641,3.631,3.631,0,0,0-.826-1.012,4.988,4.988,0,0,0-.979-.618,1.451,1.451,0,0,1,.29.093,3.325,3.325,0,0,1,.749.448,3.671,3.671,0,0,1,.881,1.028,3.522,3.522,0,0,1,.481,1.679l-.082-.082h7.127l-.082.093a3.282,3.282,0,0,1,.394-1.86,2.653,2.653,0,0,1,1.067-1.023l.268-.131.246-.082.213-.066.18-.033A1.426,1.426,0,0,1,376.052,260.4Z" transform="translate(-288.43 -142.62)" fill="#263238"/>
        <path id="Path_455" data-name="Path 455" d="M365.977,266.348c0,.033-.235.077-.585.235a2.937,2.937,0,0,0-1.718,2.265,6.1,6.1,0,0,1-.066.624,1.368,1.368,0,0,1-.06-.64,2.736,2.736,0,0,1,.547-1.45,2.807,2.807,0,0,1,1.247-.919A1.334,1.334,0,0,1,365.977,266.348Z" transform="translate(-288.228 -145.331)" fill="#263238"/>
        <path id="Path_456" data-name="Path 456" d="M383.735,269.548c-.027,0-.033-.268-.137-.678a3.539,3.539,0,0,0-.744-1.455,3.6,3.6,0,0,0-1.324-.957c-.388-.164-.656-.213-.651-.241a1.477,1.477,0,0,1,.7.12,3.249,3.249,0,0,1,2.144,2.505A1.443,1.443,0,0,1,383.735,269.548Z" transform="translate(-296.085 -145.272)" fill="#263238"/>
        <path id="Path_457" data-name="Path 457" d="M441.64,250.894l1.838,6.394,12.581.055,2.008-6.121a5.41,5.41,0,0,0-2.161-.252l-.2-6.794a.935.935,0,0,0-1.307-.831l-1.225.547-7.083-.027-.815-.41a.919.919,0,0,0-1.34.826V251A5.393,5.393,0,0,0,441.64,250.894Z" transform="translate(-323.61 -134.878)" fill="#fafafa"/>
        <rect id="Rectangle_98" data-name="Rectangle 98" width="0.662" height="5.815" transform="translate(119.851 122.406) rotate(0.24)" fill="#263238"/>
        <rect id="Rectangle_99" data-name="Rectangle 99" width="0.662" height="2.97" transform="translate(122.186 122.416) rotate(0.24)" fill="#263238"/>
        <rect id="Rectangle_100" data-name="Rectangle 100" width="0.662" height="2.97" transform="translate(128.848 122.444) rotate(0.24)" fill="#263238"/>
        <rect id="Rectangle_101" data-name="Rectangle 101" width="0.662" height="5.815" transform="translate(131.769 122.478) rotate(0.24)" fill="#263238"/>
        <path id="Path_458" data-name="Path 458" d="M449.8,254.11c-.049,0-.077-2.188-.066-4.863s.06-4.857.109-4.857.082,2.188.071,4.863S449.88,254.11,449.8,254.11Z" transform="translate(-327.278 -135.386)" fill="#263238"/>
        <path id="Path_459" data-name="Path 459" d="M462.789,254.165c-.055,0-.082-2.188-.071-4.863s.06-4.863.109-4.863.082,2.188.071,4.863S462.838,254.165,462.789,254.165Z" transform="translate(-333.158 -135.408)" fill="#263238"/>
        <path id="Path_460" data-name="Path 460" d="M457.683,257.323a1.44,1.44,0,0,1-.323.1l-.181.044-.2.077-.241.087-.252.137a2.62,2.62,0,0,0-1,1.007,3.15,3.15,0,0,0-.35,1.772v.093h-7.3v-.077a3.4,3.4,0,0,0-.438-1.641,3.665,3.665,0,0,0-.826-1.017,4.6,4.6,0,0,0-.979-.613.847.847,0,0,1,.3.093,3.217,3.217,0,0,1,.744.448,3.719,3.719,0,0,1,.881,1.023,3.5,3.5,0,0,1,.481,1.679l-.082-.077h7.127l-.082.093a3.249,3.249,0,0,1,.4-1.865,2.571,2.571,0,0,1,1.067-1.017l.263-.131.246-.082.213-.066.186-.033A2.519,2.519,0,0,1,457.683,257.323Z" transform="translate(-325.404 -141.229)" fill="#263238"/>
        <path id="Path_461" data-name="Path 461" d="M447.585,263.276c0,.027-.235.071-.58.23a2.932,2.932,0,0,0-1.718,2.265c-.06.377-.038.624-.066.624a1.2,1.2,0,0,1-.066-.635,2.789,2.789,0,0,1,.547-1.455,2.7,2.7,0,0,1,1.247-.913A1.231,1.231,0,0,1,447.585,263.276Z" transform="translate(-325.196 -143.939)" fill="#263238"/>
        <path id="Path_462" data-name="Path 462" d="M465.38,266.478c-.027,0-.033-.268-.137-.684a3.474,3.474,0,0,0-2.062-2.407c-.394-.17-.656-.213-.651-.241a1.46,1.46,0,0,1,.695.12,3.225,3.225,0,0,1,2.144,2.5A1.471,1.471,0,0,1,465.38,266.478Z" transform="translate(-333.074 -143.881)" fill="#263238"/>
        <path id="Path_463" data-name="Path 463" d="M340,102.714a2.155,2.155,0,0,1,2.292-2.188,2.188,2.188,0,0,1,1.789.788l-.749.678a1.226,1.226,0,0,0-.979-.487,1.192,1.192,0,0,0,0,2.379,1.242,1.242,0,0,0,.979-.487l.749.678a2.188,2.188,0,0,1-1.789.782A2.155,2.155,0,0,1,340,102.714Z" transform="translate(-277.566 -70.212)" fill="#263238"/>
        <path id="Path_464" data-name="Path 464" d="M350.693,104.079h-1.761l-.328.81h-1.2l1.843-4.168h1.16l1.843,4.168H351.01Zm-.345-.87-.547-1.329-.547,1.329Z" transform="translate(-280.919 -70.302)" fill="#263238"/>
        <path id="Path_465" data-name="Path 465" d="M357.05,101.655h-1.28v-.935h3.73v.935h-1.274v3.233H357.05Z" transform="translate(-284.71 -70.302)" fill="#263238"/>
        <path id="Path_466" data-name="Path 466" d="M365.393,104.079h-1.761l-.328.81h-1.2l1.838-4.168h1.16l1.849,4.168h-1.225Zm-.345-.87-.547-1.329-.547,1.329Z" transform="translate(-287.578 -70.302)" fill="#263238"/>
        <path id="Path_467" data-name="Path 467" d="M371.57,100.72h1.176v3.233h1.986v.935H371.57Z" transform="translate(-291.868 -70.302)" fill="#263238"/>
        <path id="Path_468" data-name="Path 468" d="M377.687,102.5A2.319,2.319,0,1,1,380,104.688a2.188,2.188,0,0,1-2.314-2.188Zm3.441,0A1.127,1.127,0,1,0,380,103.693a1.094,1.094,0,0,0,1.138-1.192Z" transform="translate(-294.637 -69.998)" fill="#263238"/>
        <path id="Path_469" data-name="Path 469" d="M389.745,102.642h1.039v1.723a3.068,3.068,0,0,1-1.75.547,2.188,2.188,0,1,1,.027-4.332,2.286,2.286,0,0,1,1.821.76l-.749.678a1.319,1.319,0,0,0-1.012-.459,1.192,1.192,0,0,0,0,2.379,1.531,1.531,0,0,0,.64-.137Z" transform="translate(-298.655 -70.228)" fill="#263238"/>
        <path id="Path_470" data-name="Path 470" d="M395.6,103.084V100.77h1.176v2.275c0,.717.3,1,.793,1s.782-.284.782-1V100.77h1.165v2.314a1.958,1.958,0,0,1-3.917,0Z" transform="translate(-302.754 -70.324)" fill="#263238"/>
        <path id="Path_471" data-name="Path 471" d="M407.558,103.98v.908H404.21V100.72h3.282v.913h-2.106v.7h1.854v.881h-1.854v.766Z" transform="translate(-306.654 -70.302)" fill="#263238"/>
        <path id="Path_472" data-name="Path 472" d="M379.053,114.212c0,.077-10.037.142-22.427.142s-22.427-.066-22.427-.142,10.037-.142,22.427-.142S379.053,114.13,379.053,114.212Z" transform="translate(-274.939 -76.35)" fill="#e0e0e0"/>
        <path id="Path_473" data-name="Path 473" d="M376.475,117.532c0,.077-3.282.142-7.362.142s-7.363-.066-7.363-.142,3.282-.142,7.363-.142S376.475,117.45,376.475,117.532Z" transform="translate(-287.419 -77.854)" fill="#e0e0e0"/>
      </g>
    </g>
  </g>
</svg>
