<svg xmlns="http://www.w3.org/2000/svg" viewBox="0 0 500 500"><g id="freepik--Screen--inject-2"><path d="M327.62,118.37V414.84a4.33,4.33,0,0,1-4.39,4.34h-138a3.84,3.84,0,0,1-2.76-1.11,4,4,0,0,1-1.17-2.87V118a3.5,3.5,0,0,1,3.36-3.63h39.19a2.76,2.76,0,0,1,2.52,1.76l1.63,4a2.75,2.75,0,0,0,2.52,1.75h48a2.73,2.73,0,0,0,2.52-1.72l1.63-4a2.76,2.76,0,0,1,2.52-1.77h38.62A4,4,0,0,1,327.62,118.37Z" style="fill:#407BFF"></path><rect x="199.51" y="123.6" width="2.04" height="2.72" transform="translate(401.06 249.92) rotate(180)" style="fill:#fff;opacity:0.6000000000000001;isolation:isolate"></rect><rect x="196.19" y="122.69" width="2.04" height="3.62" transform="translate(394.41 249.01) rotate(180)" style="fill:#fff;opacity:0.6000000000000001;isolation:isolate"></rect><rect x="192.86" y="121.79" width="2.04" height="4.53" transform="translate(387.77 248.11) rotate(180)" style="fill:#fff;opacity:0.6000000000000001;isolation:isolate"></rect><rect x="189.54" y="120.88" width="2.04" height="5.44" transform="translate(381.12 247.2) rotate(180)" style="fill:#fff;opacity:0.6000000000000001;isolation:isolate"></rect><rect x="307.73" y="122.61" width="1.21" height="2.72" style="fill:#fff;opacity:0.6000000000000001;isolation:isolate"></rect><rect x="309.77" y="121.62" width="9.63" height="4.7" transform="translate(629.18 247.94) rotate(180)" style="fill:#fff;opacity:0.6000000000000001;isolation:isolate"></rect><g style="opacity:0.1;isolation:isolate"><path d="M247.14,121.88,205,279.64h0l-.47,1.78h0l-.76,2.85h0l-.48,1.77-22,82.38v-99.7l41.21-154.36h1.34a2.75,2.75,0,0,1,2.52,1.76l1.63,4a2.74,2.74,0,0,0,2.52,1.75Z" style="fill:#fff"></path><polygon points="327.62 202.45 327.62 302.15 301.36 400.55 300.72 402.94 296.38 419.18 269.77 419.18 274.1 402.95 274.8 400.35 278.27 387.31 278.97 384.7 280.37 379.49 281.06 376.88 282.45 371.67 283.14 369.06 305.04 287.04 305.04 287.03 306.05 283.25 306.05 283.24 327.62 202.45" style="fill:#fff"></polygon><path d="M261.56,121.88,219.71,278.66l-.26.94-2.29,8.59-.25.94L182.49,418.07a4,4,0,0,1-1.17-2.87V400l29.61-110.91.25-.94,2.29-8.59.25-.94,41.86-156.78Z" style="fill:#fff"></path></g><rect x="181.32" y="133.7" width="146.3" height="272.35" style="fill:#fff;opacity:0.30000000000000004;isolation:isolate"></rect><path d="M299.47,253.38h0a5.1,5.1,0,0,0,5.1-5.1V167.83a5.1,5.1,0,0,0-5.1-5.09h0a5.1,5.1,0,0,0-5.1,5.09v80.45A5.1,5.1,0,0,0,299.47,253.38Z" style="fill:#407BFF"></path><path d="M299.47,251.38a3.1,3.1,0,0,1-3.1-3.1V167.83a3.1,3.1,0,0,1,6.2,0v80.45A3.1,3.1,0,0,1,299.47,251.38Z" style="opacity:0.30000000000000004;isolation:isolate"></path><circle cx="299.47" cy="175.76" r="7.39" transform="translate(78.01 443.21) rotate(-80.78)" style="fill:#407BFF"></circle><path d="M269.47,253.38h0a5.1,5.1,0,0,0,5.1-5.1V167.83a5.1,5.1,0,0,0-5.1-5.09h0a5.1,5.1,0,0,0-5.1,5.09v80.45A5.1,5.1,0,0,0,269.47,253.38Z" style="fill:#407BFF"></path><path d="M269.47,251.38a3.1,3.1,0,0,1-3.1-3.1V167.83a3.1,3.1,0,0,1,6.2,0v80.45A3.1,3.1,0,0,1,269.47,251.38Z" style="opacity:0.30000000000000004;isolation:isolate"></path><circle cx="269.47" cy="235.76" r="7.39" transform="translate(-6.41 463.98) rotate(-80.78)" style="fill:#407BFF"></circle><path d="M239.47,253.38h0a5.1,5.1,0,0,0,5.1-5.1V167.83a5.1,5.1,0,0,0-5.1-5.09h0a5.1,5.1,0,0,0-5.1,5.09v80.45A5.1,5.1,0,0,0,239.47,253.38Z" style="fill:#407BFF"></path><path d="M239.47,251.38a3.1,3.1,0,0,1-3.1-3.1V167.83a3.1,3.1,0,0,1,6.2,0v80.45A3.1,3.1,0,0,1,239.47,251.38Z" style="opacity:0.30000000000000004;isolation:isolate"></path><circle cx="239.47" cy="195.76" r="7.39" transform="translate(7.88 400.78) rotate(-80.78)" style="fill:#407BFF"></circle><path d="M209.47,253.38h0a5.1,5.1,0,0,0,5.1-5.1V167.83a5.1,5.1,0,0,0-5.1-5.09h0a5.1,5.1,0,0,0-5.1,5.09v80.45A5.1,5.1,0,0,0,209.47,253.38Z" style="fill:#407BFF"></path><path d="M209.47,251.38a3.1,3.1,0,0,1-3.1-3.1V167.83a3.1,3.1,0,0,1,6.2,0v80.45A3.1,3.1,0,0,1,209.47,251.38Z" style="opacity:0.30000000000000004;isolation:isolate"></path><circle cx="209.47" cy="225.76" r="7.39" transform="translate(-46.93 396.36) rotate(-80.78)" style="fill:#407BFF"></circle><circle cx="299.47" cy="175.76" r="7.39" transform="translate(78.01 443.21) rotate(-80.78)" style="fill:#fff;opacity:0.6000000000000001"></circle><path d="M299.47,181.15a5.39,5.39,0,1,1,5.39-5.39A5.4,5.4,0,0,1,299.47,181.15Z" style="fill:#fff;opacity:0.6000000000000001"></path><circle cx="269.47" cy="235.76" r="7.39" transform="translate(-6.41 463.98) rotate(-80.78)" style="fill:#fff;opacity:0.6000000000000001"></circle><path d="M269.47,241.15a5.39,5.39,0,1,1,5.39-5.39A5.4,5.4,0,0,1,269.47,241.15Z" style="fill:#fff;opacity:0.6000000000000001"></path><circle cx="239.47" cy="195.76" r="7.39" transform="translate(7.88 400.78) rotate(-80.78)" style="fill:#fff;opacity:0.6000000000000001"></circle><path d="M239.47,201.15a5.39,5.39,0,1,1,5.39-5.39A5.4,5.4,0,0,1,239.47,201.15Z" style="fill:#fff;opacity:0.6000000000000001"></path><circle cx="209.47" cy="225.76" r="7.39" transform="translate(-46.93 396.36) rotate(-80.78)" style="fill:#fff;opacity:0.6000000000000001"></circle><path d="M209.47,231.15a5.39,5.39,0,1,1,5.39-5.39A5.4,5.4,0,0,1,209.47,231.15Z" style="fill:#fff;opacity:0.6000000000000001"></path><rect x="188.39" y="271.56" width="132.16" height="123.8" rx="2.75" style="fill:#407BFF"></rect><rect x="188.39" y="271.56" width="132.16" height="123.8" rx="2.75" style="opacity:0.30000000000000004;isolation:isolate"></rect><path d="M242.55,351.81v10.64L248,363a28.25,28.25,0,0,0,4.08,9.82l-3.52,4.26,7.53,7.52,4.25-3.52a28.24,28.24,0,0,0,9.83,4.09l.51,5.48h10.65l.51-5.48a28.24,28.24,0,0,0,9.83-4.09l4.25,3.52,7.53-7.52L300,372.79a28.46,28.46,0,0,0,4.09-9.82l5.48-.52V351.81l-5.48-.52a28.51,28.51,0,0,0-4.09-9.83l3.52-4.25L296,329.68l-4.25,3.52a28.41,28.41,0,0,0-9.83-4.08l-.51-5.48H270.71l-.51,5.48a28.41,28.41,0,0,0-9.83,4.08l-4.25-3.52-7.53,7.53,3.52,4.25a28.51,28.51,0,0,0-4.09,9.83ZM276,342.72a14.41,14.41,0,1,1-14.41,14.41A14.41,14.41,0,0,1,276,342.72Z" style="fill:#fff;opacity:0.6000000000000001"></path><path d="M199.41,321.25v8.34l4.3.4a22.06,22.06,0,0,0,3.2,7.7L204.15,341l5.9,5.89,3.33-2.76a22.24,22.24,0,0,0,7.7,3.21l.41,4.29h8.34l.4-4.29a22.16,22.16,0,0,0,7.7-3.21l3.33,2.76,5.9-5.89-2.76-3.34a22.08,22.08,0,0,0,3.21-7.7l4.29-.4v-8.34l-4.29-.41a22.24,22.24,0,0,0-3.21-7.7l2.76-3.33-5.9-5.9-3.33,2.76a22.33,22.33,0,0,0-7.7-3.2l-.4-4.3h-8.34l-.41,4.3a22.42,22.42,0,0,0-7.7,3.2l-3.33-2.76-5.9,5.9,2.76,3.33a22.22,22.22,0,0,0-3.2,7.7Zm26.25-7.12a11.29,11.29,0,1,1-11.29,11.29A11.29,11.29,0,0,1,225.66,314.13Z" style="fill:#fff;opacity:0.4"></path><path d="M245.92,295.5v7l3.61.34a18.89,18.89,0,0,0,2.69,6.47l-2.32,2.79,5,5,2.79-2.32a18.89,18.89,0,0,0,6.47,2.69l.34,3.61h7l.34-3.61a18.81,18.81,0,0,0,6.47-2.69l2.8,2.32,4.95-5-2.32-2.79a18.89,18.89,0,0,0,2.69-6.47l3.61-.34v-7l-3.61-.34a18.81,18.81,0,0,0-2.69-6.47l2.32-2.8-4.95-4.95-2.8,2.32a18.43,18.43,0,0,0-6.47-2.69l-.34-3.61h-7l-.34,3.61a18.51,18.51,0,0,0-6.47,2.69l-2.79-2.32-5,4.95,2.32,2.8a18.81,18.81,0,0,0-2.69,6.47Zm22.05-6a9.49,9.49,0,1,1-9.49,9.48A9.49,9.49,0,0,1,268,289.52Z" style="fill:#fff;opacity:0.2"></path><polygon points="233.69 323.26 227.81 317.38 219.78 319.54 217.62 327.57 223.5 333.45 231.54 331.3 233.69 323.26" style="fill:#fff;opacity:0.6000000000000001"></polygon><polygon points="277.33 346.91 267.83 350.89 266.54 361.11 274.74 367.35 284.24 363.36 285.54 353.14 277.33 346.91" style="fill:#fff;opacity:0.8"></polygon><polygon points="273.87 302.41 273.87 295.59 267.97 292.18 262.06 295.59 262.06 302.41 267.97 305.82 273.87 302.41" style="fill:#fff;opacity:0.4"></polygon></g></svg>