<svg xmlns="http://www.w3.org/2000/svg" xmlns:xlink="http://www.w3.org/1999/xlink" width="357.659" height="330.763" viewBox="0 0 357.659 330.763">
  <defs>
    <filter id="Rectangle_63" x="85.523" y="28.098" width="186.613" height="280.566" filterUnits="userSpaceOnUse">
      <feOffset dy="3" input="SourceAlpha"/>
      <feGaussianBlur stdDeviation="3" result="blur"/>
      <feFlood flood-opacity="0.161"/>
      <feComposite operator="in" in2="blur"/>
      <feComposite in="SourceGraphic"/>
    </filter>
  </defs>
  <g id="terms_conditions-purple" data-name="terms&amp;conditions-purple" transform="translate(778.406 -2067.736)">
    <g id="freepik--background-simple--inject-36" transform="translate(-820.607 2027.659)">
      <path id="Path_549" data-name="Path 549" d="M295.448,40.089c-32.885.563-58.24,27.454-86.39,44.464-42.507,25.685-97.1,30.9-133.007,65.217-24.577,23.523-36.709,58.937-33.279,92.769s22.013,65.548,48.886,86.4c17.135,13.285,37.245,22.245,57.766,29.258,20.8,7.093,42.454,12.355,64.431,12.632C244.31,371.213,274.23,362,301.782,349c19.163-9.032,37.638-20.074,52.71-34.967,14.241-14.062,25.158-31.34,32.635-49.9,18.484-45.884,15.545-98.478-.482-145.282C373.387,80.139,340.975,39.3,295.448,40.089Z" transform="translate(0)" fill="#92278f"/>
      <path id="Path_550" data-name="Path 550" d="M295.448,40.089c-32.885.563-58.24,27.454-86.39,44.464-42.507,25.685-97.1,30.9-133.007,65.217-24.577,23.523-36.709,58.937-33.279,92.769s22.013,65.548,48.886,86.4c17.135,13.285,37.245,22.245,57.766,29.258,20.8,7.093,42.454,12.355,64.431,12.632C244.31,371.213,274.23,362,301.782,349c19.163-9.032,37.638-20.074,52.71-34.967,14.241-14.062,25.158-31.34,32.635-49.9,18.484-45.884,15.545-98.478-.482-145.282C373.387,80.139,340.975,39.3,295.448,40.089Z" transform="translate(0)" fill="#fff" opacity="0.7"/>
    </g>
    <g id="Group_61" data-name="Group 61" transform="translate(-683.884 2101.835)">
      <path id="Path_314" data-name="Path 314" d="M234.5,163.338a8.733,8.733,0,0,1,.924-4.6,11.083,11.083,0,0,1,1.832-2.794,3.635,3.635,0,0,1,1.044-.909,21.853,21.853,0,0,0-2.523,3.86A21.513,21.513,0,0,0,234.5,163.338Z" transform="translate(-157.956 -113.94)" fill="#fafafa"/>
      <g transform="matrix(1, 0, 0, 1, -94.52, -34.1)" filter="url(#Rectangle_63)">
        <rect id="Rectangle_63-2" data-name="Rectangle 63" width="168.613" height="262.566" transform="translate(94.52 34.1)" fill="#fafafa"/>
      </g>
      <path id="Path_330" data-name="Path 330" d="M180.729,151.538H159.153a2.7,2.7,0,0,1-2.7-2.7V118.976a2.7,2.7,0,0,1,2.7-2.7h13.683l10.589,10.911v21.65a2.7,2.7,0,0,1-2.7,2.7Z" transform="translate(-138.524 -87.015)" fill="#92278f"/>
      <path id="Path_331" data-name="Path 331" d="M178.27,116.28v8.4a2.516,2.516,0,0,0,2.508,2.508h8.08Z" transform="translate(-143.958 -87.015)" fill="#92278f"/>
      <g id="Group_33" data-name="Group 33" transform="translate(34.425 38.404)" opacity="0.2">
        <path id="Path_332" data-name="Path 332" d="M178.42,128.45a2.786,2.786,0,0,0,2.208,2.711l.27.06c1.051.188,8,1.419,8,1.262V130.23h-8.08S178.8,130.155,178.42,128.45Z" transform="translate(-178.42 -128.45)"/>
      </g>
      <g id="Group_34" data-name="Group 34" transform="translate(34.312 29.265)" opacity="0.3">
        <path id="Path_333" data-name="Path 333" d="M178.27,116.28v8.4a2.516,2.516,0,0,0,2.508,2.508h8.08Z" transform="translate(-178.27 -116.28)" fill="#fff"/>
      </g>
      <path id="Path_334" data-name="Path 334" d="M172.55,126.928a32.53,32.53,0,0,1-4.994.2,32.386,32.386,0,0,1-4.986-.2,32.388,32.388,0,0,1,4.986-.2,32.53,32.53,0,0,1,4.994.2Z" transform="translate(-140.048 -89.612)" fill="#fafafa"/>
      <path id="Path_335" data-name="Path 335" d="M178.994,133.275c0,.105-3.672.2-8.208.2s-8.216-.09-8.216-.2,3.68-.2,8.216-.2S178.994,133.163,178.994,133.275Z" transform="translate(-140.048 -91.199)" fill="#fafafa"/>
      <path id="Path_336" data-name="Path 336" d="M180.473,138.555c0,.113-4,.2-8.952.2s-8.951-.083-8.951-.2,4.01-.2,8.951-.2S180.473,138.45,180.473,138.555Z" transform="translate(-140.048 -92.514)" fill="#fafafa"/>
      <path id="Path_337" data-name="Path 337" d="M180.473,143.545c0,.105-4,.2-8.952.2s-8.951-.09-8.951-.2,4.01-.2,8.951-.2S180.473,143.433,180.473,143.545Z" transform="translate(-140.048 -93.757)" fill="#fafafa"/>
      <path id="Path_338" data-name="Path 338" d="M180.473,148.525c0,.113-4,.2-8.952.2s-8.951-.083-8.951-.2,4.01-.2,8.951-.2S180.473,148.42,180.473,148.525Z" transform="translate(-140.048 -94.997)" fill="#fafafa"/>
      <path id="Path_339" data-name="Path 339" d="M180.473,153.515c0,.105-4,.2-8.952.2s-8.951-.09-8.951-.2,4.01-.2,8.951-.2S180.473,153.4,180.473,153.515Z" transform="translate(-140.048 -96.24)" fill="#fafafa"/>
      <path id="Path_354" data-name="Path 354" d="M207.685,153.52l-1.772,5.257h-.789l-1.457-4.19-1.449,4.22h-.8l-1.765-5.257h.751l1.427,4.3,1.5-4.3h.7l1.457,4.326,1.457-4.326Z" transform="translate(-149.282 -113.561)" fill="#e0e0e0"/>
      <path id="Path_355" data-name="Path 355" d="M214.512,157.463H211.26a1.367,1.367,0,0,0,1.457,1.171,1.5,1.5,0,0,0,1.149-.481l.406.466a2.028,2.028,0,0,1-1.585.646,2,2,0,0,1-2.148-2.043,1.96,1.96,0,0,1,2.005-2.043,1.937,1.937,0,0,1,1.983,2.065C214.527,157.3,214.52,157.4,214.512,157.463Zm-3.252-.518h2.568a1.292,1.292,0,0,0-2.568,0Z" transform="translate(-151.994 -113.975)" fill="#e0e0e0"/>
      <path id="Path_356" data-name="Path 356" d="M217.19,153.1h.751v5.6h-.751Z" transform="translate(-153.651 -113.457)" fill="#e0e0e0"/>
      <path id="Path_357" data-name="Path 357" d="M219.5,157.222a2.005,2.005,0,0,1,2.118-2.043,1.8,1.8,0,0,1,1.63.856l-.556.353a1.239,1.239,0,0,0-1.081-.571,1.412,1.412,0,0,0,0,2.816,1.239,1.239,0,0,0,1.081-.571l.556.345a1.8,1.8,0,0,1-1.63.856,2.005,2.005,0,0,1-2.118-2.043Z" transform="translate(-154.226 -113.974)" fill="#e0e0e0"/>
      <path id="Path_358" data-name="Path 358" d="M225.16,157.2a2.08,2.08,0,1,1,2.088,2.043,2,2,0,0,1-2.088-2.043Zm3.432,0a1.352,1.352,0,1,0-1.344,1.412,1.314,1.314,0,0,0,1.344-1.412Z" transform="translate(-155.635 -113.95)" fill="#e0e0e0"/>
      <path id="Path_359" data-name="Path 359" d="M238.659,156.92v2.3h-.751V157c0-.788-.383-1.172-1.036-1.172a1.2,1.2,0,0,0-1.2,1.329v2.058h-.751V157c0-.789-.383-1.172-1.036-1.172a1.2,1.2,0,0,0-1.2,1.329v2.058h-.751v-4h.8v.6a1.63,1.63,0,0,1,1.382-.638,1.5,1.5,0,0,1,1.389.751,1.81,1.81,0,0,1,1.539-.751,1.5,1.5,0,0,1,1.615,1.742Z" transform="translate(-157.321 -113.973)" fill="#e0e0e0"/>
      <path id="Path_360" data-name="Path 360" d="M246.175,157.463h-3.244a1.352,1.352,0,0,0,1.449,1.171,1.5,1.5,0,0,0,1.156-.481l.4.466a2.185,2.185,0,0,1-3.755-1.4,1.967,1.967,0,0,1,2.013-2.043,1.93,1.93,0,0,1,1.975,2.065A.523.523,0,0,1,246.175,157.463Zm-3.244-.518H245.5a1.292,1.292,0,0,0-2.568,0Z" transform="translate(-159.874 -113.975)" fill="#e0e0e0"/>
      <path id="Path_361" data-name="Path 361" d="M248.64,158.391a.48.48,0,1,1,.146.345A.481.481,0,0,1,248.64,158.391Zm.068-4.851h.856l-.143,3.62h-.578Z" transform="translate(-161.483 -113.566)" fill="#e0e0e0"/>
      <g id="Group_37" data-name="Group 37" transform="translate(152.919 22.213)">
        <path id="Path_291" data-name="Path 291" d="M339.949,216.971c-.12,0,0-2.335-.435-5.152s-1.269-4.994-1.156-5.039a5,5,0,0,1,.638,1.4,19.68,19.68,0,0,1,.909,3.582,20.788,20.788,0,0,1,.233,3.687A4.8,4.8,0,0,1,339.949,216.971Z" transform="translate(-336.742 -131.767)" fill="#fafafa"/>
        <rect id="Rectangle_64" data-name="Rectangle 64" width="2.884" height="220.46" rx="1.33" transform="translate(0)" fill="#e0e0e0"/>
        <rect id="Rectangle_65" data-name="Rectangle 65" width="2.884" height="113.658" rx="1.33" transform="translate(0)" fill="#92278f"/>
      </g>
      <path id="Path_362" data-name="Path 362" d="M163.105,194.52v5.257h-.751v-4.6H161.16v-.661Z" transform="translate(-139.697 -106.5)" fill="#263238"/>
      <path id="Path_363" data-name="Path 363" d="M165.27,200.763a.511.511,0,1,1,.511.518.5.5,0,0,1-.511-.518Z" transform="translate(-140.72 -107.929)" fill="#263238"/>
      <g id="Group_38" data-name="Group 38" transform="translate(27.974 88.02)">
        <path id="Path_364" data-name="Path 364" d="M171.647,195.181H169.83v-.661h4.378v.661h-1.817v4.626h-.751Z" transform="translate(-169.83 -194.52)" fill="#263238"/>
        <path id="Path_365" data-name="Path 365" d="M179.532,198.463H176.28a1.359,1.359,0,0,0,1.449,1.172,1.5,1.5,0,0,0,1.157-.488l.4.473a2.178,2.178,0,0,1-3.755-1.4,1.96,1.96,0,0,1,2.005-2.043,1.937,1.937,0,0,1,1.983,2.065A.419.419,0,0,1,179.532,198.463Zm-3.252-.526h2.606a1.292,1.292,0,0,0-2.568,0Z" transform="translate(-171.249 -194.933)" fill="#263238"/>
        <path id="Path_366" data-name="Path 366" d="M184.358,196.176v.706h-.165a1.194,1.194,0,0,0-1.262,1.352v1.99h-.751v-4h.691v.676A1.5,1.5,0,0,1,184.358,196.176Z" transform="translate(-172.906 -194.929)" fill="#263238"/>
        <path id="Path_367" data-name="Path 367" d="M192.891,197.888v2.305h-.751v-2.253c0-.751-.375-1.164-1.036-1.164a1.187,1.187,0,0,0-1.194,1.329v2.058h-.751v-2.253c0-.751-.375-1.164-1.036-1.164a1.164,1.164,0,0,0-1.2,1.329v2.058h-.751v-4h.691v.6a1.622,1.622,0,0,1,1.382-.638,1.5,1.5,0,0,1,1.389.751,1.809,1.809,0,0,1,1.547-.751,1.5,1.5,0,0,1,1.712,1.795Z" transform="translate(-173.899 -194.907)" fill="#263238"/>
      </g>
      <path id="Path_368" data-name="Path 368" d="M165.205,308.363v.653H161.45v-.511l2.148-2.08c.563-.541.668-.871.668-1.209,0-.541-.39-.871-1.126-.871a1.66,1.66,0,0,0-1.352.571l-.518-.443a2.441,2.441,0,0,1,1.938-.8c1.1,0,1.81.571,1.81,1.5a2.133,2.133,0,0,1-.864,1.66l-1.622,1.562Z" transform="translate(-139.724 -133.682)" fill="#263238"/>
      <path id="Path_369" data-name="Path 369" d="M167.42,309.988a.5.5,0,0,1,.511-.518.518.518,0,0,1,0,1.036.511.511,0,0,1-.511-.518Z" transform="translate(-141.256 -135.127)" fill="#263238"/>
      <path id="Path_377" data-name="Path 377" d="M276.841,217.325c0,.113-25.916.2-57.877.2s-57.884-.083-57.884-.2,25.916-.2,57.884-.2S276.841,217.22,276.841,217.325Z" transform="translate(-139.677 -112.131)" fill="#263238"/>
      <path id="Path_378" data-name="Path 378" d="M276.841,229c0,.105-25.916.2-57.877.2s-57.884-.09-57.884-.2,25.916-.2,57.884-.2S276.841,228.883,276.841,229Z" transform="translate(-139.677 -115.037)" fill="#263238"/>
      <path id="Path_379" data-name="Path 379" d="M276.841,240.655c0,.113-25.916.2-57.877.2s-57.884-.083-57.884-.2,25.916-.2,57.884-.2S276.841,240.55,276.841,240.655Z" transform="translate(-139.677 -117.941)" fill="#263238"/>
      <path id="Path_380" data-name="Path 380" d="M276.841,252.325c0,.105-25.916.2-57.877.2s-57.884-.09-57.884-.2,25.916-.2,57.884-.2S276.841,252.213,276.841,252.325Z" transform="translate(-139.677 -120.847)" fill="#263238"/>
      <path id="Path_381" data-name="Path 381" d="M276.841,263.985c0,.113-25.916.2-57.877.2s-57.884-.083-57.884-.2,25.916-.2,57.884-.2S276.841,263.88,276.841,263.985Z" transform="translate(-139.677 -123.751)" fill="#263238"/>
      <path id="Path_382" data-name="Path 382" d="M276.841,275.655c0,.105-25.916.2-57.877.2s-57.884-.09-57.884-.2,25.916-.2,57.884-.2S276.841,275.543,276.841,275.655Z" transform="translate(-139.677 -126.657)" fill="#263238"/>
      <path id="Path_383" data-name="Path 383" d="M276.841,319.935c0,.105-25.916.2-57.877.2s-57.884-.09-57.884-.2,25.916-.2,57.884-.2S276.841,319.845,276.841,319.935Z" transform="translate(-139.677 -137.685)" fill="#263238"/>
      <path id="Path_384" data-name="Path 384" d="M276.841,329.935c0,.113-25.916.2-57.877.2s-57.884-.083-57.884-.2,25.916-.2,57.884-.2S276.841,329.83,276.841,329.935Z" transform="translate(-139.677 -140.175)" fill="#e0e0e0"/>
      <path id="Path_385" data-name="Path 385" d="M276.841,339.935c0,.105-25.916.2-57.877.2s-57.884-.09-57.884-.2,25.916-.2,57.884-.2S276.841,339.815,276.841,339.935Z" transform="translate(-139.677 -142.665)" fill="#ebebeb"/>
      <g id="Group_39" data-name="Group 39" transform="translate(27.876 169.572)">
        <path id="Path_364-2" data-name="Path 364" d="M171.647,195.181H169.83v-.661h4.378v.661h-1.817v4.626h-.751Z" transform="translate(-169.83 -194.52)" fill="#263238"/>
        <path id="Path_365-2" data-name="Path 365" d="M179.532,198.463H176.28a1.359,1.359,0,0,0,1.449,1.172,1.5,1.5,0,0,0,1.157-.488l.4.473a2.178,2.178,0,0,1-3.755-1.4,1.96,1.96,0,0,1,2.005-2.043,1.937,1.937,0,0,1,1.983,2.065A.419.419,0,0,1,179.532,198.463Zm-3.252-.526h2.606a1.292,1.292,0,0,0-2.568,0Z" transform="translate(-171.249 -194.933)" fill="#263238"/>
        <path id="Path_366-2" data-name="Path 366" d="M184.358,196.176v.706h-.165a1.194,1.194,0,0,0-1.262,1.352v1.99h-.751v-4h.691v.676A1.5,1.5,0,0,1,184.358,196.176Z" transform="translate(-172.906 -194.929)" fill="#263238"/>
        <path id="Path_367-2" data-name="Path 367" d="M192.891,197.888v2.305h-.751v-2.253c0-.751-.375-1.164-1.036-1.164a1.187,1.187,0,0,0-1.194,1.329v2.058h-.751v-2.253c0-.751-.375-1.164-1.036-1.164a1.164,1.164,0,0,0-1.2,1.329v2.058h-.751v-4h.691v.6a1.622,1.622,0,0,1,1.382-.638,1.5,1.5,0,0,1,1.389.751,1.809,1.809,0,0,1,1.547-.751,1.5,1.5,0,0,1,1.712,1.795Z" transform="translate(-173.899 -194.907)" fill="#263238"/>
      </g>
    </g>
  </g>
</svg>
