<svg id="user-terms-purple" xmlns="http://www.w3.org/2000/svg" width="122.554" height="130.76" viewBox="0 0 122.554 130.76">
  <g id="Group_36" data-name="Group 36" transform="translate(29.984 4.164)">
    <path id="Path_266" data-name="Path 266" d="M311.037,191.535,298.52,203.724l-11.534,22.009-12.97,24.889-15.936-7.48-17.226-8.819,11.018-21.048,6.848-23.561c-4.839,3.209-13.838,7.581-24.571,5.3-11.646-2.468-6.055-46.374-6.055-46.374l12.8-.329,1.287,30.955,14.455-6.388.022.052c.871-.374,1.634-.748,2.038-.954,8-4.364,13.25-4.892,21.833-1.829h0l12.383,4.114c3.183,1.5,14.915,7.274,18.127,17.274" transform="translate(-226.753 -134.039)" fill="#92278f"/>
    <g id="Group_32" data-name="Group 32" transform="translate(47.215 34.496)" opacity="0.3">
      <path id="Path_269" data-name="Path 269" d="M353,202.39q2.274,36.419,4.548,72.834l-4.488,9.252Z" transform="translate(-353 -202.39)"/>
    </g>
    <path id="Path_270" data-name="Path 270" d="M386.813,261.364c-.052.022-.509-1.122-1.148-2.5s-1.208-2.476-1.159-2.5a3.216,3.216,0,0,1,.445.677c.251.434.572,1.047.89,1.743s.58,1.335.748,1.806A2.964,2.964,0,0,1,386.813,261.364Z" transform="translate(-325.506 -201.68)" fill="#fafafa"/>
    <path id="Path_271" data-name="Path 271" d="M409.607,256.05a20.9,20.9,0,0,1-2.431,1.631,21.947,21.947,0,0,1-2.536,1.466,22.828,22.828,0,0,1,2.435-1.631A22.1,22.1,0,0,1,409.607,256.05Z" transform="translate(-338.113 -201.486)" fill="#fafafa"/>
    <path id="Path_272" data-name="Path 272" d="M405.683,239.517a19.732,19.732,0,0,1-.2-3.987,9.923,9.923,0,0,1,.2,1.99A10.227,10.227,0,0,1,405.683,239.517Z" transform="translate(-338.61 -188.64)" fill="#fafafa"/>
    <path id="Path_273" data-name="Path 273" d="M427.318,240.6a22.667,22.667,0,0,1-3.568-2.2,11.427,11.427,0,0,1,1.836,1.017A11.219,11.219,0,0,1,427.318,240.6Z" transform="translate(-350.076 -190.436)" fill="#fafafa"/>
    <path id="Path_274" data-name="Path 274" d="M391.72,289.7a20.044,20.044,0,0,1,1.01-2.588,20.343,20.343,0,0,1,1.189-2.509,19.625,19.625,0,0,1-1.01,2.588A20.027,20.027,0,0,1,391.72,289.7Z" transform="translate(-330.025 -219.358)" fill="#fafafa"/>
    <path id="Path_275" data-name="Path 275" d="M376.83,304.956a8.886,8.886,0,0,1-.913-1.608,9.016,9.016,0,0,1-.748-1.7,9.022,9.022,0,0,1,.916,1.608,8.737,8.737,0,0,1,.744,1.7Z" transform="translate(-319.664 -230.032)" fill="#fafafa"/>
    <path id="Path_276" data-name="Path 276" d="M383.2,326.982a6.273,6.273,0,0,1-1.922.49,6.2,6.2,0,0,1-1.982.06c0-.056.879-.1,1.956-.251S383.189,326.922,383.2,326.982Z" transform="translate(-322.249 -245.883)" fill="#fafafa"/>
    <path id="Path_277" data-name="Path 277" d="M402.73,302.993a9.939,9.939,0,0,1,.666-1.814,9.553,9.553,0,0,1,.841-1.739,9.747,9.747,0,0,1-.662,1.814A9.143,9.143,0,0,1,402.73,302.993Z" transform="translate(-336.917 -228.648)" fill="#fafafa"/>
    <path id="Path_278" data-name="Path 278" d="M366.548,341.778c-.049.03-.6-.729-1.354-1.6s-1.429-1.526-1.388-1.567A10.205,10.205,0,0,1,366.548,341.778Z" transform="translate(-312.55 -253.169)" fill="#fafafa"/>
    <path id="Path_279" data-name="Path 279" d="M361.854,306.07a11.032,11.032,0,0,1-.976,1.87,11.432,11.432,0,0,1-1.148,1.78,11.813,11.813,0,0,1,.98-1.87A11.517,11.517,0,0,1,361.854,306.07Z" transform="translate(-309.998 -232.799)" fill="#fafafa"/>
    <path id="Path_280" data-name="Path 280" d="M362.573,290.21a12.167,12.167,0,0,1-2.091-.441,11.767,11.767,0,0,1-2.042-.628,11.747,11.747,0,0,1,2.091.441A11.524,11.524,0,0,1,362.573,290.21Z" transform="translate(-309.191 -222.2)" fill="#fafafa"/>
    <path id="Path_281" data-name="Path 281" d="M369.25,263a12.79,12.79,0,0,1,1.122,1.526,12.6,12.6,0,0,1,1.04,1.571,7.343,7.343,0,0,1-1.2-1.462A7.149,7.149,0,0,1,369.25,263Z" transform="translate(-315.958 -205.836)" fill="#fafafa"/>
    <path id="Path_282" data-name="Path 282" d="M355.455,261.55a16.557,16.557,0,0,1-2.715,2.364,8.23,8.23,0,0,1,1.294-1.257A8.506,8.506,0,0,1,355.455,261.55Z" transform="translate(-305.623 -204.929)" fill="#fafafa"/>
    <path id="Path_283" data-name="Path 283" d="M362.127,240.288a12.143,12.143,0,0,1-3.1-3.639c.049-.03.662.845,1.518,1.847S362.168,240.247,362.127,240.288Z" transform="translate(-309.56 -189.34)" fill="#fafafa"/>
    <path id="Path_284" data-name="Path 284" d="M385.772,241.71a12.662,12.662,0,0,1-2.1.748,12.471,12.471,0,0,1-2.154.553,13.3,13.3,0,0,1,2.1-.748A12.618,12.618,0,0,1,385.772,241.71Z" transform="translate(-323.639 -192.509)" fill="#fafafa"/>
    <path id="Path_285" data-name="Path 285" d="M356.072,211.046c-.056,0-.03-.856-.165-1.9s-.374-1.87-.307-1.87a6.911,6.911,0,0,1,.471,3.777Z" transform="translate(-307.406 -170.955)" fill="#fafafa"/>
    <path id="Path_315" data-name="Path 315" d="M378.448,122.174a23.749,23.749,0,0,1-.056-4.667,7.962,7.962,0,0,1,1.72-4.275,4.829,4.829,0,0,1,4.136-1.743,18.979,18.979,0,0,0,2.824.568,8.46,8.46,0,0,0,3.1-1.182,8.112,8.112,0,0,1,5.1-.535,4.862,4.862,0,0,1,2.412,1.219,2.7,2.7,0,0,1,.782,2.5,12.892,12.892,0,0,1,3.366.3,4.35,4.35,0,0,1,2.689,1.87,2.65,2.65,0,0,1-.28,3.123,2.154,2.154,0,0,1,2.379,1.623,2.775,2.775,0,0,1-1.122,2.782,5.187,5.187,0,0,1-3.5.7,7.572,7.572,0,0,1-3.078-1.122" transform="translate(-321.625 -110.15)" fill="#263238"/>
    <path id="Path_316" data-name="Path 316" d="M366.325,168.765h0a8.071,8.071,0,0,0,9.81-5.752c.632-2.4,1.148-4.406,1.148-4.406s6.249,1.073,8.317-4.862,5.61-19.9,5.61-19.9h0a21.785,21.785,0,0,0-21.62-4.357l-1.122.374-7.94,28.92a8.071,8.071,0,0,0,5.8,9.982Z" transform="translate(-310.314 -121.512)" fill="#b78876"/>
    <path id="Path_317" data-name="Path 317" d="M394.195,201.088a14.585,14.585,0,0,1-7-4.8s.4,4.888,6.5,6.358Z" transform="translate(-327.189 -164.075)" fill="#aa6550"/>
    <path id="Path_318" data-name="Path 318" d="M370.161,148.281c-.086-.079-3.676-2.577-4.907,1.53s3.141,4.488,3.183,4.379S370.161,148.281,370.161,148.281Z" transform="translate(-313.32 -133.505)" fill="#b78876"/>
    <path id="Path_319" data-name="Path 319" d="M369.554,154.44a1.265,1.265,0,0,1-.224.049.748.748,0,0,1-.524-.157,1.875,1.875,0,0,1-.34-1.833,2.449,2.449,0,0,1,.5-.965.868.868,0,0,1,.7-.374.374.374,0,0,1,.374.322c.022.131-.03.206,0,.221s.108-.045.123-.224a.471.471,0,0,0-.082-.3.557.557,0,0,0-.374-.224,1.043,1.043,0,0,0-.939.411,2.506,2.506,0,0,0-.591,1.07,1.936,1.936,0,0,0,.509,2.087.8.8,0,0,0,.688.086C369.528,154.538,369.577,154.455,369.554,154.44Z" transform="translate(-315.234 -135.689)" fill="#aa6550"/>
    <path id="Path_320" data-name="Path 320" d="M426.647,164.212a.9.9,0,0,1-1.122.58.856.856,0,0,1-.617-1.058.9.9,0,0,1,1.1-.583.86.86,0,0,1,.636,1.062Z" transform="translate(-350.782 -143.307)" fill="#263238"/>
    <path id="Path_321" data-name="Path 321" d="M426.979,161.864c-.142.075-.625-.613-1.537-.92s-1.739-.071-1.8-.217c-.034-.064.142-.228.5-.344a2.438,2.438,0,0,1,1.5.037,2.349,2.349,0,0,1,1.178.871C427.02,161.6,427.046,161.834,426.979,161.864Z" transform="translate(-350.006 -141.534)" fill="#263238"/>
    <path id="Path_322" data-name="Path 322" d="M402.679,156.167a.9.9,0,0,1-1.1.583.856.856,0,0,1-.617-1.058.894.894,0,0,1,1.1-.583.857.857,0,0,1,.617,1.058Z" transform="translate(-335.789 -138.272)" fill="#263238"/>
    <path id="Path_323" data-name="Path 323" d="M402.834,154.269c-.142.079-.628-.613-1.541-.92s-1.735-.071-1.8-.217c-.03-.064.142-.228.509-.34a2.454,2.454,0,0,1,1.5.034,2.379,2.379,0,0,1,1.182.871C402.872,154.007,402.9,154.239,402.834,154.269Z" transform="translate(-334.889 -136.781)" fill="#263238"/>
    <path id="Path_326" data-name="Path 326" d="M427.99,157.237c-.228.153-.785-.273-1.537-.539s-1.444-.329-1.518-.595c-.03-.127.142-.3.486-.4a2.36,2.36,0,0,1,2.465.913C428.08,156.916,428.095,157.159,427.99,157.237Z" transform="translate(-350.815 -138.624)" fill="#263238"/>
    <path id="Path_327" data-name="Path 327" d="M402.334,143.742c-.138.075-.374-.049-.639-.209a7.25,7.25,0,0,0-1.077-.527,6.856,6.856,0,0,0-1.163-.307c-.318-.064-.565-.112-.621-.262s.123-.374.527-.524A2.532,2.532,0,0,1,402.278,143C402.483,143.39,402.465,143.682,402.334,143.742Z" transform="translate(-334.471 -129.96)" fill="#263238"/>
    <path id="Path_328" data-name="Path 328" d="M400.825,133.534a14.716,14.716,0,0,1-8.519-3.347c-2.685-2.2-6.047-3.74-6.964-3.306s-1.788,3.515-5,3.74c0,0-1.144,6-3.471,5.236s1.253-9.638,1.253-9.638l6.451-1.518,6.608.243,5.935,1.346,5.135,2.951Z" transform="translate(-320.239 -119.259)" fill="#263238"/>
    <path id="Path_403" data-name="Path 403" d="M354.59,299.116l4.08,13.8,31.68-9.626a12.716,12.716,0,0,0,8.37-16.115L390.953,263l-16.871,4.189,9.26,22.364Z" transform="translate(-306.781 -205.836)" fill="#92278f"/>
    <path id="Path_404" data-name="Path 404" d="M390.877,317.741l-.153.056-.456.146-1.773.55-6.638,2.034-23.06,7-.086.022-.03-.082c-1.41-4.219-2.779-8.856-4.361-13.621l-.03-.09.094-.034.8-.262,27.959-9.286-.045.1c-2.244-5.423-4.061-9.866-5.333-12.962-.628-1.541-1.122-2.745-1.459-3.572-.161-.408-.288-.722-.374-.939s-.12-.322-.12-.322.052.1.142.314l.4.927c.344.823.849,2.023,1.5,3.557,1.286,3.089,3.134,7.525,5.393,12.94l.03.075-.079.026-27.959,9.323-.8.266.06-.123c1.586,4.768,2.947,9.406,4.353,13.621l-.112-.06,23.079-6.926,6.664-1.986,1.78-.52.464-.131Z" transform="translate(-306.593 -220.535)" fill="#263238"/>
    <path id="Path_405" data-name="Path 405" d="M437.007,338.011c-.03,0-.239-.348-.662-.875a8.567,8.567,0,0,0-4.32-2.865c-.651-.187-1.07-.239-1.066-.273a.847.847,0,0,1,.3,0,5.5,5.5,0,0,1,.8.135,7.752,7.752,0,0,1,2.453,1.07,7.667,7.667,0,0,1,1.941,1.844,5.391,5.391,0,0,1,.434.688A.834.834,0,0,1,437.007,338.011Z" transform="translate(-354.589 -250.274)" fill="#263238"/>
    <path id="Path_406" data-name="Path 406" d="M426.416,270.491a21.573,21.573,0,0,1,0-4.091A21.572,21.572,0,0,1,426.416,270.491Z" transform="translate(-351.676 -207.965)" fill="#fafafa"/>
    <path id="Path_407" data-name="Path 407" d="M441.619,271.555a22.1,22.1,0,0,1-1.189-3.975A22.106,22.106,0,0,1,441.619,271.555Z" transform="translate(-360.518 -208.703)" fill="#fafafa"/>
    <path id="Path_408" data-name="Path 408" d="M426.869,291.736a7.035,7.035,0,0,1-3.7-1.085c.026-.052.808.318,1.829.613S426.872,291.68,426.869,291.736Z" transform="translate(-349.713 -223.144)" fill="#fafafa"/>
    <path id="Path_409" data-name="Path 409" d="M452.3,295.515a9.9,9.9,0,0,1,.239-1.952,10.034,10.034,0,0,1,.43-1.922,10.273,10.273,0,0,1-.239,1.956A9.854,9.854,0,0,1,452.3,295.515Z" transform="translate(-367.949 -223.765)" fill="#fafafa"/>
    <path id="Path_410" data-name="Path 410" d="M442.609,309.633a20.659,20.659,0,0,1-1.679-3.673,21.06,21.06,0,0,1,1.679,3.673Z" transform="translate(-360.831 -232.73)" fill="#fafafa"/>
    <path id="Path_411" data-name="Path 411" d="M436.8,325.035a9.493,9.493,0,0,1-1.776-.748,9.32,9.32,0,0,1-1.687-.927,10.161,10.161,0,0,1,1.773.748,9.467,9.467,0,0,1,1.69.927Z" transform="translate(-356.079 -243.623)" fill="#fafafa"/>
    <path id="Path_412" data-name="Path 412" d="M461.792,324.63a90.231,90.231,0,0,1-1.462,3.415A9.843,9.843,0,0,1,461.792,324.63Z" transform="translate(-372.975 -244.418)" fill="#fafafa"/>
    <path id="Path_413" data-name="Path 413" d="M457.525,346.65a22.418,22.418,0,0,1-.415-4.2,11.923,11.923,0,0,1,.3,2.091A11.594,11.594,0,0,1,457.525,346.65Z" transform="translate(-370.96 -255.573)" fill="#fafafa"/>
    <path id="Path_414" data-name="Path 414" d="M438.17,358.48a9.439,9.439,0,0,1-1.5-1.234,9.684,9.684,0,0,1-1.354-1.376,9.452,9.452,0,0,1,1.5,1.234,9.69,9.69,0,0,1,1.354,1.376Z" transform="translate(-357.319 -263.974)" fill="#fafafa"/>
    <path id="Path_415" data-name="Path 415" d="M412.446,365.48A21.726,21.726,0,0,1,410,368.816a10.684,10.684,0,0,1,1.144-1.724A11.051,11.051,0,0,1,412.446,365.48Z" transform="translate(-341.468 -269.99)" fill="#fafafa"/>
    <path id="Path_416" data-name="Path 416" d="M420.346,348.188a6.862,6.862,0,0,1-1.515-1.331,6.649,6.649,0,0,1-1.212-1.608c.045-.034.6.669,1.354,1.477S420.38,348.146,420.346,348.188Z" transform="translate(-346.238 -257.324)" fill="#fafafa"/>
    <path id="Path_417" data-name="Path 417" d="M400.067,355.547a2.921,2.921,0,0,1-1.5.183,2.992,2.992,0,0,1-1.451-.4c.022-.056.654.146,1.462.2S400.067,355.491,400.067,355.547Z" transform="translate(-333.405 -263.632)" fill="#fafafa"/>
    <path id="Path_418" data-name="Path 418" d="M391.457,372.36a7.107,7.107,0,0,1-.374-1.608,6.919,6.919,0,0,1-.183-1.642A14.086,14.086,0,0,1,391.457,372.36Z" transform="translate(-329.511 -272.263)" fill="#fafafa"/>
    <path id="Path_419" data-name="Path 419" d="M371.369,381.465a24.034,24.034,0,0,1-3.669-2.315,12.229,12.229,0,0,1,1.889,1.077A12.367,12.367,0,0,1,371.369,381.465Z" transform="translate(-314.988 -278.548)" fill="#fafafa"/>
    <path id="Path_420" data-name="Path 420" d="M379.133,358.72c.041.037-.5.681-1.1,1.518a17.554,17.554,0,0,1-1.1,1.526,6.109,6.109,0,0,1,.939-1.642A5.983,5.983,0,0,1,379.133,358.72Z" transform="translate(-320.766 -265.758)" fill="#fafafa"/>
    <path id="Path_421" data-name="Path 421" d="M367.808,362.011a3.639,3.639,0,0,1-1.1-.438,3.542,3.542,0,0,1-1-.613A7.082,7.082,0,0,1,367.808,362.011Z" transform="translate(-313.742 -267.161)" fill="#fafafa"/>
    <g id="Group_35" data-name="Group 35" transform="translate(76.296 82.875)" opacity="0.2">
      <path id="Path_422" data-name="Path 422" d="M430.76,332.019c1.69.172,3.385.348,5.071.561a6.249,6.249,0,0,1,1.72.374,2.188,2.188,0,0,1,1.227,1.2,1.343,1.343,0,0,1-.467,1.567,1.552,1.552,0,0,1-1.533-.067,8.188,8.188,0,0,1-1.264-.991,7.053,7.053,0,0,0-2.6-1.358,4.449,4.449,0,0,1-1.242-.434,1.077,1.077,0,0,1-.539-1.122" transform="translate(-430.76 -331.75)"/>
    </g>
  </g>
  <g id="Group_40" data-name="Group 40" transform="translate(0)">
    <path id="Path_314" data-name="Path 314" d="M234.49,159.173a4.349,4.349,0,0,1,.46-2.289,5.52,5.52,0,0,1,.912-1.391,1.81,1.81,0,0,1,.52-.453,10.883,10.883,0,0,0-1.257,1.922A10.713,10.713,0,0,0,234.49,159.173Z" transform="translate(-196.37 -134.572)" fill="#fafafa"/>
    <rect id="Rectangle_63" data-name="Rectangle 63" width="83.971" height="130.76" fill="#fafafa"/>
    <path id="Path_330" data-name="Path 330" d="M168.541,133.839H157.8a1.346,1.346,0,0,1-1.346-1.343V117.623a1.346,1.346,0,0,1,1.346-1.343h6.814l5.273,5.434V132.5a1.343,1.343,0,0,1-1.343,1.343Z" transform="translate(-147.523 -101.706)" fill="#92278f"/>
    <path id="Path_331" data-name="Path 331" d="M178.27,116.28v4.185a1.253,1.253,0,0,0,1.249,1.249h4.024Z" transform="translate(-161.182 -101.706)" fill="#92278f"/>
    <g id="Group_33" data-name="Group 33" transform="translate(17.144 19.126)" opacity="0.2">
      <path id="Path_332" data-name="Path 332" d="M178.42,128.45a1.388,1.388,0,0,0,1.1,1.35l.135.03c.524.093,3.983.707,3.983.628v-1.122h-4.024S178.611,129.3,178.42,128.45Z" transform="translate(-178.42 -128.45)"/>
    </g>
    <g id="Group_34" data-name="Group 34" transform="translate(17.088 14.574)" opacity="0.3">
      <path id="Path_333" data-name="Path 333" d="M178.27,116.28v4.185a1.253,1.253,0,0,0,1.249,1.249h4.024Z" transform="translate(-178.27 -116.28)" fill="#fff"/>
    </g>
    <path id="Path_334" data-name="Path 334" d="M167.54,126.818a31.806,31.806,0,0,1-4.97,0,31.806,31.806,0,0,1,4.97,0Z" transform="translate(-151.354 -108.234)" fill="#fafafa"/>
    <path id="Path_335" data-name="Path 335" d="M170.749,133.177c0,.052-1.829.1-4.088.1s-4.091-.045-4.091-.1,1.833-.1,4.091-.1S170.749,133.121,170.749,133.177Z" transform="translate(-151.354 -112.223)" fill="#fafafa"/>
    <path id="Path_336" data-name="Path 336" d="M171.486,138.457c0,.056-1.993.1-4.458.1s-4.458-.041-4.458-.1,2-.1,4.458-.1S171.486,138.4,171.486,138.457Z" transform="translate(-151.354 -115.528)" fill="#fafafa"/>
    <path id="Path_337" data-name="Path 337" d="M171.486,143.447c0,.052-1.993.1-4.458.1s-4.458-.045-4.458-.1,2-.1,4.458-.1S171.486,143.391,171.486,143.447Z" transform="translate(-151.354 -118.652)" fill="#fafafa"/>
    <path id="Path_338" data-name="Path 338" d="M171.486,148.427c0,.056-1.993.1-4.458.1s-4.458-.041-4.458-.1,2-.1,4.458-.1S171.486,148.375,171.486,148.427Z" transform="translate(-151.354 -121.77)" fill="#fafafa"/>
    <path id="Path_339" data-name="Path 339" d="M171.486,153.417c0,.052-1.993.1-4.458.1s-4.458-.045-4.458-.1,2-.1,4.458-.1S171.486,153.361,171.486,153.417Z" transform="translate(-151.354 -124.893)" fill="#fafafa"/>
    <path id="Path_354" data-name="Path 354" d="M203.652,153.52l-.883,2.618h-.393l-.726-2.087-.722,2.1h-.4l-.879-2.618h.374l.711,2.143.748-2.143h.348l.726,2.154.726-2.154Z" transform="translate(-174.566 -133.62)" fill="#e0e0e0"/>
    <path id="Path_355" data-name="Path 355" d="M212.517,156.316H210.9a.681.681,0,0,0,.726.583.748.748,0,0,0,.572-.239l.2.232a1.01,1.01,0,0,1-.789.322.995.995,0,0,1-1.07-1.017.976.976,0,0,1,1-1.017.965.965,0,0,1,.987,1.028C212.524,156.234,212.521,156.283,212.517,156.316Zm-1.619-.258h1.279a.643.643,0,0,0-1.279,0Z" transform="translate(-181.382 -134.659)" fill="#e0e0e0"/>
    <path id="Path_356" data-name="Path 356" d="M217.19,153.1h.374v2.79h-.374Z" transform="translate(-185.547 -133.357)" fill="#e0e0e0"/>
    <path id="Path_357" data-name="Path 357" d="M219.5,156.195a1,1,0,0,1,1.055-1.017.894.894,0,0,1,.812.426l-.277.176a.617.617,0,0,0-.539-.284.7.7,0,0,0,0,1.4.617.617,0,0,0,.539-.284l.277.172a.894.894,0,0,1-.812.426,1,1,0,0,1-1.055-1.017Z" transform="translate(-186.992 -134.657)" fill="#e0e0e0"/>
    <path id="Path_358" data-name="Path 358" d="M225.16,156.135a1.036,1.036,0,1,1,1.04,1.017.995.995,0,0,1-1.04-1.017Zm1.709,0a.673.673,0,1,0-.669.7.654.654,0,0,0,.669-.7Z" transform="translate(-190.536 -134.597)" fill="#e0e0e0"/>
    <path id="Path_359" data-name="Path 359" d="M235.281,156.043v1.144h-.374v-1.1c0-.393-.191-.583-.516-.583a.6.6,0,0,0-.6.662v1.025h-.374v-1.1c0-.393-.191-.583-.516-.583a.6.6,0,0,0-.6.662v1.025h-.374v-1.993h.4v.3a.812.812,0,0,1,.688-.318.748.748,0,0,1,.692.374.9.9,0,0,1,.767-.374.748.748,0,0,1,.8.868Z" transform="translate(-194.774 -134.655)" fill="#e0e0e0"/>
    <path id="Path_360" data-name="Path 360" d="M244.168,156.316h-1.616a.673.673,0,0,0,.722.583.748.748,0,0,0,.576-.239l.2.232a1.088,1.088,0,0,1-1.87-.7.98.98,0,0,1,1-1.017.961.961,0,0,1,.984,1.028A.26.26,0,0,1,244.168,156.316Zm-1.616-.258h1.279a.643.643,0,0,0-1.279,0Z" transform="translate(-201.19 -134.659)" fill="#e0e0e0"/>
    <path id="Path_361" data-name="Path 361" d="M248.64,155.956a.239.239,0,1,1,.073.172A.239.239,0,0,1,248.64,155.956Zm.034-2.416h.426l-.071,1.8h-.288Z" transform="translate(-205.235 -133.633)" fill="#e0e0e0"/>
    <g id="Group_37" data-name="Group 37" transform="translate(76.155 11.062)">
      <path id="Path_291" data-name="Path 291" d="M339.144,211.855c-.06,0,0-1.163-.217-2.566s-.632-2.487-.576-2.509a2.489,2.489,0,0,1,.318.7,9.8,9.8,0,0,1,.453,1.784,10.355,10.355,0,0,1,.116,1.836A2.388,2.388,0,0,1,339.144,211.855Z" transform="translate(-337.547 -169.423)" fill="#fafafa"/>
      <rect id="Rectangle_64" data-name="Rectangle 64" width="1.436" height="109.791" rx="0.718" transform="translate(0)" fill="#e0e0e0"/>
      <rect id="Rectangle_65" data-name="Rectangle 65" width="1.436" height="56.603" rx="0.718" transform="translate(0)" fill="#92278f"/>
    </g>
    <path id="Path_362" data-name="Path 362" d="M162.129,194.52v2.618h-.374v-2.289h-.595v-.329Z" transform="translate(-150.471 -150.685)" fill="#263238"/>
    <path id="Path_363" data-name="Path 363" d="M165.27,200.511a.254.254,0,1,1,.254.258.251.251,0,0,1-.254-.258Z" transform="translate(-153.044 -154.278)" fill="#263238"/>
    <g id="Group_38" data-name="Group 38" transform="translate(13.931 43.835)">
      <path id="Path_364" data-name="Path 364" d="M170.735,194.849h-.905v-.329h2.18v.329h-.905v2.3h-.374Z" transform="translate(-169.83 -194.52)" fill="#263238"/>
      <path id="Path_365" data-name="Path 365" d="M177.522,197.316H175.9a.677.677,0,0,0,.722.583.748.748,0,0,0,.576-.243l.2.236a1.085,1.085,0,0,1-1.87-.7.976.976,0,0,1,1-1.017.965.965,0,0,1,.987,1.028A.208.208,0,0,1,177.522,197.316Zm-1.619-.262h1.3a.643.643,0,0,0-1.279,0Z" transform="translate(-173.397 -195.559)" fill="#263238"/>
      <path id="Path_366" data-name="Path 366" d="M183.265,196.169v.352h-.082a.595.595,0,0,0-.628.673v.991h-.374v-1.993h.344v.337A.748.748,0,0,1,183.265,196.169Z" transform="translate(-177.561 -195.548)" fill="#263238"/>
      <path id="Path_367" data-name="Path 367" d="M189.517,196.977v1.148h-.374V197c0-.374-.187-.58-.516-.58a.591.591,0,0,0-.595.662v1.025h-.374v-1.122c0-.374-.187-.58-.516-.58a.58.58,0,0,0-.6.662V198.1h-.374V196.1h.344v.3a.808.808,0,0,1,.688-.318.748.748,0,0,1,.692.374.9.9,0,0,1,.77-.374.748.748,0,0,1,.853.894Z" transform="translate(-180.059 -195.493)" fill="#263238"/>
    </g>
    <path id="Path_368" data-name="Path 368" d="M163.23,306v.325h-1.87v-.254l1.07-1.036c.28-.269.333-.434.333-.6,0-.269-.194-.434-.561-.434a.827.827,0,0,0-.673.284l-.258-.221a1.215,1.215,0,0,1,.965-.4c.55,0,.9.284.9.748a1.062,1.062,0,0,1-.43.827l-.808.778Z" transform="translate(-150.54 -219.012)" fill="#263238"/>
    <path id="Path_369" data-name="Path 369" d="M167.42,309.728a.251.251,0,0,1,.254-.258.258.258,0,0,1,0,.516.254.254,0,0,1-.254-.258Z" transform="translate(-154.39 -222.645)" fill="#263238"/>
    <path id="Path_377" data-name="Path 377" d="M218.73,217.227c0,.056-12.906.1-28.823.1s-28.827-.041-28.827-.1,12.906-.1,28.827-.1S218.73,217.175,218.73,217.227Z" transform="translate(-150.421 -164.839)" fill="#263238"/>
    <path id="Path_378" data-name="Path 378" d="M218.73,228.9c0,.052-12.906.1-28.823.1s-28.827-.045-28.827-.1,12.906-.1,28.827-.1S218.73,228.841,218.73,228.9Z" transform="translate(-150.421 -172.145)" fill="#263238"/>
    <path id="Path_379" data-name="Path 379" d="M218.73,240.557c0,.056-12.906.1-28.823.1s-28.827-.041-28.827-.1,12.906-.1,28.827-.1S218.73,240.5,218.73,240.557Z" transform="translate(-150.421 -179.444)" fill="#263238"/>
    <path id="Path_380" data-name="Path 380" d="M218.73,252.227c0,.052-12.906.1-28.823.1s-28.827-.045-28.827-.1,12.906-.1,28.827-.1S218.73,252.171,218.73,252.227Z" transform="translate(-150.421 -186.75)" fill="#263238"/>
    <path id="Path_381" data-name="Path 381" d="M218.73,263.887c0,.056-12.906.1-28.823.1s-28.827-.041-28.827-.1,12.906-.1,28.827-.1S218.73,263.835,218.73,263.887Z" transform="translate(-150.421 -194.049)" fill="#263238"/>
    <path id="Path_382" data-name="Path 382" d="M218.73,275.557c0,.052-12.906.1-28.823.1s-28.827-.045-28.827-.1,12.906-.1,28.827-.1S218.73,275.5,218.73,275.557Z" transform="translate(-150.421 -201.355)" fill="#263238"/>
    <path id="Path_383" data-name="Path 383" d="M218.73,319.837c0,.052-12.906.1-28.823.1s-28.827-.045-28.827-.1,12.906-.1,28.827-.1S218.73,319.792,218.73,319.837Z" transform="translate(-150.421 -229.075)" fill="#263238"/>
    <path id="Path_384" data-name="Path 384" d="M218.73,329.837c0,.056-12.906.1-28.823.1s-28.827-.041-28.827-.1,12.906-.1,28.827-.1S218.73,329.785,218.73,329.837Z" transform="translate(-150.421 -235.335)" fill="#e0e0e0"/>
    <path id="Path_385" data-name="Path 385" d="M218.73,339.837c0,.052-12.906.1-28.823.1s-28.827-.045-28.827-.1,12.906-.1,28.827-.1S218.73,339.777,218.73,339.837Z" transform="translate(-150.421 -241.595)" fill="#ebebeb"/>
    <g id="Group_39" data-name="Group 39" transform="translate(13.883 84.448)">
      <path id="Path_364-2" data-name="Path 364" d="M170.735,194.849h-.905v-.329h2.18v.329h-.905v2.3h-.374Z" transform="translate(-169.83 -194.52)" fill="#263238"/>
      <path id="Path_365-2" data-name="Path 365" d="M177.522,197.316H175.9a.677.677,0,0,0,.722.583.748.748,0,0,0,.576-.243l.2.236a1.085,1.085,0,0,1-1.87-.7.976.976,0,0,1,1-1.017.965.965,0,0,1,.987,1.028A.208.208,0,0,1,177.522,197.316Zm-1.619-.262h1.3a.643.643,0,0,0-1.279,0Z" transform="translate(-173.397 -195.559)" fill="#263238"/>
      <path id="Path_366-2" data-name="Path 366" d="M183.265,196.169v.352h-.082a.595.595,0,0,0-.628.673v.991h-.374v-1.993h.344v.337A.748.748,0,0,1,183.265,196.169Z" transform="translate(-177.561 -195.548)" fill="#263238"/>
      <path id="Path_367-2" data-name="Path 367" d="M189.517,196.977v1.148h-.374V197c0-.374-.187-.58-.516-.58a.591.591,0,0,0-.595.662v1.025h-.374v-1.122c0-.374-.187-.58-.516-.58a.58.58,0,0,0-.6.662V198.1h-.374V196.1h.344v.3a.808.808,0,0,1,.688-.318.748.748,0,0,1,.692.374.9.9,0,0,1,.77-.374.748.748,0,0,1,.853.894Z" transform="translate(-180.059 -195.493)" fill="#263238"/>
    </g>
  </g>
</svg>
