<svg xmlns="http://www.w3.org/2000/svg" xmlns:xlink="http://www.w3.org/1999/xlink" width="361.06" height="331.101" viewBox="0 0 361.06 331.101">
  <defs>
    <filter id="Rectangle_63" x="87.461" y="57.861" width="175.059" height="262.573" filterUnits="userSpaceOnUse">
      <feOffset dy="3" input="SourceAlpha"/>
      <feGaussianBlur stdDeviation="3" result="blur"/>
      <feFlood flood-opacity="0.161"/>
      <feComposite operator="in" in2="blur"/>
      <feComposite in="SourceGraphic"/>
    </filter>
  </defs>
  <g id="users-policy-orange" transform="translate(-431.252 -2602.473)">
    <g id="freepik--background-simple--inject-36" transform="translate(389.052 2562.395)">
      <path id="Path_551" data-name="Path 551" d="M297.856,40.089c-33.2.563-58.794,27.482-87.212,44.509-42.911,25.711-98.025,30.934-134.272,65.284-24.811,23.547-37.058,59-33.6,92.864S65,308.36,92.128,329.233c17.3,13.3,37.6,22.268,58.316,29.288,21,7.1,42.857,12.368,65.044,12.645,30.745.385,60.949-8.836,88.763-21.848,19.345-9.041,38-20.095,53.211-35a147.442,147.442,0,0,0,32.946-49.955c18.66-45.931,15.693-98.578-.487-145.431C376.536,80.18,343.816,39.3,297.856,40.089Z" transform="translate(0 0)" fill="#f7941d"/>
      <path id="Path_552" data-name="Path 552" d="M297.856,40.089c-33.2.563-58.794,27.482-87.212,44.509-42.911,25.711-98.025,30.934-134.272,65.284-24.811,23.547-37.058,59-33.6,92.864S65,308.36,92.128,329.233c17.3,13.3,37.6,22.268,58.316,29.288,21,7.1,42.857,12.368,65.044,12.645,30.745.385,60.949-8.836,88.763-21.848,19.345-9.041,38-20.095,53.211-35a147.442,147.442,0,0,0,32.946-49.955c18.66-45.931,15.693-98.578-.487-145.431C376.536,80.18,343.816,39.3,297.856,40.089Z" transform="translate(0 0)" fill="#fff" opacity="0.7"/>
    </g>
    <g id="user-terms-orange" transform="translate(527.713 2666.333)">
      <g id="Group_36" data-name="Group 36" transform="translate(55.798 8.394)">
        <path id="Path_266" data-name="Path 266" d="M384.4,229.158l-23.412,22.8L339.412,293.12l-24.259,46.552-29.806-13.99-32.219-16.494,20.607-39.368,12.808-44.068c-9.052,6-25.882,14.179-45.957,9.912-21.782-4.617-11.325-86.738-11.325-86.738l23.937-.616,2.406,57.9,27.036-11.947.042.1c1.63-.7,3.057-1.4,3.812-1.784,14.962-8.163,24.783-9.149,40.837-3.421h0l23.16,7.694c5.953,2.8,27.9,13.605,33.9,32.31" transform="translate(-226.753 -121.617)" fill="#f7941d"/>
        <g id="Group_32" data-name="Group 32" transform="translate(88.31 64.522)" opacity="0.3">
          <path id="Path_269" data-name="Path 269" d="M353,202.39q4.253,68.117,8.506,136.227l-8.394,17.306Z" transform="translate(-353 -202.39)"/>
        </g>
        <path id="Path_270" data-name="Path 270" d="M388.824,265.719c-.1.042-.951-2.1-2.147-4.68s-2.259-4.631-2.168-4.68a6.014,6.014,0,0,1,.832,1.266c.469.811,1.07,1.959,1.665,3.26s1.084,2.5,1.4,3.379A5.543,5.543,0,0,1,388.824,265.719Z" transform="translate(-274.157 -154.086)" fill="#fafafa"/>
        <path id="Path_271" data-name="Path 271" d="M413.929,256.05a39.079,39.079,0,0,1-4.547,3.05,41.045,41.045,0,0,1-4.743,2.742,42.7,42.7,0,0,1,4.554-3.05A41.323,41.323,0,0,1,413.929,256.05Z" transform="translate(-280.208 -153.993)" fill="#fafafa"/>
        <path id="Path_272" data-name="Path 272" d="M405.9,242.987a36.911,36.911,0,0,1-.378-7.457,18.556,18.556,0,0,1,.378,3.721A19.119,19.119,0,0,1,405.9,242.987Z" transform="translate(-280.447 -147.827)" fill="#fafafa"/>
        <path id="Path_273" data-name="Path 273" d="M430.423,242.52a42.4,42.4,0,0,1-6.673-4.12,21.374,21.374,0,0,1,3.435,1.9A20.982,20.982,0,0,1,430.423,242.52Z" transform="translate(-285.951 -148.689)" fill="#fafafa"/>
        <path id="Path_274" data-name="Path 274" d="M391.72,294.134a37.5,37.5,0,0,1,1.889-4.841,38.054,38.054,0,0,1,2.224-4.694,36.709,36.709,0,0,1-1.889,4.841A37.456,37.456,0,0,1,391.72,294.134Z" transform="translate(-276.326 -162.573)" fill="#fafafa"/>
        <path id="Path_275" data-name="Path 275" d="M378.276,307.834a16.621,16.621,0,0,1-1.707-3.008,16.865,16.865,0,0,1-1.4-3.176,16.871,16.871,0,0,1,1.714,3.008,16.337,16.337,0,0,1,1.392,3.176Z" transform="translate(-271.352 -167.696)" fill="#fafafa"/>
        <path id="Path_276" data-name="Path 276" d="M386.6,326.991a11.731,11.731,0,0,1-3.6.916,11.587,11.587,0,0,1-3.707.112c0-.1,1.644-.182,3.658-.469S386.575,326.879,386.6,326.991Z" transform="translate(-272.593 -175.305)" fill="#fafafa"/>
        <path id="Path_277" data-name="Path 277" d="M402.73,306.085a18.586,18.586,0,0,1,1.245-3.393,17.867,17.867,0,0,1,1.574-3.253,18.232,18.232,0,0,1-1.238,3.393A17.1,17.1,0,0,1,402.73,306.085Z" transform="translate(-279.634 -167.032)" fill="#fafafa"/>
        <path id="Path_278" data-name="Path 278" d="M368.936,344.535c-.091.056-1.119-1.364-2.532-2.994s-2.672-2.854-2.6-2.931A19.089,19.089,0,0,1,368.936,344.535Z" transform="translate(-267.937 -178.803)" fill="#fafafa"/>
        <path id="Path_279" data-name="Path 279" d="M363.7,306.07a20.629,20.629,0,0,1-1.826,3.5,21.378,21.378,0,0,1-2.148,3.33,22.1,22.1,0,0,1,1.833-3.5A21.539,21.539,0,0,1,363.7,306.07Z" transform="translate(-266.713 -169.024)" fill="#fafafa"/>
        <path id="Path_280" data-name="Path 280" d="M366.17,291.141a22.748,22.748,0,0,1-3.91-.825,22,22,0,0,1-3.819-1.175,21.973,21.973,0,0,1,3.91.825A21.557,21.557,0,0,1,366.17,291.141Z" transform="translate(-266.325 -163.937)" fill="#fafafa"/>
        <path id="Path_281" data-name="Path 281" d="M369.25,263a23.929,23.929,0,0,1,2.1,2.854,23.564,23.564,0,0,1,1.945,2.938,13.731,13.731,0,0,1-2.238-2.735A13.372,13.372,0,0,1,369.25,263Z" transform="translate(-269.573 -156.082)" fill="#fafafa"/>
        <path id="Path_282" data-name="Path 282" d="M357.818,261.55a30.966,30.966,0,0,1-5.078,4.421,15.4,15.4,0,0,1,2.42-2.35A15.911,15.911,0,0,1,357.818,261.55Z" transform="translate(-264.612 -155.646)" fill="#fafafa"/>
        <path id="Path_283" data-name="Path 283" d="M364.822,243.456a22.712,22.712,0,0,1-5.792-6.806c.091-.056,1.238,1.581,2.84,3.456S364.9,243.379,364.822,243.456Z" transform="translate(-266.502 -148.163)" fill="#fafafa"/>
        <path id="Path_284" data-name="Path 284" d="M389.473,241.71a23.681,23.681,0,0,1-3.924,1.4,23.329,23.329,0,0,1-4.029,1.035,24.885,24.885,0,0,1,3.924-1.4A23.6,23.6,0,0,1,389.473,241.71Z" transform="translate(-273.26 -149.684)" fill="#fafafa"/>
        <path id="Path_285" data-name="Path 285" d="M356.492,214.324c-.1,0-.056-1.6-.308-3.547s-.7-3.5-.574-3.5a12.927,12.927,0,0,1,.881,7.065Z" transform="translate(-265.468 -139.338)" fill="#fafafa"/>
        <path id="Path_315" data-name="Path 315" d="M378.574,132.639a44.423,44.423,0,0,1-.1-8.73,14.893,14.893,0,0,1,3.218-8,9.032,9.032,0,0,1,7.737-3.26c1.791.231,3.5,1.112,5.281,1.063,2.1-.063,3.9-1.35,5.792-2.21a15.172,15.172,0,0,1,9.541-1,9.094,9.094,0,0,1,4.512,2.28,5.05,5.05,0,0,1,1.462,4.673,24.114,24.114,0,0,1,6.3.553,8.135,8.135,0,0,1,5.029,3.5,4.957,4.957,0,0,1-.525,5.841,4.029,4.029,0,0,1,4.449,3.036,5.191,5.191,0,0,1-2.1,5.2,9.7,9.7,0,0,1-6.54,1.315,14.163,14.163,0,0,1-5.757-2.1" transform="translate(-272.294 -110.15)" fill="#263238"/>
        <path id="Path_316" data-name="Path 316" d="M371.626,203.986h0a15.1,15.1,0,0,0,18.348-10.758c1.182-4.484,2.148-8.24,2.148-8.24s11.689,2.008,15.557-9.093,10.492-37.22,10.492-37.22h0a40.746,40.746,0,0,0-40.438-8.149l-2.1.7-14.85,54.092a15.1,15.1,0,0,0,10.842,18.67Z" transform="translate(-266.864 -115.604)" fill="#b78876"/>
        <path id="Path_317" data-name="Path 317" d="M400.292,205.265a27.28,27.28,0,0,1-13.1-8.975s.741,9.142,12.164,11.891Z" transform="translate(-274.964 -136.035)" fill="#aa6550"/>
        <path id="Path_318" data-name="Path 318" d="M374.622,149c-.161-.147-6.876-4.82-9.177,2.861s5.876,8.394,5.953,8.191S374.622,149,374.622,149Z" transform="translate(-268.307 -121.361)" fill="#b78876"/>
        <path id="Path_319" data-name="Path 319" d="M370.826,157.482a2.366,2.366,0,0,1-.42.091,1.4,1.4,0,0,1-.979-.294c-.7-.539-1.014-2.036-.637-3.428a4.581,4.581,0,0,1,.944-1.8,1.623,1.623,0,0,1,1.315-.7.7.7,0,0,1,.7.6c.042.245-.056.385,0,.413s.2-.084.231-.42a.881.881,0,0,0-.154-.567,1.042,1.042,0,0,0-.7-.42,1.951,1.951,0,0,0-1.756.77,4.688,4.688,0,0,0-1.105,2c-.42,1.56-.063,3.246.951,3.9a1.5,1.5,0,0,0,1.287.161C370.777,157.664,370.868,157.51,370.826,157.482Z" transform="translate(-269.226 -122.409)" fill="#aa6550"/>
        <path id="Path_320" data-name="Path 320" d="M428.188,165.168a1.679,1.679,0,0,1-2.1,1.084,1.6,1.6,0,0,1-1.154-1.98A1.679,1.679,0,0,1,427,163.181a1.609,1.609,0,0,1,1.189,1.987Z" transform="translate(-286.29 -126.066)" fill="#263238"/>
        <path id="Path_321" data-name="Path 321" d="M429.886,163.24c-.266.14-1.168-1.147-2.875-1.721s-3.253-.133-3.365-.406c-.063-.119.266-.427.944-.644a4.56,4.56,0,0,1,2.8.07,4.393,4.393,0,0,1,2.2,1.63C429.963,162.75,430.012,163.184,429.886,163.24Z" transform="translate(-285.917 -125.215)" fill="#263238"/>
        <path id="Path_322" data-name="Path 322" d="M404.2,157.12a1.679,1.679,0,0,1-2.064,1.091,1.6,1.6,0,0,1-1.154-1.98,1.672,1.672,0,0,1,2.064-1.091,1.6,1.6,0,0,1,1.154,1.98Z" transform="translate(-279.093 -123.649)" fill="#263238"/>
        <path id="Path_323" data-name="Path 323" d="M405.744,155.642c-.266.147-1.175-1.147-2.882-1.721s-3.246-.133-3.365-.406c-.056-.119.266-.427.951-.637a4.59,4.59,0,0,1,2.8.063,4.449,4.449,0,0,1,2.21,1.63C405.814,155.153,405.87,155.586,405.744,155.642Z" transform="translate(-278.661 -122.934)" fill="#263238"/>
        <path id="Path_326" data-name="Path 326" d="M430.652,158.632c-.427.287-1.469-.511-2.875-1.007s-2.7-.616-2.84-1.112c-.056-.238.266-.567.909-.755a4.414,4.414,0,0,1,4.61,1.707C430.82,158.031,430.848,158.485,430.652,158.632Z" transform="translate(-286.306 -123.818)" fill="#263238"/>
        <path id="Path_327" data-name="Path 327" d="M405.389,145.436c-.259.14-.7-.091-1.2-.392a13.563,13.563,0,0,0-2.015-.986,12.823,12.823,0,0,0-2.175-.574c-.595-.119-1.056-.21-1.161-.49s.231-.7.986-.979a4.736,4.736,0,0,1,5.456,2.029C405.669,144.778,405.634,145.324,405.389,145.436Z" transform="translate(-276.59 -115.919)" fill="#263238"/>
        <path id="Path_328" data-name="Path 328" d="M422.354,141.222a27.526,27.526,0,0,1-15.935-6.261c-5.022-4.113-11.311-6.995-13.025-6.184s-3.344,6.575-9.345,6.995c0,0-2.14,11.227-6.491,9.793S379.9,127.54,379.9,127.54l12.066-2.84,12.36.455,11.1,2.518,9.6,5.519Z" transform="translate(-271.628 -114.523)" fill="#263238"/>
        <path id="Path_403" data-name="Path 403" d="M354.59,330.551l7.632,25.8,59.255-18.005a23.783,23.783,0,0,0,15.655-30.141L422.6,263l-31.555,7.834,17.32,41.83Z" transform="translate(-265.168 -156.082)" fill="#f7941d"/>
        <path id="Path_404" data-name="Path 404" d="M422.722,344.951l-.287.1-.853.273-3.316,1.028-12.416,3.805L362.719,363.25l-.161.042-.056-.154c-2.637-7.891-5.2-16.564-8.156-25.476l-.056-.168.175-.063,1.49-.49,52.295-17.369-.084.189c-4.2-10.143-7.6-18.453-9.975-24.245-1.175-2.882-2.1-5.134-2.728-6.68-.3-.762-.539-1.35-.7-1.756s-.224-.6-.224-.6.1.2.266.588l.742,1.735c.644,1.539,1.588,3.784,2.8,6.652,2.406,5.778,5.862,14.074,10.087,24.2l.056.14-.147.049-52.295,17.439-1.49.5.112-.231c2.966,8.919,5.512,17.592,8.142,25.476l-.21-.112,43.166-12.955,12.465-3.714,3.33-.972.867-.245Z" transform="translate(-265.078 -163.137)" fill="#263238"/>
        <path id="Path_405" data-name="Path 405" d="M442.271,341.515c-.056,0-.448-.651-1.238-1.637a16.025,16.025,0,0,0-8.079-5.358c-1.217-.35-2-.448-1.994-.511a1.584,1.584,0,0,1,.56,0,10.305,10.305,0,0,1,1.5.252,14.5,14.5,0,0,1,4.589,2,14.34,14.34,0,0,1,3.63,3.449,10.09,10.09,0,0,1,.812,1.287A1.563,1.563,0,0,1,442.271,341.515Z" transform="translate(-288.117 -177.413)" fill="#263238"/>
        <path id="Path_406" data-name="Path 406" d="M426.512,274.053a40.358,40.358,0,0,1,0-7.653A40.341,40.341,0,0,1,426.512,274.053Z" transform="translate(-286.719 -157.103)" fill="#fafafa"/>
        <path id="Path_407" data-name="Path 407" d="M442.654,275.016a41.339,41.339,0,0,1-2.224-7.436A41.349,41.349,0,0,1,442.654,275.016Z" transform="translate(-290.963 -157.458)" fill="#fafafa"/>
        <path id="Path_408" data-name="Path 408" d="M430.088,292.685a13.158,13.158,0,0,1-6.918-2.029c.049-.1,1.511.595,3.421,1.147S430.095,292.58,430.088,292.685Z" transform="translate(-285.776 -164.39)" fill="#fafafa"/>
        <path id="Path_409" data-name="Path 409" d="M452.3,298.887a18.523,18.523,0,0,1,.448-3.651,18.764,18.764,0,0,1,.8-3.6,19.212,19.212,0,0,1-.448,3.658A18.428,18.428,0,0,1,452.3,298.887Z" transform="translate(-294.53 -164.688)" fill="#fafafa"/>
        <path id="Path_410" data-name="Path 410" d="M444.071,312.829a38.638,38.638,0,0,1-3.141-6.869,39.392,39.392,0,0,1,3.141,6.869Z" transform="translate(-291.113 -168.991)" fill="#fafafa"/>
        <path id="Path_411" data-name="Path 411" d="M439.817,326.494a17.751,17.751,0,0,1-3.323-1.4,17.431,17.431,0,0,1-3.155-1.735,19,19,0,0,1,3.316,1.4,17.709,17.709,0,0,1,3.162,1.735Z" transform="translate(-288.832 -174.22)" fill="#fafafa"/>
        <path id="Path_412" data-name="Path 412" d="M463.065,324.63a168.808,168.808,0,0,1-2.735,6.386A18.409,18.409,0,0,1,463.065,324.63Z" transform="translate(-296.943 -174.602)" fill="#fafafa"/>
        <path id="Path_413" data-name="Path 413" d="M457.886,350.305a41.926,41.926,0,0,1-.776-7.855,22.307,22.307,0,0,1,.567,3.91A21.693,21.693,0,0,1,457.886,350.305Z" transform="translate(-295.975 -179.957)" fill="#fafafa"/>
        <path id="Path_414" data-name="Path 414" d="M440.65,360.753a17.659,17.659,0,0,1-2.8-2.308,18.117,18.117,0,0,1-2.532-2.574,17.678,17.678,0,0,1,2.8,2.308,18.124,18.124,0,0,1,2.532,2.574Z" transform="translate(-289.427 -183.989)" fill="#fafafa"/>
        <path id="Path_415" data-name="Path 415" d="M414.575,365.48A40.628,40.628,0,0,1,410,371.72a19.983,19.983,0,0,1,2.141-3.225A20.676,20.676,0,0,1,414.575,365.48Z" transform="translate(-281.819 -186.877)" fill="#fafafa"/>
        <path id="Path_416" data-name="Path 416" d="M422.719,350.747a12.835,12.835,0,0,1-2.833-2.49,12.437,12.437,0,0,1-2.266-3.008c.084-.063,1.126,1.252,2.532,2.763S422.782,350.67,422.719,350.747Z" transform="translate(-284.109 -180.797)" fill="#fafafa"/>
        <path id="Path_417" data-name="Path 417" d="M402.632,355.741a5.464,5.464,0,0,1-2.8.343,5.594,5.594,0,0,1-2.714-.742c.042-.1,1.224.273,2.735.378S402.632,355.636,402.632,355.741Z" transform="translate(-277.948 -183.825)" fill="#fafafa"/>
        <path id="Path_418" data-name="Path 418" d="M391.942,375.189a13.293,13.293,0,0,1-.7-3.008,12.94,12.94,0,0,1-.343-3.071A26.346,26.346,0,0,1,391.942,375.189Z" transform="translate(-276.079 -187.968)" fill="#fafafa"/>
        <path id="Path_419" data-name="Path 419" d="M374.562,383.48a44.958,44.958,0,0,1-6.862-4.33,22.865,22.865,0,0,1,3.533,2.015A23.126,23.126,0,0,1,374.562,383.48Z" transform="translate(-269.108 -190.985)" fill="#fafafa"/>
        <path id="Path_420" data-name="Path 420" d="M381.05,358.72c.077.07-.937,1.273-2.063,2.84a32.832,32.832,0,0,1-2.057,2.854,11.426,11.426,0,0,1,1.756-3.071A11.191,11.191,0,0,1,381.05,358.72Z" transform="translate(-271.881 -184.846)" fill="#fafafa"/>
        <path id="Path_421" data-name="Path 421" d="M369.634,362.926a6.806,6.806,0,0,1-2.049-.818,6.625,6.625,0,0,1-1.875-1.147A13.245,13.245,0,0,1,369.634,362.926Z" transform="translate(-268.51 -185.519)" fill="#fafafa"/>
        <g id="Group_35" data-name="Group 35" transform="translate(142.703 155.009)" opacity="0.2">
          <path id="Path_422" data-name="Path 422" d="M430.76,332.254c3.162.322,6.33.65,9.485,1.049a11.689,11.689,0,0,1,3.218.7,4.092,4.092,0,0,1,2.294,2.245,2.511,2.511,0,0,1-.874,2.931,2.9,2.9,0,0,1-2.868-.126,15.312,15.312,0,0,1-2.364-1.854,13.193,13.193,0,0,0-4.855-2.539,8.32,8.32,0,0,1-2.322-.811,2.014,2.014,0,0,1-1.007-2.1" transform="translate(-430.76 -331.75)"/>
        </g>
      </g>
      <g id="Group_43" data-name="Group 43" transform="translate(0)">
        <g id="Group_40" data-name="Group 40">
          <path id="Path_314" data-name="Path 314" d="M234.5,162.769a8.134,8.134,0,0,1,.86-4.281,10.324,10.324,0,0,1,1.707-2.6,3.387,3.387,0,0,1,.972-.846,20.354,20.354,0,0,0-2.35,3.6A20.036,20.036,0,0,0,234.5,162.769Z" transform="translate(-163.2 -116.756)" fill="#fafafa"/>
          <g transform="matrix(1, 0, 0, 1, -96.46, -63.86)" filter="url(#Rectangle_63)">
            <rect id="Rectangle_63-2" data-name="Rectangle 63" width="157.059" height="244.573" transform="translate(96.46 63.86)" fill="#fafafa"/>
          </g>
          <path id="Path_334" data-name="Path 334" d="M171.866,126.913a30.3,30.3,0,0,1-4.652.182,30.164,30.164,0,0,1-4.645-.182,30.171,30.171,0,0,1,4.645-.182,30.3,30.3,0,0,1,4.652.182Z" transform="translate(-141.591 -92.154)" fill="#fafafa"/>
          <path id="Path_335" data-name="Path 335" d="M177.868,133.262c0,.1-3.421.182-7.646.182s-7.653-.084-7.653-.182,3.428-.182,7.653-.182S177.868,133.157,177.868,133.262Z" transform="translate(-141.591 -94.069)" fill="#fafafa"/>
          <path id="Path_336" data-name="Path 336" d="M179.246,138.542c0,.1-3.728.182-8.338.182s-8.338-.077-8.338-.182,3.735-.182,8.338-.182S179.246,138.444,179.246,138.542Z" transform="translate(-141.591 -95.656)" fill="#fafafa"/>
          <path id="Path_337" data-name="Path 337" d="M179.246,143.532c0,.1-3.728.182-8.338.182s-8.338-.084-8.338-.182,3.735-.182,8.338-.182S179.246,143.427,179.246,143.532Z" transform="translate(-141.591 -97.155)" fill="#fafafa"/>
          <path id="Path_338" data-name="Path 338" d="M179.246,148.512c0,.1-3.728.182-8.338.182s-8.338-.077-8.338-.182,3.735-.182,8.338-.182S179.246,148.414,179.246,148.512Z" transform="translate(-141.591 -98.652)" fill="#fafafa"/>
          <path id="Path_339" data-name="Path 339" d="M179.246,153.5c0,.1-3.728.182-8.338.182s-8.338-.084-8.338-.182,3.735-.182,8.338-.182S179.246,153.4,179.246,153.5Z" transform="translate(-141.591 -100.151)" fill="#fafafa"/>
          <path id="Path_354" data-name="Path 354" d="M207.135,153.52l-1.651,4.9h-.734l-1.357-3.9-1.35,3.931h-.748l-1.644-4.9h.7l1.329,4.008,1.4-4.008h.651l1.357,4.029,1.357-4.029Z" transform="translate(-152.734 -116.3)" fill="#e0e0e0"/>
          <path id="Path_355" data-name="Path 355" d="M214.24,157.306h-3.029a1.273,1.273,0,0,0,1.357,1.091,1.4,1.4,0,0,0,1.07-.448l.378.434a1.889,1.889,0,0,1-1.476.6,1.861,1.861,0,0,1-2-1.9,1.826,1.826,0,0,1,1.868-1.9,1.8,1.8,0,0,1,1.847,1.924C214.254,157.152,214.247,157.243,214.24,157.306Zm-3.029-.483H213.6a1.2,1.2,0,0,0-2.392,0Z" transform="translate(-156.006 -116.798)" fill="#e0e0e0"/>
          <path id="Path_356" data-name="Path 356" d="M217.19,153.1h.7v5.218h-.7Z" transform="translate(-158.005 -116.173)" fill="#e0e0e0"/>
          <path id="Path_357" data-name="Path 357" d="M219.5,157.081a1.868,1.868,0,0,1,1.973-1.9,1.672,1.672,0,0,1,1.518.8l-.518.329a1.154,1.154,0,0,0-1.007-.532,1.315,1.315,0,0,0,0,2.623,1.154,1.154,0,0,0,1.007-.532l.518.322a1.672,1.672,0,0,1-1.518.8,1.868,1.868,0,0,1-1.973-1.9Z" transform="translate(-158.699 -116.797)" fill="#e0e0e0"/>
          <path id="Path_358" data-name="Path 358" d="M225.16,157.053a1.938,1.938,0,1,1,1.945,1.9,1.861,1.861,0,0,1-1.945-1.9Zm3.2,0a1.259,1.259,0,1,0-1.252,1.315,1.224,1.224,0,0,0,1.252-1.315Z" transform="translate(-160.399 -116.768)" fill="#e0e0e0"/>
          <path id="Path_359" data-name="Path 359" d="M238.2,156.8v2.14h-.7v-2.064c0-.734-.357-1.091-.965-1.091a1.115,1.115,0,0,0-1.119,1.238v1.917h-.7v-2.064c0-.734-.357-1.091-.965-1.091a1.115,1.115,0,0,0-1.119,1.238v1.917h-.7v-3.728h.749v.56a1.518,1.518,0,0,1,1.287-.595,1.4,1.4,0,0,1,1.294.7,1.686,1.686,0,0,1,1.434-.7,1.4,1.4,0,0,1,1.5,1.623Z" transform="translate(-162.434 -116.796)" fill="#e0e0e0"/>
          <path id="Path_360" data-name="Path 360" d="M245.9,157.306h-3.022a1.259,1.259,0,0,0,1.35,1.091,1.4,1.4,0,0,0,1.077-.448l.371.434a2.036,2.036,0,0,1-3.5-1.3,1.833,1.833,0,0,1,1.875-1.9,1.8,1.8,0,0,1,1.84,1.924A.486.486,0,0,1,245.9,157.306Zm-3.022-.483h2.392a1.2,1.2,0,0,0-2.392,0Z" transform="translate(-165.514 -116.798)" fill="#e0e0e0"/>
          <path id="Path_361" data-name="Path 361" d="M248.64,158.059a.448.448,0,1,1,.136.322A.448.448,0,0,1,248.64,158.059Zm.063-4.519h.8l-.133,3.372h-.539Z" transform="translate(-167.455 -116.306)" fill="#e0e0e0"/>
          <g id="Group_37" data-name="Group 37" transform="translate(142.44 20.691)">
            <path id="Path_291" data-name="Path 291" d="M339.839,216.272c-.112,0,0-2.175-.406-4.8s-1.182-4.652-1.077-4.694a4.657,4.657,0,0,1,.595,1.3,18.34,18.34,0,0,1,.846,3.337,19.368,19.368,0,0,1,.217,3.435A4.465,4.465,0,0,1,339.839,216.272Z" transform="translate(-336.852 -136.907)" fill="#fafafa"/>
            <rect id="Rectangle_64" data-name="Rectangle 64" width="2.686" height="205.352" rx="1.33" transform="translate(0)" fill="#e0e0e0"/>
          </g>
          <path id="Path_362" data-name="Path 362" d="M162.972,194.52v4.9h-.7v-4.281H161.16v-.616Z" transform="translate(-141.168 -112.532)" fill="#263238"/>
          <path id="Path_363" data-name="Path 363" d="M165.27,200.729a.476.476,0,1,1,.476.483.469.469,0,0,1-.476-.483Z" transform="translate(-142.403 -114.257)" fill="#263238"/>
          <g id="Group_38" data-name="Group 38" transform="translate(26.057 81.988)">
            <path id="Path_364" data-name="Path 364" d="M171.523,195.136H169.83v-.616h4.078v.616h-1.693v4.309h-.7Z" transform="translate(-169.83 -194.52)" fill="#263238"/>
            <path id="Path_365" data-name="Path 365" d="M179.258,198.306h-3.029a1.266,1.266,0,0,0,1.35,1.091,1.4,1.4,0,0,0,1.077-.455l.371.441a2.029,2.029,0,0,1-3.5-1.3,1.826,1.826,0,0,1,1.868-1.9,1.8,1.8,0,0,1,1.847,1.924A.39.39,0,0,1,179.258,198.306Zm-3.029-.49h2.427a1.2,1.2,0,0,0-2.392,0Z" transform="translate(-171.542 -195.019)" fill="#263238"/>
            <path id="Path_366" data-name="Path 366" d="M184.209,196.175v.658h-.154a1.112,1.112,0,0,0-1.175,1.259v1.854h-.7v-3.728h.643v.63A1.4,1.4,0,0,1,184.209,196.175Z" transform="translate(-173.541 -195.014)" fill="#263238"/>
            <path id="Path_367" data-name="Path 367" d="M192.43,197.764v2.147h-.7v-2.1c0-.7-.35-1.084-.965-1.084a1.106,1.106,0,0,0-1.112,1.238v1.917h-.7v-2.1c0-.7-.35-1.084-.965-1.084a1.084,1.084,0,0,0-1.119,1.238v1.917h-.7v-3.728h.644v.56a1.511,1.511,0,0,1,1.287-.594,1.4,1.4,0,0,1,1.294.7,1.685,1.685,0,0,1,1.441-.7,1.4,1.4,0,0,1,1.595,1.672Z" transform="translate(-174.74 -194.987)" fill="#263238"/>
          </g>
          <path id="Path_368" data-name="Path 368" d="M164.935,308.041v.609h-3.5v-.476l2-1.937c.525-.5.623-.811.623-1.126,0-.5-.364-.811-1.049-.811a1.546,1.546,0,0,0-1.259.532l-.483-.413a2.273,2.273,0,0,1,1.8-.749c1.028,0,1.686.532,1.686,1.4a1.987,1.987,0,0,1-.8,1.546l-1.511,1.455Z" transform="translate(-141.201 -145.33)" fill="#263238"/>
          <path id="Path_369" data-name="Path 369" d="M167.42,309.953a.469.469,0,0,1,.476-.483.483.483,0,0,1,0,.965.476.476,0,0,1-.476-.483Z" transform="translate(-143.049 -147.074)" fill="#263238"/>
          <path id="Path_377" data-name="Path 377" d="M268.908,217.312c0,.1-24.14.182-53.91.182s-53.917-.077-53.917-.182,24.14-.182,53.917-.182S268.908,217.214,268.908,217.312Z" transform="translate(-141.144 -119.326)" fill="#263238"/>
          <path id="Path_378" data-name="Path 378" d="M268.908,228.982c0,.1-24.14.182-53.91.182s-53.917-.084-53.917-.182S185.22,228.8,215,228.8,268.908,228.877,268.908,228.982Z" transform="translate(-141.144 -122.833)" fill="#263238"/>
          <path id="Path_379" data-name="Path 379" d="M268.908,240.642c0,.1-24.14.182-53.91.182s-53.917-.077-53.917-.182,24.14-.182,53.917-.182S268.908,240.544,268.908,240.642Z" transform="translate(-141.144 -126.337)" fill="#263238"/>
          <path id="Path_380" data-name="Path 380" d="M268.908,252.312c0,.1-24.14.182-53.91.182s-53.917-.084-53.917-.182,24.14-.182,53.917-.182S268.908,252.207,268.908,252.312Z" transform="translate(-141.144 -129.844)" fill="#263238"/>
          <path id="Path_381" data-name="Path 381" d="M268.908,263.972c0,.105-24.14.182-53.91.182s-53.917-.077-53.917-.182,24.14-.182,53.917-.182S268.908,263.874,268.908,263.972Z" transform="translate(-141.144 -133.347)" fill="#263238"/>
          <path id="Path_382" data-name="Path 382" d="M268.908,275.642c0,.1-24.14.182-53.91.182s-53.917-.084-53.917-.182,24.14-.182,53.917-.182S268.908,275.537,268.908,275.642Z" transform="translate(-141.144 -136.854)" fill="#263238"/>
          <path id="Path_383" data-name="Path 383" d="M268.908,319.922c0,.1-24.14.182-53.91.182s-53.917-.084-53.917-.182,24.14-.182,53.917-.182S268.908,319.838,268.908,319.922Z" transform="translate(-141.144 -150.16)" fill="#263238"/>
          <path id="Path_384" data-name="Path 384" d="M268.908,329.922c0,.1-24.14.182-53.91.182s-53.917-.077-53.917-.182,24.14-.182,53.917-.182S268.908,329.824,268.908,329.922Z" transform="translate(-141.144 -153.165)" fill="#e0e0e0"/>
          <path id="Path_385" data-name="Path 385" d="M268.908,339.922c0,.1-24.14.182-53.91.182s-53.917-.084-53.917-.182,24.14-.182,53.917-.182S268.908,339.81,268.908,339.922Z" transform="translate(-141.144 -156.17)" fill="#ebebeb"/>
          <g id="Group_39" data-name="Group 39" transform="translate(25.966 157.952)">
            <path id="Path_364-2" data-name="Path 364" d="M171.523,195.136H169.83v-.616h4.078v.616h-1.693v4.309h-.7Z" transform="translate(-169.83 -194.52)" fill="#263238"/>
            <path id="Path_365-2" data-name="Path 365" d="M179.258,198.306h-3.029a1.266,1.266,0,0,0,1.35,1.091,1.4,1.4,0,0,0,1.077-.455l.371.441a2.029,2.029,0,0,1-3.5-1.3,1.826,1.826,0,0,1,1.868-1.9,1.8,1.8,0,0,1,1.847,1.924A.39.39,0,0,1,179.258,198.306Zm-3.029-.49h2.427a1.2,1.2,0,0,0-2.392,0Z" transform="translate(-171.542 -195.019)" fill="#263238"/>
            <path id="Path_366-2" data-name="Path 366" d="M184.209,196.175v.658h-.154a1.112,1.112,0,0,0-1.175,1.259v1.854h-.7v-3.728h.643v.63A1.4,1.4,0,0,1,184.209,196.175Z" transform="translate(-173.541 -195.014)" fill="#263238"/>
            <path id="Path_367-2" data-name="Path 367" d="M192.43,197.764v2.147h-.7v-2.1c0-.7-.35-1.084-.965-1.084a1.106,1.106,0,0,0-1.112,1.238v1.917h-.7v-2.1c0-.7-.35-1.084-.965-1.084a1.084,1.084,0,0,0-1.119,1.238v1.917h-.7v-3.728h.644v.56a1.511,1.511,0,0,1,1.287-.594,1.4,1.4,0,0,1,1.294.7,1.685,1.685,0,0,1,1.441-.7,1.4,1.4,0,0,1,1.595,1.672Z" transform="translate(-174.74 -194.987)" fill="#263238"/>
          </g>
        </g>
        <g id="Group_42" data-name="Group 42" transform="translate(16.698 26.651)">
          <path id="Path_173" data-name="Path 173" d="M179.065,149.122h-20.1a2.518,2.518,0,0,1-2.518-2.511V118.791a2.518,2.518,0,0,1,2.518-2.511h12.745l9.863,10.164V146.61A2.511,2.511,0,0,1,179.065,149.122Z" transform="translate(-156.45 -116.28)" fill="#f7941d"/>
          <path id="Path_174" data-name="Path 174" d="M178.27,116.28v7.827a2.343,2.343,0,0,0,2.336,2.336h7.527Z" transform="translate(-163.007 -116.28)" fill="#f7941d"/>
          <g id="Group_28" data-name="Group 28" transform="translate(15.368 8.513)" opacity="0.2">
            <path id="Path_175" data-name="Path 175" d="M178.42,128.45a2.6,2.6,0,0,0,2.057,2.525l.252.056c.979.175,7.45,1.322,7.45,1.175v-2.1h-7.527S178.777,130.038,178.42,128.45Z" transform="translate(-178.42 -128.45)"/>
          </g>
          <g id="Group_29" data-name="Group 29" transform="translate(15.263 0)" opacity="0.3">
            <path id="Path_176" data-name="Path 176" d="M178.27,116.28v7.827a2.343,2.343,0,0,0,2.336,2.336h7.527Z" transform="translate(-178.27 -116.28)" fill="#fff"/>
          </g>
          <path id="Path_177" data-name="Path 177" d="M171.866,126.913a30.3,30.3,0,0,1-4.652.182,30.164,30.164,0,0,1-4.645-.182,30.171,30.171,0,0,1,4.645-.182,30.3,30.3,0,0,1,4.652.182Z" transform="translate(-158.289 -119.414)" fill="#fafafa"/>
          <path id="Path_178" data-name="Path 178" d="M177.868,133.262c0,.1-3.421.182-7.646.182s-7.653-.084-7.653-.182,3.428-.182,7.653-.182S177.868,133.157,177.868,133.262Z" transform="translate(-158.289 -121.328)" fill="#fafafa"/>
          <path id="Path_179" data-name="Path 179" d="M179.246,138.542c0,.1-3.728.182-8.338.182s-8.338-.077-8.338-.182,3.735-.182,8.338-.182S179.246,138.444,179.246,138.542Z" transform="translate(-158.289 -122.915)" fill="#fafafa"/>
          <path id="Path_180" data-name="Path 180" d="M179.246,143.532c0,.1-3.728.182-8.338.182s-8.338-.084-8.338-.182,3.735-.182,8.338-.182S179.246,143.427,179.246,143.532Z" transform="translate(-158.289 -124.415)" fill="#fafafa"/>
          <path id="Path_181" data-name="Path 181" d="M179.246,148.512c0,.1-3.728.182-8.338.182s-8.338-.077-8.338-.182,3.735-.182,8.338-.182S179.246,148.414,179.246,148.512Z" transform="translate(-158.289 -125.911)" fill="#fafafa"/>
          <path id="Path_182" data-name="Path 182" d="M179.246,153.5c0,.1-3.728.182-8.338.182s-8.338-.084-8.338-.182,3.735-.182,8.338-.182S179.246,153.4,179.246,153.5Z" transform="translate(-158.289 -127.411)" fill="#fafafa"/>
        </g>
        <rect id="Rectangle_60" data-name="Rectangle 60" width="2.686" height="105.869" rx="1.33" transform="translate(142.552 22.013)" fill="#f7941d"/>
      </g>
    </g>
  </g>
</svg>
